<svg width="32" height="31" viewBox="0 0 32 31" fill="none" xmlns="http://www.w3.org/2000/svg">
<path d="M24.6489 30.5025C24.35 30.5017 24.052 30.4689 23.76 30.4047C18.2015 29.2549 13.0805 26.5589 8.98667 22.627C4.98015 18.6864 2.20142 13.6693 0.986668 8.18251C0.843433 7.4987 0.878589 6.78953 1.08875 6.12324C1.29891 5.45694 1.67701 4.85595 2.18667 4.37807L5.74222 0.955845C5.92383 0.784101 6.13961 0.652583 6.37548 0.569874C6.61136 0.487165 6.86202 0.455125 7.11111 0.475845C7.36939 0.50279 7.61863 0.585991 7.84131 0.719595C8.06398 0.8532 8.25468 1.03397 8.4 1.24918L12.8444 7.81807C13.0111 8.07295 13.0916 8.3746 13.074 8.67863C13.0564 8.98266 12.9416 9.27301 12.7467 9.50696L10.5156 12.1736C11.4041 14.1402 12.6625 15.9177 14.2222 17.4092C15.7718 18.9548 17.6034 20.1889 19.6178 21.0447L22.3822 18.8492C22.6144 18.6657 22.8969 18.5572 23.1923 18.5381C23.4876 18.5191 23.7817 18.5904 24.0356 18.7425L30.7467 23.0803C30.977 23.2178 31.1732 23.4056 31.3206 23.6297C31.468 23.8538 31.5628 24.1084 31.5978 24.3743C31.6329 24.6403 31.6073 24.9107 31.523 25.1653C31.4387 25.42 31.2979 25.6522 31.1111 25.8447L27.6444 29.2758C27.2507 29.6677 26.7833 29.9778 26.2692 30.1883C25.7551 30.3988 25.2044 30.5056 24.6489 30.5025ZM6.96889 2.23585L3.41333 5.65807C3.12662 5.92522 2.91439 6.26241 2.7975 6.63645C2.68061 7.0105 2.66309 7.40853 2.74667 7.7914C3.8762 12.94 6.47264 17.6512 10.2222 21.3558C14.0748 25.055 18.8939 27.5909 24.1244 28.6714C24.5204 28.7542 24.9306 28.7374 25.3185 28.6226C25.7063 28.5078 26.0596 28.2986 26.3467 28.0136L29.8133 24.5825L23.3333 20.3958L20.3644 22.7603C20.2508 22.8502 20.1169 22.911 19.9743 22.9374C19.8318 22.9637 19.685 22.9548 19.5467 22.9114C17.0815 22.0031 14.8475 20.5614 13.0044 18.6892C11.0981 16.9089 9.61833 14.7212 8.67556 12.2892C8.63567 12.1419 8.63435 11.9869 8.67171 11.839C8.70907 11.6911 8.78386 11.5554 8.88889 11.4447L11.2889 8.57362L6.96889 2.23585Z" fill="#F1F8F6"/>
</svg>
