<svg width="956" height="869" viewBox="0 0 956 869" fill="none" xmlns="http://www.w3.org/2000/svg">
<g opacity="0.6">
<path opacity="0.01" d="M668.083 588.168C589.222 692.82 418.569 697.607 286.813 598.321C155.056 499.035 112.62 333.674 191.481 229.022C270.342 124.37 440.994 119.583 572.75 218.869C704.507 318.155 746.944 483.516 668.083 588.168Z" stroke="#ECECEC" stroke-width="1.63648"/>
<path opacity="0.0302041" d="M665.146 592.943C583.625 693.612 415.575 693.021 289.709 591.097C163.844 489.173 128.326 324.918 209.846 224.249C291.366 123.58 459.417 124.171 585.283 226.095C711.148 328.018 746.666 492.274 665.146 592.943Z" stroke="#ECECEC" stroke-width="1.63648"/>
<path opacity="0.0504082" d="M662.171 597.196C578.172 693.825 412.887 688.043 292.934 583.769C172.98 479.495 144.251 316.624 228.25 219.994C312.249 123.365 477.533 129.147 597.487 233.421C717.44 337.695 746.169 500.567 662.171 597.196Z" stroke="#ECECEC" stroke-width="1.63648"/>
<path opacity="0.0706122" d="M659.181 600.933C572.886 693.474 410.521 682.692 296.488 576.354C182.454 470.016 160.372 308.799 246.668 216.258C332.964 123.717 495.328 134.5 609.362 240.838C723.395 347.176 745.477 508.392 659.181 600.933Z" stroke="#ECECEC" stroke-width="1.63648"/>
<path opacity="0.0908163" d="M656.201 604.157C567.789 692.568 408.49 676.982 300.372 568.863C192.253 460.745 176.667 301.446 265.078 213.034C353.489 124.623 512.789 140.21 620.907 248.328C729.025 356.446 744.612 515.746 656.201 604.157Z" stroke="#ECECEC" stroke-width="1.63648"/>
<path opacity="0.11102" d="M653.251 606.873C562.906 691.121 406.805 670.929 304.585 561.312C202.365 451.694 193.112 294.566 283.457 210.318C373.802 126.069 529.902 146.261 632.122 255.879C734.342 365.496 743.596 522.625 653.251 606.873Z" stroke="#ECECEC" stroke-width="1.63648"/>
<path opacity="0.131224" d="M650.354 609.088C558.256 689.147 405.48 664.553 309.128 553.714C212.777 442.875 209.685 288.162 301.783 208.102C393.88 128.043 546.657 152.637 643.009 263.476C739.36 374.316 742.452 529.029 650.354 609.088Z" stroke="#ECECEC" stroke-width="1.63648"/>
<path opacity="0.151429" d="M647.532 610.809C553.863 686.661 404.523 657.871 313.999 546.083C223.475 434.295 226.364 282.233 320.033 206.381C413.703 130.529 563.042 159.319 653.566 271.107C744.09 382.895 741.202 534.957 647.532 610.809Z" stroke="#ECECEC" stroke-width="1.63648"/>
<path opacity="0.171633" d="M644.807 612.044C549.745 683.678 403.947 650.9 319.197 538.433C234.447 425.965 243.126 276.78 338.187 205.146C433.249 133.512 579.047 166.291 663.797 278.758C748.547 391.225 739.868 540.41 644.807 612.044Z" stroke="#ECECEC" stroke-width="1.63648"/>
<path opacity="0.191837" d="M642.199 612.803C545.924 680.215 403.761 643.659 324.72 530.776C245.678 417.893 259.95 271.801 356.224 204.389C452.499 136.976 594.662 173.532 673.704 286.415C752.745 399.298 738.474 545.391 642.199 612.803Z" stroke="#ECECEC" stroke-width="1.63648"/>
<path opacity="0.212041" d="M639.728 613.093C542.418 676.288 403.972 636.166 330.564 523.126C257.155 410.087 276.813 267.292 374.123 204.097C471.434 140.903 609.879 181.025 683.288 294.064C756.697 407.104 737.039 549.899 639.728 613.093Z" stroke="#ECECEC" stroke-width="1.63648"/>
<path opacity="0.232245" d="M637.416 612.927C539.244 671.915 404.59 628.44 336.726 515.497C268.863 402.553 293.694 263.25 391.865 204.263C490.037 145.275 624.691 188.75 692.555 301.693C760.418 414.637 735.587 553.94 637.416 612.927Z" stroke="#ECECEC" stroke-width="1.63648"/>
<path opacity="0.252449" d="M635.28 612.317C536.421 667.115 405.62 620.501 343.204 507.9C280.788 395.299 310.571 259.672 409.43 204.873C508.289 150.075 639.09 196.689 701.506 309.29C763.922 421.891 734.139 557.518 635.28 612.317Z" stroke="#ECECEC" stroke-width="1.63648"/>
<path opacity="0.272653" d="M633.339 611.273C533.963 661.908 407.069 612.368 349.992 500.349C292.915 388.33 327.424 256.551 426.8 205.917C526.175 155.283 653.07 204.822 710.147 316.841C767.223 428.86 732.715 560.639 633.339 611.273Z" stroke="#ECECEC" stroke-width="1.63648"/>
<path opacity="0.292857" d="M631.612 609.81C531.888 656.312 408.942 604.061 357.086 492.856C305.23 381.652 344.232 253.882 443.956 207.38C543.68 160.878 666.626 213.13 718.482 324.335C770.337 435.539 731.336 563.308 631.612 609.81Z" stroke="#ECECEC" stroke-width="1.63648"/>
<path opacity="0.313061" d="M630.116 607.94C530.209 650.348 411.243 595.598 364.481 485.432C317.718 375.267 360.974 251.657 460.881 209.249C560.788 166.841 679.754 221.592 726.516 331.757C773.279 441.923 730.023 565.532 630.116 607.94Z" stroke="#ECECEC" stroke-width="1.63648"/>
<path opacity="0.333265" d="M628.866 605.68C528.939 644.039 413.976 587 372.17 478.091C330.364 369.183 377.631 249.87 477.559 211.511C577.487 173.152 692.449 230.191 734.256 339.1C776.062 448.009 728.794 567.322 628.866 605.68Z" stroke="#ECECEC" stroke-width="1.63648"/>
<path opacity="0.353469" d="M627.881 603.043C528.091 637.403 417.144 578.287 380.148 470.843C343.152 363.399 394.184 248.509 493.974 214.149C593.763 179.788 704.71 238.904 741.706 346.348C778.702 453.793 727.67 568.683 627.881 603.043Z" stroke="#ECECEC" stroke-width="1.63648"/>
<path opacity="0.373673" d="M627.173 600.044C527.677 630.463 420.749 569.478 388.409 463.698C356.069 357.919 410.614 247.566 510.11 217.147C609.606 186.728 716.535 247.714 748.875 353.493C781.215 459.272 726.67 569.625 627.173 600.044Z" stroke="#ECECEC" stroke-width="1.63648"/>
<path opacity="0.393878" d="M626.759 596.701C527.707 623.242 424.79 560.592 396.944 456.668C369.098 352.745 426.902 247.03 525.953 220.489C625.005 193.949 727.922 256.599 755.768 360.522C783.614 464.445 725.811 570.16 626.759 596.701Z" stroke="#ECECEC" stroke-width="1.63648"/>
<path opacity="0.414082" d="M626.651 593.03C528.191 615.762 429.27 551.65 405.748 449.764C382.226 347.878 443.031 246.891 541.49 224.16C639.95 201.429 738.871 265.54 762.393 367.426C785.916 469.312 725.111 570.299 626.651 593.03Z" stroke="#ECECEC" stroke-width="1.63648"/>
<path opacity="0.434286" d="M626.862 589.05C529.137 608.046 434.187 542.673 414.812 442.996C395.436 343.319 458.983 247.138 556.708 228.142C654.433 209.146 749.383 274.519 768.758 374.196C788.134 473.872 724.587 570.054 626.862 589.05Z" stroke="#ECECEC" stroke-width="1.63648"/>
<path opacity="0.45449" d="M627.404 584.776C530.552 600.116 439.539 533.678 424.127 436.372C408.716 339.067 474.744 247.755 571.596 232.416C668.447 217.076 759.46 283.514 774.872 380.82C790.284 478.125 724.256 569.437 627.404 584.776Z" stroke="#ECECEC" stroke-width="1.63648"/>
<path opacity="0.474694" d="M628.288 580.228C532.443 591.996 445.324 524.684 433.686 429.902C422.048 335.12 490.295 248.731 586.14 236.963C681.985 225.194 769.104 292.507 780.742 387.289C792.379 482.07 724.133 568.46 628.288 580.228Z" stroke="#ECECEC" stroke-width="1.63648"/>
<path opacity="0.494898" d="M629.524 575.425C534.815 583.711 451.539 515.712 443.48 423.595C435.421 331.479 505.623 250.052 600.333 241.766C695.042 233.48 778.318 301.479 786.377 393.596C794.436 485.712 724.234 567.139 629.524 575.425Z" stroke="#ECECEC" stroke-width="1.63648"/>
<path opacity="0.515102" d="M631.122 570.385C537.672 575.282 458.18 506.78 453.499 417.46C448.818 328.139 520.713 251.703 614.163 246.805C707.613 241.908 787.105 310.41 791.786 399.731C796.467 489.051 724.572 565.487 631.122 570.385Z" stroke="#ECECEC" stroke-width="1.63648"/>
<path opacity="0.535306" d="M633.089 565.128C541.017 566.735 465.242 497.907 463.734 411.503C462.226 325.1 535.553 253.669 627.625 252.062C719.697 250.455 795.472 319.283 796.98 405.687C798.488 492.09 725.161 563.521 633.089 565.128Z" stroke="#ECECEC" stroke-width="1.63648"/>
<path opacity="0.55551" d="M635.435 559.674C544.854 558.093 472.721 489.112 474.176 405.734C475.631 322.357 550.128 255.935 640.709 257.516C731.29 259.097 803.423 328.079 801.968 411.456C800.513 494.833 726.016 561.255 635.435 559.674Z" stroke="#ECECEC" stroke-width="1.63648"/>
<path opacity="0.575714" d="M638.164 554.042C549.181 549.379 480.608 480.412 484.814 400.159C489.019 319.906 564.426 258.484 653.409 263.148C742.391 267.811 810.965 336.778 806.759 417.031C802.553 497.284 727.146 558.706 638.164 554.042Z" stroke="#ECECEC" stroke-width="1.63648"/>
<path opacity="0.595918" d="M641.282 548.254C554 540.617 488.897 471.825 495.637 394.784C502.378 317.743 578.437 261.3 665.719 268.936C753.001 276.573 818.104 345.365 811.364 422.406C804.623 499.447 728.563 555.89 641.282 548.254Z" stroke="#ECECEC" stroke-width="1.63648"/>
<path opacity="0.616122" d="M644.795 542.328C559.31 531.832 497.582 463.368 506.637 389.616C515.693 315.863 592.151 264.366 677.635 274.863C763.12 285.359 824.849 353.822 815.793 427.575C806.737 501.328 730.279 552.824 644.795 542.328Z" stroke="#ECECEC" stroke-width="1.63648"/>
<path opacity="0.636327" d="M648.705 536.286C565.108 523.045 506.652 455.059 517.802 384.659C528.953 314.259 605.556 267.665 689.154 280.905C772.751 294.146 831.207 362.132 820.057 432.532C808.907 502.932 732.303 549.526 648.705 536.286Z" stroke="#ECECEC" stroke-width="1.63648"/>
<path opacity="0.656531" d="M653.017 530.147C571.391 514.281 516.099 446.913 529.122 379.92C542.144 312.926 618.645 271.176 700.271 287.043C781.897 302.909 837.189 370.277 824.167 437.27C811.144 504.264 734.643 546.014 653.017 530.147Z" stroke="#ECECEC" stroke-width="1.63648"/>
<path opacity="0.676735" d="M657.73 523.934C578.154 505.562 525.913 438.948 540.584 375.403C555.255 311.857 631.41 274.886 710.986 293.257C790.563 311.629 842.803 378.243 828.133 441.788C813.462 505.334 737.307 542.306 657.73 523.934Z" stroke="#ECECEC" stroke-width="1.63648"/>
<path opacity="0.696939" d="M662.848 517.665C585.394 496.911 536.084 431.178 552.179 371.111C568.274 311.044 643.844 278.772 721.298 299.526C798.753 320.28 848.062 386.013 831.967 446.08C815.872 506.147 740.302 538.419 662.848 517.665Z" stroke="#8E1919" stroke-width="1.63648"/>
<path opacity="0.717143" d="M668.368 511.362C630.782 499.871 600.312 477.933 581.421 451.79C562.531 425.647 555.244 395.346 563.895 367.049C572.546 338.753 595.532 317.706 625.811 306.597C656.091 295.486 693.619 294.337 731.206 305.829C768.793 317.32 799.263 339.258 818.153 365.401C837.043 391.544 844.33 421.846 835.679 450.142C827.028 478.438 804.043 499.485 773.763 510.595C743.483 521.705 705.955 522.854 668.368 511.362Z" stroke="#8E1919" stroke-width="1.63648"/>
<path opacity="0.737347" d="M674.291 505.045C637.835 492.492 608.593 470.299 590.772 444.603C572.952 418.906 566.582 389.761 575.721 363.22C584.86 336.678 607.823 317.633 637.686 308.355C667.549 299.078 704.255 299.592 740.712 312.145C777.169 324.698 806.41 346.892 824.231 372.588C842.051 398.285 848.421 427.429 839.282 453.971C830.143 480.513 807.18 499.557 777.317 508.835C747.454 518.113 710.748 517.598 674.291 505.045Z" stroke="#8E1919" stroke-width="1.63648"/>
<path opacity="0.757551" d="M680.615 498.735C645.316 485.185 617.282 462.794 600.477 437.586C583.671 412.376 578.13 384.415 587.646 359.626C597.161 334.837 619.988 317.765 649.347 310.276C678.703 302.787 714.518 304.906 749.817 318.456C785.116 332.006 813.151 354.397 829.955 379.605C846.761 404.815 852.302 432.777 842.786 457.565C833.271 482.354 810.444 499.426 781.086 506.915C751.73 514.404 715.914 512.285 680.615 498.735Z" stroke="#8E1919" stroke-width="1.63648"/>
<path opacity="0.777755" d="M687.336 492.451C653.219 477.969 626.369 455.438 610.524 430.755C594.676 406.068 589.877 379.311 599.658 356.27C609.439 333.228 632.02 318.093 660.787 312.344C689.549 306.596 724.408 310.258 758.525 324.74C792.643 339.222 819.492 361.754 835.337 386.437C851.185 411.123 855.984 437.88 846.204 460.922C836.423 483.964 813.842 499.098 785.075 504.847C756.313 510.595 721.453 506.933 687.336 492.451Z" stroke="#8E1919" stroke-width="1.63648"/>
<path opacity="0.797959" d="M694.451 486.213C661.536 470.865 635.847 448.246 620.904 424.124C605.956 399.994 601.809 374.458 611.745 353.151C621.681 331.844 643.908 318.606 672 314.546C700.085 310.488 733.924 315.628 766.839 330.976C799.754 346.325 825.443 368.944 840.386 393.066C855.334 417.196 859.48 442.731 849.545 464.039C839.609 485.346 817.382 498.583 789.289 502.643C761.205 506.702 727.366 501.562 694.451 486.213Z" stroke="#8E1919" stroke-width="1.63648"/>
<path opacity="0.818163" d="M701.955 480.043C670.261 463.894 645.704 441.241 631.604 417.709C617.498 394.166 613.916 369.864 623.897 350.274C633.879 330.684 655.646 319.297 682.984 316.871C710.309 314.447 743.07 320.999 774.764 337.148C806.458 353.296 831.015 375.95 845.115 399.481C859.221 423.024 862.803 447.327 852.822 466.917C842.84 486.506 821.073 497.893 793.735 500.319C766.41 502.744 733.649 496.192 701.955 480.043Z" stroke="#8E1919" stroke-width="1.63648"/>
<path opacity="0.838367" d="M709.843 473.958C679.384 457.075 655.93 434.437 642.614 411.524C629.288 388.595 626.183 365.532 636.102 347.637C646.022 329.742 667.225 320.154 693.732 319.304C720.22 318.455 751.846 326.349 782.305 343.233C812.764 360.116 836.218 382.754 849.534 405.667C862.86 428.596 865.965 451.659 856.045 469.554C846.126 487.449 824.923 497.037 798.416 497.887C771.928 498.736 740.301 490.842 709.843 473.958Z" stroke="#8E1919" stroke-width="1.63648"/>
<path opacity="0.858571" d="M718.108 467.978C688.896 450.426 666.513 427.852 653.92 405.582C641.313 383.288 638.598 361.469 648.349 345.241C658.1 329.013 678.639 321.167 704.242 321.831C729.818 322.495 760.257 331.661 789.469 349.213C818.681 366.765 841.064 389.339 853.657 411.609C866.264 433.903 868.978 455.722 859.228 471.95C849.477 488.178 828.938 496.024 803.334 495.359C777.759 494.696 747.319 485.53 718.108 467.978Z" stroke="#8E1919" stroke-width="1.63648"/>
<path opacity="0.878776" d="M726.743 462.121C698.787 443.966 677.44 421.502 665.509 399.896C653.559 378.254 651.149 357.679 660.626 343.085C670.104 328.491 689.88 322.323 714.512 324.438C739.103 326.55 768.307 336.914 796.263 355.069C824.219 373.223 845.566 395.687 857.497 417.294C869.447 438.935 871.857 459.511 862.379 474.105C852.902 488.699 833.125 494.866 808.494 492.751C783.903 490.64 754.698 480.276 726.743 462.121Z" stroke="#8E1919" stroke-width="1.63648"/>
<path opacity="0.89898" d="M735.739 456.408C709.044 437.716 688.699 415.406 677.368 394.479C666.01 373.504 663.822 354.167 672.923 341.169C682.024 328.172 700.943 323.615 724.537 327.113C748.078 330.604 776.001 342.092 802.696 360.784C829.39 379.475 849.735 401.786 861.067 422.712C872.424 443.687 874.613 463.024 865.512 476.022C856.411 489.019 837.491 493.577 813.897 490.078C790.357 486.587 762.433 475.1 735.739 456.408Z" stroke="#8E1919" stroke-width="1.63648"/>
<path opacity="0.919184" d="M745.088 450.853C719.657 431.69 700.276 409.574 689.482 389.341C678.653 369.042 676.604 350.934 685.227 339.491C693.851 328.047 711.821 325.025 734.319 329.84C756.743 334.639 783.345 347.173 808.776 366.337C834.207 385.501 853.588 407.616 864.382 427.85C875.211 448.148 877.26 466.256 868.637 477.699C860.013 489.143 842.042 492.165 819.545 487.35C797.121 482.552 770.519 470.017 745.088 450.853Z" stroke="#8E1919" stroke-width="1.63648"/>
<path opacity="0.939388" d="M754.78 445.477C730.612 425.906 712.155 404.024 701.836 384.494C696.676 374.728 693.57 365.586 692.778 357.641C691.986 349.7 693.509 343.014 697.529 338.049C701.549 333.084 707.773 330.205 715.705 329.328C723.641 328.451 733.229 329.588 743.855 332.606C765.103 338.639 790.345 352.143 814.513 371.713C838.68 391.284 857.137 413.167 867.457 432.696C872.617 442.463 875.723 451.604 876.515 459.55C877.306 467.49 875.784 474.177 871.764 479.141C867.743 484.106 861.52 486.986 853.588 487.862C845.651 488.74 836.064 487.602 825.438 484.585C804.19 478.552 778.948 465.048 754.78 445.477Z" stroke="#8E1919" stroke-width="1.63648"/>
<path opacity="0.959592" d="M764.804 440.295C741.897 420.382 724.323 398.768 714.416 379.948C709.461 370.536 706.445 361.861 705.613 354.473C704.781 347.085 706.139 341.072 709.817 336.841C713.495 332.61 719.261 330.428 726.692 330.223C734.125 330.019 743.135 331.799 753.145 335.396C773.161 342.587 797.01 356.981 819.917 376.895C842.825 396.808 860.398 418.422 870.306 437.242C875.261 446.654 878.277 455.329 879.109 462.717C879.941 470.105 878.582 476.118 874.905 480.349C871.227 484.58 865.461 486.762 858.029 486.967C850.597 487.171 841.587 485.391 831.577 481.794C811.561 474.603 787.712 460.208 764.804 440.295Z" stroke="#8E1919" stroke-width="1.63648"/>
<path opacity="0.979796" d="M775.149 435.325C753.495 415.132 736.763 393.822 727.205 375.714C722.424 366.657 719.461 358.442 718.55 351.595C717.638 344.741 718.796 339.386 722.081 335.864C725.365 332.342 730.626 330.814 737.527 331.245C744.42 331.676 752.822 334.06 762.191 338.197C780.921 346.468 803.347 361.673 825.001 381.866C846.655 402.059 863.387 423.369 872.945 441.477C877.726 450.534 880.689 458.749 881.6 465.596C882.512 472.45 881.354 477.805 878.07 481.327C874.785 484.849 869.524 486.377 862.623 485.946C855.73 485.515 847.328 483.131 837.959 478.994C819.229 470.723 796.804 455.518 775.149 435.325Z" stroke="#8E1919" stroke-width="1.63648"/>
<path d="M785.803 430.581C765.393 410.171 749.46 389.195 740.189 371.798C735.551 363.096 732.603 355.331 731.575 349.008C730.544 342.661 731.47 337.954 734.309 335.115C737.149 332.276 741.856 331.349 748.203 332.38C754.526 333.408 762.29 336.356 770.993 340.994C788.389 350.265 809.366 366.199 829.776 386.609C850.186 407.019 866.12 427.995 875.391 445.391C880.029 454.094 882.976 461.859 884.004 468.182C885.036 474.528 884.109 479.236 881.27 482.075C878.431 484.914 873.723 485.841 867.376 484.809C861.053 483.782 853.289 480.834 844.586 476.196C827.19 466.925 806.213 450.991 785.803 430.581Z" stroke="#8E1919" stroke-width="1.63648"/>
</g>
</svg>
