<svg width="742" height="819" viewBox="0 0 742 819" fill="none" xmlns="http://www.w3.org/2000/svg">
<g opacity="0.7">
<path opacity="0.01" fill-rule="evenodd" clip-rule="evenodd" d="M576.126 774.075C545.805 714.742 514.247 656.453 503.53 590.691C491.15 514.72 479.162 435.566 509.049 364.644C540.618 289.728 597.572 219.862 672.86 189.209C746.726 159.134 830.266 183.447 908.026 201.215C975.29 216.585 1034.37 248.929 1093.1 285.156C1152.14 321.571 1208.29 360.998 1252.47 414.475C1304.06 476.919 1401.77 546.669 1370.39 621.328C1333.1 710.051 1164.4 660.472 1114.41 742.704C1063.36 826.679 1193.64 965.978 1121.22 1032.41C1058.41 1090.04 964.82 973.301 881.315 956.109C815.211 942.499 741.682 976.788 683.682 942.268C625.531 907.66 606.92 834.336 576.126 774.075Z" stroke="#8E1919"/>
<path opacity="0.0168067" fill-rule="evenodd" clip-rule="evenodd" d="M577.697 757.252C548.416 697.398 517.881 638.568 508.314 572.629C497.261 496.453 486.657 417.101 517.777 346.712C550.649 272.358 608.813 203.497 684.625 174.162C759.004 145.381 842.107 171.148 919.545 190.271C986.53 206.812 1045.04 240.182 1103.13 277.429C1161.52 314.869 1216.97 355.27 1260.22 409.509C1310.71 472.845 1407.18 544.289 1374.51 618.389C1335.68 706.448 1167.87 653.933 1116.45 735.28C1063.94 818.35 1191.76 959.903 1118.2 1025.06C1054.39 1081.59 962.855 963.231 879.663 944.584C813.807 929.823 739.691 962.823 682.301 927.296C624.764 891.679 607.435 818.04 577.697 757.252Z" stroke="#8E1919"/>
<path opacity="0.0252101" fill-rule="evenodd" clip-rule="evenodd" d="M578.336 739.561C550.104 679.205 520.6 619.851 512.185 553.755C502.463 477.398 493.246 397.873 525.589 328.037C559.754 254.269 619.111 186.434 695.423 158.426C770.294 130.947 852.934 158.161 930.026 178.632C996.713 196.34 1054.63 230.726 1112.06 268.98C1169.79 307.434 1224.53 348.797 1266.82 403.783C1316.2 467.989 1411.41 541.107 1377.45 614.625C1337.09 701.993 1170.22 646.557 1117.39 726.995C1063.43 809.136 1188.77 952.898 1114.09 1016.77C1049.3 1072.17 959.84 952.231 876.986 932.135C811.398 916.226 736.717 947.928 679.956 911.405C623.049 874.789 607.008 800.859 578.336 739.561Z" stroke="#8E1919"/>
<path opacity="0.0336134" fill-rule="evenodd" clip-rule="evenodd" d="M579.036 723.002C551.862 662.163 523.399 602.302 516.138 536.07C507.751 459.555 499.923 379.881 533.48 310.62C568.927 237.46 629.46 170.67 706.248 143.999C781.587 117.831 863.74 146.482 940.463 168.296C1006.83 187.165 1064.14 222.557 1120.89 261.807C1177.94 301.263 1231.95 343.575 1273.27 399.29C1321.53 464.349 1415.45 539.117 1380.21 612.031C1338.33 698.681 1172.45 640.342 1118.22 719.845C1062.85 801.032 1185.66 946.96 1109.87 1009.51C1044.12 1063.78 956.771 942.297 874.28 920.758C808.979 903.708 733.757 934.101 677.642 896.594C621.383 858.99 606.635 784.791 579.036 723.002Z" stroke="#8E1919"/>
<path opacity="0.0420168" fill-rule="evenodd" clip-rule="evenodd" d="M579.799 705.58C553.691 644.276 526.277 583.928 520.173 517.578C513.123 440.929 506.686 361.131 541.447 292.466C578.166 219.935 639.854 154.212 717.097 128.885C792.881 104.036 874.521 134.116 950.852 157.266C1016.88 177.29 1073.56 213.677 1129.62 253.912C1185.97 294.357 1239.24 337.605 1279.58 394.033C1326.69 459.924 1419.29 536.319 1382.78 608.608C1339.4 694.514 1174.57 633.289 1118.96 711.833C1062.17 792.042 1182.42 940.09 1105.55 1001.31C1038.87 1054.42 953.648 931.434 871.546 908.459C806.553 890.271 730.812 919.347 675.36 880.866C619.766 842.286 606.315 767.842 579.799 705.58Z" stroke="#8E1919"/>
<path opacity="0.0504202" fill-rule="evenodd" clip-rule="evenodd" d="M581.62 689.294C556.586 627.543 530.229 566.726 525.284 500.28C519.572 423.519 514.529 343.621 550.484 275.573C588.462 203.694 651.289 139.058 728.961 115.082C805.167 91.5596 886.27 123.061 962.186 147.538C1027.85 168.712 1083.89 206.082 1139.24 247.29C1194.88 288.712 1247.38 332.883 1286.73 390.007C1332.68 456.71 1423.94 534.71 1386.17 606.35C1341.3 691.486 1177.56 627.393 1120.59 704.956C1062.41 784.161 1180.05 934.286 1102.13 994.157C1034.53 1046.09 951.47 921.638 869.781 897.233C805.116 877.914 728.878 905.664 674.107 866.221C619.194 826.677 607.045 752.009 581.62 689.294Z" stroke="#8E1919"/>
<path opacity="0.0588235" fill-rule="evenodd" clip-rule="evenodd" d="M582.496 672.144C558.544 609.967 533.252 548.698 529.468 482.177C525.097 405.327 521.449 325.353 558.586 257.943C597.813 186.738 661.758 123.208 739.837 100.592C816.442 78.4025 896.983 111.314 972.459 137.113C1037.75 159.429 1093.13 197.772 1147.75 239.939C1202.65 282.326 1254.38 327.407 1292.72 385.209C1337.5 452.704 1427.38 532.284 1388.38 603.255C1342.02 687.595 1179.43 620.654 1121.11 697.21C1061.56 775.388 1176.56 927.543 1097.6 986.046C1029.11 1036.79 948.235 910.908 866.985 885.082C802.666 864.637 725.956 891.052 671.882 850.659C617.668 810.162 606.823 735.294 582.496 672.144Z" stroke="#8E1919"/>
<path opacity="0.0672269" fill-rule="evenodd" clip-rule="evenodd" d="M583.426 656.131C560.562 593.545 536.344 531.845 533.722 465.267C530.692 388.353 528.441 308.327 566.748 241.576C607.212 171.066 672.256 108.661 750.718 87.4111C827.699 66.5622 907.652 100.874 982.667 127.987C1047.56 151.439 1102.26 190.742 1156.13 233.856C1210.29 277.195 1261.22 323.172 1298.55 381.634C1342.15 449.9 1430.63 531.037 1390.38 601.316C1342.56 684.834 1181.16 615.066 1121.52 690.593C1060.61 767.72 1172.94 921.859 1092.98 978.975C1023.61 1028.52 944.942 901.242 864.155 874.001C800.203 852.437 723.044 877.509 669.682 836.179C616.183 794.742 606.647 719.696 583.426 656.131Z" stroke="#8E1919"/>
<path opacity="0.0756303" fill-rule="evenodd" clip-rule="evenodd" d="M584.408 639.259C562.64 576.283 539.503 514.169 538.043 447.556C536.356 370.601 535.502 290.548 574.968 224.475C616.657 154.682 682.78 93.4224 761.601 73.5447C838.933 54.0424 918.276 89.7448 992.806 118.162C1057.28 142.743 1111.28 182.995 1164.4 227.043C1217.79 271.32 1267.91 318.179 1304.22 377.284C1346.61 446.3 1433.66 528.969 1392.2 598.535C1342.93 681.206 1182.77 608.632 1121.82 683.106C1059.58 759.159 1169.2 915.234 1088.25 970.946C1018.02 1019.27 941.591 890.641 861.292 861.995C797.726 839.318 720.141 863.04 667.509 820.784C614.741 778.42 606.516 703.219 584.408 639.259Z" stroke="#8E1919"/>
<path opacity="0.0840336" fill-rule="evenodd" clip-rule="evenodd" d="M585.44 623.526C564.774 560.18 542.724 497.672 542.427 431.043C542.084 354.071 542.627 274.015 583.24 208.641C626.14 139.586 693.323 79.4895 772.478 60.9904C850.14 42.8406 928.847 79.9222 1002.87 109.636C1066.9 135.339 1120.2 176.527 1172.53 221.495C1225.14 266.697 1274.44 314.423 1309.71 374.153C1350.9 443.899 1436.49 528.074 1393.82 596.906C1343.11 678.704 1184.24 603.346 1122 676.746C1058.44 751.7 1165.32 909.665 1083.41 963.956C1012.35 1011.05 938.181 881.104 858.393 851.061C795.233 827.278 717.246 849.642 665.359 806.475C613.339 763.196 606.428 687.862 585.44 623.526Z" stroke="#8E1919"/>
<path opacity="0.092437" fill-rule="evenodd" clip-rule="evenodd" d="M587.517 606.934C567.96 543.237 547.004 480.354 547.87 413.73C548.87 336.763 550.81 256.729 592.558 192.073C636.657 123.778 704.878 64.8628 784.345 47.7479C862.311 30.9562 940.359 69.4058 1013.85 100.407C1077.42 127.223 1129.99 169.335 1181.54 215.21C1233.35 261.323 1281.81 309.902 1316.03 370.238C1355.99 440.693 1440.1 526.349 1396.24 594.426C1344.11 675.327 1186.58 597.207 1123.07 669.51C1058.21 743.343 1162.32 903.15 1079.47 956.002C1007.6 1001.85 935.708 870.629 856.457 839.197C793.722 814.316 715.356 835.316 664.231 791.249C612.974 747.07 607.379 671.627 587.517 606.934Z" stroke="#8E1919"/>
<path opacity="0.10084" fill-rule="evenodd" clip-rule="evenodd" d="M588.639 591.483C570.197 527.455 550.341 464.215 552.37 397.617C554.713 320.679 558.05 240.691 600.92 176.774C646.204 109.258 715.443 51.5425 795.196 35.8171C873.443 20.3886 950.809 60.1945 1023.75 92.4732C1086.84 120.395 1138.67 163.418 1189.41 210.185C1240.41 257.196 1288.01 306.613 1321.17 367.537C1359.9 438.678 1442.5 525.79 1397.45 593.09C1343.92 673.069 1187.78 592.213 1123.02 663.396C1056.88 736.086 1158.18 897.685 1074.42 949.084C1001.77 993.67 932.175 861.215 853.485 828.405C791.193 802.433 712.473 822.061 662.124 777.11C611.647 732.042 607.369 656.513 588.639 591.483Z" stroke="#8E1919"/>
<path opacity="0.109244" fill-rule="evenodd" clip-rule="evenodd" d="M589.801 575.175C572.48 510.834 553.731 447.258 556.922 380.705C560.607 303.819 565.34 223.902 609.319 160.743C655.775 94.0272 726.01 37.5289 806.025 23.1977C884.53 9.13717 961.189 50.2871 1033.55 83.8339C1096.15 112.852 1147.22 156.773 1197.13 204.419C1247.3 252.313 1294.03 302.553 1326.13 364.047C1363.61 435.853 1444.68 524.392 1398.46 590.897C1343.55 669.93 1188.84 586.36 1122.84 656.402C1055.45 727.928 1153.91 891.27 1069.27 941.199C995.848 984.511 928.577 850.86 850.472 816.682C788.643 789.627 709.592 807.879 660.036 762.055C610.353 716.114 607.394 640.521 589.801 575.175Z" stroke="#8E1919"/>
<path opacity="0.117647" fill-rule="evenodd" clip-rule="evenodd" d="M591.003 560.009C574.807 495.376 557.171 431.482 561.523 364.995C566.55 288.185 572.676 208.362 617.751 145.98C665.364 80.0858 736.575 24.8219 816.828 11.8893C895.566 -0.79914 971.495 41.6824 1043.26 76.487C1105.35 106.594 1155.64 151.399 1204.71 199.909C1254.04 248.671 1299.89 299.719 1330.91 361.763C1367.13 434.213 1446.64 524.153 1399.27 589.841C1342.98 667.903 1189.76 581.647 1122.55 650.526C1053.91 720.865 1149.51 885.901 1064.01 934.345C989.844 976.369 924.916 841.565 847.419 806.029C786.072 777.899 706.714 794.768 657.966 748.087C609.092 701.285 607.453 625.653 591.003 560.009Z" stroke="#8E1919"/>
<path opacity="0.12605" fill-rule="evenodd" clip-rule="evenodd" d="M593.242 543.985C578.176 479.078 561.658 414.887 567.17 348.485C573.536 271.775 581.055 192.072 627.212 130.486C675.967 65.4322 748.132 11.4194 828.599 -0.110656C907.546 -11.423 982.722 32.3771 1053.87 68.429C1115.42 99.6144 1164.92 145.291 1213.14 194.649C1261.61 244.265 1306.56 296.106 1336.49 358.682C1371.44 431.752 1449.37 523.067 1400.86 587.918C1343.22 664.986 1191.53 576.069 1123.12 643.765C1053.27 712.895 1145.98 879.574 1059.65 926.519C984.755 967.242 922.19 831.325 845.325 794.442C784.478 765.246 704.838 780.728 656.912 733.203C608.862 685.555 608.543 609.905 593.242 543.985Z" stroke="#8E1919"/>
<path opacity="0.134454" fill-rule="evenodd" clip-rule="evenodd" d="M594.515 529.107C580.584 463.947 565.189 399.477 571.858 333.182C579.563 256.595 588.472 177.034 635.696 116.263C685.58 52.0704 758.676 -0.674786 839.332 -10.7988C918.464 -20.7317 992.864 24.3737 1063.38 61.6618C1124.37 93.9166 1173.07 140.45 1220.42 190.642C1268.01 241.096 1312.05 293.714 1340.88 356.803C1374.55 430.472 1450.88 523.133 1401.25 587.128C1342.27 663.178 1192.15 571.627 1122.57 638.119C1051.53 706.019 1141.31 874.291 1054.17 919.722C978.581 959.132 918.397 822.144 842.188 783.925C781.86 753.671 701.962 767.761 654.872 719.407C607.661 670.928 608.663 595.284 594.515 529.107Z" stroke="#8E1919"/>
<path opacity="0.142857" fill-rule="evenodd" clip-rule="evenodd" d="M595.818 513.373C583.027 447.98 568.76 383.251 576.585 317.083C585.625 240.642 595.921 161.249 644.199 101.311C695.195 37.9986 769.201 -13.4629 850.021 -22.1779C929.315 -30.7282 1002.92 15.6687 1072.77 54.1817C1133.19 87.496 1181.06 134.872 1227.53 185.883C1274.24 237.16 1317.35 290.538 1345.08 354.121C1377.46 428.366 1452.15 522.345 1401.41 585.464C1341.11 660.473 1192.62 566.317 1121.89 631.584C1049.67 698.234 1136.51 868.047 1048.59 911.951C972.321 950.036 914.537 812.018 839.006 772.475C779.215 741.173 699.084 753.867 652.845 704.698C606.488 655.402 608.809 579.788 595.818 513.373Z" stroke="#8E1919"/>
<path opacity="0.151261" fill-rule="evenodd" clip-rule="evenodd" d="M597.152 497.785C585.504 432.179 572.368 367.21 581.347 301.189C591.72 224.917 603.4 145.716 652.717 86.6296C704.81 24.2167 779.703 -25.9454 860.663 -33.2486C940.094 -40.4139 1012.87 7.26052 1082.04 46.9866C1141.87 81.3503 1188.91 129.555 1234.48 181.369C1280.29 233.454 1322.46 287.575 1349.08 351.632C1380.16 426.432 1453.2 521.7 1401.37 583.924C1339.77 657.869 1192.94 561.135 1121.08 625.159C1047.71 690.538 1131.57 861.841 1042.89 904.204C965.976 940.952 910.61 801.947 835.781 761.092C776.545 728.751 696.204 740.044 650.831 690.075C605.341 639.978 608.982 564.416 597.152 497.785Z" stroke="#8E1919"/>
<path opacity="0.159664" fill-rule="evenodd" clip-rule="evenodd" d="M599.511 483.342C589.01 417.543 577.01 352.355 587.14 286.5C598.843 210.421 611.903 131.436 662.244 73.2192C715.419 11.7249 791.175 -37.1226 872.25 -43.0118C951.794 -48.7898 1023.73 0.147483 1092.19 41.0746C1151.42 76.4772 1197.61 125.495 1242.27 178.097C1287.16 230.973 1328.38 285.823 1353.88 350.334C1383.64 425.665 1455.01 522.193 1402.1 583.503C1339.22 656.362 1194.1 557.08 1121.14 619.84C1046.64 683.929 1127.49 856.669 1038.09 897.478C960.544 932.878 907.612 792.928 833.508 750.774C774.846 717.404 694.32 727.293 649.826 676.54C605.217 625.657 610.176 550.17 599.511 483.342Z" stroke="#8E1919"/>
<path opacity="0.168067" fill-rule="evenodd" clip-rule="evenodd" d="M600.894 468.046C591.543 402.073 580.683 336.686 591.961 271.018C604.99 195.154 619.426 116.409 670.775 59.0799C725.015 -1.47709 801.613 -48.9951 882.778 -53.4685C962.411 -57.8575 1033.48 -7.67223 1101.22 34.4435C1159.82 70.8742 1205.15 120.691 1248.88 174.064C1292.84 227.716 1333.1 283.276 1357.46 348.223C1385.91 424.061 1455.59 521.82 1401.61 582.198C1337.47 653.949 1194.1 552.149 1120.06 613.626C1044.45 676.406 1122.28 850.53 1032.18 889.773C954.026 923.814 903.545 782.962 830.188 739.52C772.117 705.131 691.431 713.614 647.83 662.093C604.116 610.439 610.392 535.049 600.894 468.046Z" stroke="#8E1919"/>
<path opacity="0.176471" fill-rule="evenodd" clip-rule="evenodd" d="M602.3 453.894C594.102 387.768 584.385 322.201 596.807 256.74C611.158 181.115 626.967 102.634 679.308 46.2097C734.597 -13.3915 812.012 -59.5656 893.243 -62.6219C972.94 -65.6204 1043.13 -14.2025 1110.12 29.0889C1168.07 66.5367 1212.52 117.137 1255.32 171.265C1298.34 225.676 1337.62 281.931 1360.85 347.293C1387.97 423.616 1455.92 522.576 1400.9 582.002C1335.52 652.623 1193.95 548.337 1118.85 608.512C1042.15 669.963 1116.93 845.419 1026.16 883.083C947.424 915.755 899.409 774.044 826.821 729.328C769.359 693.931 688.537 701.005 645.841 648.73C603.036 596.321 610.626 521.053 602.3 453.894Z" stroke="#8E1919"/>
<path opacity="0.184874" fill-rule="evenodd" clip-rule="evenodd" d="M603.724 438.891C596.681 372.632 588.11 306.906 601.672 241.671C617.341 166.308 634.517 88.1146 687.836 32.6125C744.156 -26.0148 822.365 -70.8308 903.637 -72.469C983.375 -74.0762 1052.65 -21.4413 1118.88 23.0127C1176.17 61.4661 1219.73 112.835 1261.58 167.701C1303.64 222.854 1341.93 279.786 1364.01 345.544C1389.8 422.329 1456.02 522.46 1399.97 580.916C1333.36 650.385 1193.64 543.645 1117.49 602.5C1039.74 662.603 1111.44 839.338 1020.03 875.412C940.734 906.705 895.199 764.177 823.403 718.202C766.568 681.807 685.635 687.469 643.858 634.457C601.973 581.309 610.877 506.185 603.724 438.891Z" stroke="#8E1919"/>
<path opacity="0.193277" fill-rule="evenodd" clip-rule="evenodd" d="M606.164 425.035C600.279 358.663 592.856 292.797 607.555 227.809C624.536 152.732 643.075 74.8495 697.354 20.2863C754.689 -37.3491 833.668 -80.7935 914.957 -81.0131C994.71 -81.2285 1063.06 -27.3926 1128.5 18.2103C1185.11 57.6576 1227.77 109.779 1268.65 165.367C1309.74 221.246 1347.04 278.837 1367.97 344.97C1392.41 422.193 1456.87 523.465 1399.81 580.935C1332 649.231 1194.16 540.068 1117 597.586C1038.21 656.322 1106.81 834.281 1014.79 868.755C934.957 898.659 891.918 755.358 820.934 708.137C764.743 670.756 683.724 675.005 642.879 621.272C601.928 567.401 612.141 492.443 606.164 425.035Z" stroke="#8E1919"/>
<path opacity="0.201681" fill-rule="evenodd" clip-rule="evenodd" d="M607.617 410.326C602.891 343.862 596.618 277.877 612.45 213.155C630.739 138.385 650.634 60.8385 705.857 7.23083C764.189 -49.3953 843.915 -91.4547 925.195 -90.2557C1004.94 -89.0793 1072.34 -34.0588 1136.97 12.6793C1192.88 53.1085 1234.63 105.966 1274.53 162.26C1314.65 218.847 1350.93 277.08 1370.7 343.568C1393.79 421.207 1456.47 523.587 1398.42 580.053C1329.43 647.155 1193.51 535.603 1115.36 591.766C1035.56 649.118 1101.05 828.248 1008.43 861.11C928.094 889.617 887.562 745.586 817.414 697.134C761.883 658.778 680.802 661.612 640.901 607.175C600.897 552.597 612.417 477.829 607.617 410.326Z" stroke="#8E1919"/>
<path opacity="0.210084" fill-rule="evenodd" clip-rule="evenodd" d="M609.082 396.766C605.517 330.229 600.397 264.144 617.355 199.708C636.947 125.269 658.192 48.0816 714.342 -4.5542C773.654 -60.1537 854.102 -100.815 935.348 -98.1981C1015.06 -95.6302 1081.49 -39.4419 1145.3 8.41708C1200.49 49.8158 1241.31 103.394 1280.23 160.376C1319.34 217.654 1354.61 276.512 1373.22 343.335C1394.95 421.364 1455.83 524.823 1396.8 580.267C1326.65 646.155 1192.7 532.248 1113.58 587.039C1032.79 642.989 1095.14 823.234 1001.97 854.475C921.145 881.576 883.133 736.86 813.841 687.19C758.989 647.872 677.87 649.29 638.925 594.165C599.88 538.897 612.703 464.342 609.082 396.766Z" stroke="#8E1919"/>
<path opacity="0.218487" fill-rule="evenodd" clip-rule="evenodd" d="M610.556 382.351C608.152 315.762 604.187 249.598 622.267 185.468C643.155 111.382 665.744 34.5769 722.804 -17.071C783.078 -71.6269 864.222 -110.879 945.411 -106.844C1025.07 -102.885 1090.5 -45.5461 1153.47 3.41911C1207.93 45.7748 1247.81 100.057 1285.72 157.709C1323.84 215.662 1358.07 275.126 1375.51 342.263C1395.87 420.66 1454.94 525.166 1394.95 579.571C1323.66 644.225 1191.72 527.998 1111.66 581.399C1029.9 635.931 1089.1 817.237 995.394 846.847C914.109 872.533 878.629 727.176 810.215 676.305C756.057 636.035 674.926 636.037 636.949 580.241C598.874 524.3 612.997 449.98 610.556 382.351Z" stroke="#8E1919"/>
<path opacity="0.226891" fill-rule="evenodd" clip-rule="evenodd" d="M612.035 369.086C610.794 302.465 607.983 236.242 627.18 172.437C649.358 98.7272 673.284 22.328 731.237 -28.3162C792.453 -81.812 874.271 -119.642 955.377 -114.191C1034.95 -108.842 1099.38 -50.3701 1161.48 -0.313546C1215.19 42.9862 1254.12 97.9562 1291.02 156.261C1328.12 214.87 1361.3 274.922 1377.57 342.354C1396.56 421.094 1453.8 526.615 1392.87 579.965C1320.46 643.365 1190.57 524.853 1109.59 576.849C1026.89 629.946 1082.91 812.257 988.707 840.228C906.987 864.491 874.049 718.537 806.532 666.479C753.086 625.27 671.968 623.857 634.97 567.406C597.877 510.81 613.295 436.747 612.035 369.086Z" stroke="#8E1919"/>
<path opacity="0.235294" fill-rule="evenodd" clip-rule="evenodd" d="M614.517 354.969C614.439 288.337 612.785 222.075 633.093 158.615C656.553 85.3028 681.809 9.33278 740.637 -40.2924C802.778 -92.7117 885.243 -129.108 966.241 -122.242C1045.71 -115.506 1109.11 -55.9183 1170.32 -4.78561C1223.28 39.445 1261.23 95.0859 1297.11 154.026C1333.18 213.273 1365.31 273.896 1380.4 341.601C1398.02 420.661 1453.41 527.164 1391.55 579.443C1318.05 641.569 1190.25 520.809 1108.37 571.383C1024.76 623.029 1077.59 806.29 982.909 832.613C900.778 855.446 870.392 708.939 803.795 655.711C751.076 613.576 669.994 610.747 633.988 553.659C597.888 496.424 614.596 422.642 614.517 354.969Z" stroke="#8E1919"/>
<path opacity="0.243697" fill-rule="evenodd" clip-rule="evenodd" d="M616 342C617.085 275.377 616.588 209.096 638 146C662.736 73.1087 689.315 -2.40899 749 -50.9999C812.046 -102.327 895.134 -137.278 976 -129C1055.34 -120.878 1117.68 -60.1932 1178 -7.99994C1230.17 37.1481 1267.15 93.4429 1302 153C1337.03 212.868 1368.1 274.042 1382 342C1398.23 421.355 1451.76 528.809 1389 580C1314.42 640.834 1188.75 517.862 1106 567C1021.5 617.179 1071.13 801.334 976 826C893.482 847.397 865.658 700.382 800 646C748.024 602.951 667.005 598.708 632 541C596.905 483.144 614.898 409.664 616 342Z" stroke="#8E1919"/>
<path opacity="0.252101" fill-rule="evenodd" clip-rule="evenodd" d="M617.481 328.177C619.729 261.583 620.389 195.304 642.899 132.591C668.904 60.1426 696.796 -14.8998 757.32 -62.4417C821.252 -112.661 904.938 -146.156 985.647 -136.468C1064.83 -126.963 1126.11 -65.1995 1185.5 -11.9616C1236.88 34.0901 1272.87 91.0217 1306.68 151.178C1340.65 211.648 1370.65 273.355 1383.36 341.545C1398.21 421.171 1449.85 529.543 1386.21 579.631C1310.58 639.155 1187.07 514.008 1103.48 561.694C1018.12 610.391 1064.52 795.384 968.979 818.386C886.1 838.34 860.847 690.862 796.148 635.342C744.931 591.393 663.998 585.736 630.006 527.426C595.926 468.967 615.199 395.812 617.481 328.177Z" stroke="#8E1919"/>
<path opacity="0.260504" fill-rule="evenodd" clip-rule="evenodd" d="M618.959 315.505C622.368 248.96 624.184 182.702 647.786 120.392C675.051 48.4082 704.249 -26.136 765.594 -72.6144C830.393 -121.71 914.65 -153.74 995.178 -142.645C1074.18 -131.76 1134.37 -68.9359 1192.83 -14.6695C1243.4 32.2717 1278.39 89.8227 1311.14 150.56C1344.05 211.613 1372.97 273.834 1384.49 342.236C1397.95 422.109 1447.68 531.366 1383.18 580.336C1306.53 638.53 1185.22 511.247 1100.81 557.468C1014.61 604.667 1057.78 790.442 961.847 811.773C878.633 830.277 855.957 682.381 792.236 625.741C741.795 580.904 660.973 573.836 628.003 514.942C594.949 455.896 615.496 383.089 618.959 315.505Z" stroke="#8E1919"/>
<path opacity="0.268908" fill-rule="evenodd" clip-rule="evenodd" d="M621.429 301.98C625.999 235.505 628.972 169.289 653.657 107.4C682.175 35.9031 712.669 -38.1202 774.816 -83.521C840.462 -131.478 925.265 -162.033 1005.59 -149.534C1084.39 -137.272 1143.48 -73.4072 1200.98 -18.129C1250.72 29.6876 1284.7 87.8405 1316.38 149.14C1348.23 210.758 1376.05 273.475 1386.38 342.067C1398.44 422.163 1446.26 532.271 1380.91 580.107C1303.25 636.955 1184.19 507.575 1098.98 552.315C1011.97 598.003 1051.89 784.503 955.604 804.157C872.079 821.206 851.988 672.936 789.266 615.193C739.614 569.482 658.928 561.005 626.992 501.545C594.973 441.931 616.787 369.494 621.429 301.98Z" stroke="#8E1919"/>
<path opacity="0.277311" fill-rule="evenodd" clip-rule="evenodd" d="M622.889 288.601C628.619 222.216 632.746 156.062 658.508 94.6132C688.269 23.6249 720.051 -49.855 782.98 -94.1643C849.453 -140.969 934.777 -170.039 1014.87 -156.14C1093.45 -142.504 1151.41 -77.6184 1207.94 -21.3451C1256.83 27.3322 1289.8 86.0693 1320.4 147.912C1351.17 210.077 1377.9 273.269 1387.02 342.032C1397.68 422.326 1443.58 533.252 1377.4 579.94C1298.76 635.424 1181.97 503.986 1096 547.232C1008.2 591.394 1044.86 778.563 948.248 796.533C864.439 812.122 846.938 663.524 785.233 604.695C736.388 558.125 655.861 548.241 624.967 488.232C593.994 428.069 617.069 356.024 622.889 288.601Z" stroke="#8E1919"/>
<path opacity="0.285714" fill-rule="evenodd" clip-rule="evenodd" d="M624.337 276.372C631.224 210.097 636.506 144.025 663.336 83.0351C694.332 12.577 727.391 -60.337 791.084 -103.541C858.364 -149.178 944.183 -176.755 1024.02 -161.461C1102.35 -146.456 1159.17 -80.5684 1214.7 -23.3172C1262.74 26.206 1294.68 85.5095 1324.2 147.877C1353.88 210.569 1379.5 274.218 1387.42 343.13C1396.68 423.597 1440.63 535.307 1373.65 580.834C1294.06 634.937 1179.58 501.48 1092.86 543.22C1004.31 585.843 1037.7 773.623 940.781 789.904C856.712 804.028 841.808 655.148 781.14 595.251C733.114 547.836 652.773 536.548 622.931 476.009C593.012 415.314 617.341 343.682 624.337 276.372Z" stroke="#8E1919"/>
<path opacity="0.294118" fill-rule="evenodd" clip-rule="evenodd" d="M625.771 263.29C633.814 197.145 640.248 131.175 668.139 70.6633C700.359 0.756798 734.686 -71.5691 799.124 -113.655C867.19 -158.111 953.477 -184.186 1033.03 -167.501C1111.09 -151.131 1166.75 -84.2622 1221.28 -26.0506C1268.45 24.3034 1299.34 84.1551 1327.77 147.028C1356.35 210.229 1380.85 274.316 1387.58 343.355C1395.42 423.972 1437.42 536.431 1369.66 580.782C1289.13 633.488 1177 498.054 1089.57 538.274C1000.28 579.345 1030.39 767.679 933.204 782.267C848.902 794.921 836.598 645.803 776.985 584.857C729.794 536.611 649.662 523.922 620.881 462.872C592.026 401.665 617.602 330.468 625.771 263.29Z" stroke="#8E1919"/>
<path opacity="0.302521" fill-rule="evenodd" clip-rule="evenodd" d="M628.187 251.353C637.384 185.359 644.968 119.511 673.91 59.4952C707.346 -9.8383 742.93 -81.5542 808.093 -122.509C876.924 -165.771 963.653 -190.336 1042.91 -172.265C1120.66 -154.535 1175.15 -86.7051 1228.65 -27.5507C1274.94 23.6188 1304.78 84.0005 1332.11 147.36C1359.58 211.05 1382.96 275.554 1388.48 344.7C1394.92 425.442 1434.95 538.617 1366.42 581.779C1284.98 633.072 1175.23 495.701 1087.11 534.389C997.126 573.896 1023.94 762.726 926.516 775.616C842.005 786.797 832.306 637.487 773.765 575.51C727.424 526.448 647.525 512.363 619.814 450.819C592.032 389.118 618.846 318.379 628.187 251.353Z" stroke="#8E1919"/>
<path opacity="0.310924" fill-rule="evenodd" clip-rule="evenodd" d="M629.583 238.565C639.93 172.741 648.663 107.036 678.648 47.5344C713.289 -21.2051 750.119 -92.289 815.987 -132.101C885.563 -174.154 972.707 -197.202 1051.63 -177.751C1129.07 -158.667 1182.36 -89.8963 1234.83 -29.8171C1280.21 22.1523 1309 83.0456 1335.21 146.872C1361.57 211.032 1383.82 275.935 1388.13 345.166C1393.16 426.008 1431.21 539.865 1361.94 581.824C1279.62 631.688 1172.28 492.422 1083.5 529.567C992.837 567.497 1016.35 756.767 918.717 767.954C834.024 777.659 826.932 628.203 769.482 565.213C724.004 515.349 644.363 499.872 617.731 437.855C591.03 375.678 619.074 305.417 629.583 238.565Z" stroke="#8E1919"/>
<path opacity="0.319328" fill-rule="evenodd" clip-rule="evenodd" d="M630.957 226.922C642.452 161.289 652.33 95.7466 683.349 36.7772C719.184 -31.3472 757.25 -101.778 823.802 -140.434C894.101 -181.267 981.634 -202.79 1060.21 -181.965C1137.3 -161.532 1189.39 -91.8419 1240.79 -30.8564C1285.26 21.8971 1312.98 83.2835 1338.08 147.558C1363.31 212.168 1384.43 277.449 1387.53 346.745C1391.15 427.662 1427.2 542.166 1357.21 582.91C1274.03 631.329 1169.14 490.212 1079.73 525.801C988.414 562.144 1008.62 751.795 910.807 761.277C825.958 769.502 821.476 619.945 765.134 555.962C720.532 505.312 641.174 488.448 615.628 425.975C590.017 363.342 619.283 293.581 630.957 226.922Z" stroke="#8E1919"/>
<path opacity="0.327731" fill-rule="evenodd" clip-rule="evenodd" d="M632.306 214.426C644.944 149.003 655.965 83.643 688.009 25.2239C725.028 -42.2648 764.316 -112.02 831.533 -149.509C902.535 -189.109 990.43 -209.102 1068.63 -186.908C1145.35 -165.133 1196.21 -94.5444 1246.55 -32.671C1290.09 20.8504 1316.73 82.7112 1340.71 147.414C1364.81 212.454 1384.78 278.094 1386.67 347.434C1388.88 428.402 1422.93 543.517 1352.23 583.033C1268.23 629.993 1165.81 487.067 1075.79 521.091C983.859 555.834 1000.75 745.809 902.788 753.582C817.808 760.325 815.936 610.713 760.72 545.757C717.009 494.336 637.957 476.09 613.506 413.181C588.991 350.11 619.471 280.871 632.306 214.426Z" stroke="#8E1919"/>
<path opacity="0.336134" fill-rule="evenodd" clip-rule="evenodd" d="M634.627 203.074C648.405 137.882 660.565 72.7238 693.623 14.8728C731.814 -51.9595 772.315 -121.019 840.176 -157.329C911.857 -195.683 1000.09 -214.139 1077.89 -190.584C1154.22 -167.474 1203.84 -96.0082 1253.09 -33.2659C1295.69 21.0073 1321.25 83.3236 1344.09 148.435C1367.05 213.886 1385.88 279.864 1386.56 349.226C1387.35 430.22 1419.38 545.912 1348.01 584.189C1263.2 629.676 1163.3 484.984 1072.69 517.431C980.167 550.565 993.742 740.806 895.657 746.868C810.573 752.127 811.313 602.505 757.238 536.595C714.432 484.42 635.71 464.796 612.36 401.47C588.95 337.981 620.634 269.284 634.627 203.074Z" stroke="#8E1919"/>
<path opacity="0.344538" fill-rule="evenodd" clip-rule="evenodd" d="M635.919 190.868C650.833 125.926 664.128 60.9903 698.191 3.72505C737.543 -62.4305 779.242 -130.772 847.726 -165.893C920.067 -202.99 1008.61 -219.904 1085.98 -194.994C1161.9 -170.555 1210.27 -98.2349 1258.41 -34.6427C1300.06 20.3657 1324.53 83.1185 1346.23 148.619C1368.04 214.46 1385.71 280.757 1385.18 350.12C1384.56 431.116 1414.57 547.349 1342.54 584.374C1256.95 628.374 1159.59 481.961 1068.43 512.822C975.342 544.336 985.595 734.785 887.419 739.135C802.255 742.908 805.607 593.322 752.69 526.478C710.801 473.564 632.434 452.569 610.193 388.845C587.894 324.957 620.772 256.824 635.919 190.868Z" stroke="#8E1919"/>
<path opacity="0.352941" fill-rule="evenodd" clip-rule="evenodd" d="M637.177 179.806C653.222 115.135 667.649 50.4409 702.706 -6.22116C743.207 -71.6799 786.092 -139.283 855.179 -173.203C928.156 -209.033 1016.98 -224.398 1093.91 -198.143C1169.39 -172.382 1216.48 -99.229 1263.51 -34.8062C1304.19 20.9205 1327.56 84.0907 1348.11 149.959C1368.78 216.172 1385.29 282.767 1383.55 352.11C1381.51 433.083 1409.49 549.822 1336.83 585.584C1250.48 628.084 1155.69 479.994 1064 509.259C970.379 539.144 977.307 729.742 879.07 732.378C793.853 734.665 799.815 585.16 748.073 517.403C707.114 463.766 629.125 441.407 608 377.304C586.82 313.037 620.882 245.488 637.177 179.806Z" stroke="#8E1919"/>
<path opacity="0.361345" fill-rule="evenodd" clip-rule="evenodd" d="M638.402 167.889C655.573 103.507 671.126 39.0748 707.167 -16.9668C748.804 -81.7087 792.863 -148.553 862.532 -181.262C936.123 -215.813 1025.2 -229.626 1101.66 -202.032C1176.68 -174.958 1222.49 -100.994 1268.39 -35.7605C1308.09 20.6677 1330.35 84.2361 1349.75 150.453C1369.26 217.016 1384.6 283.889 1381.65 353.192C1378.2 434.116 1404.14 551.326 1330.86 585.815C1243.78 626.801 1151.59 477.08 1059.41 504.74C965.282 532.987 968.881 723.677 870.613 724.598C785.37 725.397 793.94 576.019 743.389 507.369C703.372 453.025 625.785 429.309 605.782 364.847C585.727 300.22 620.962 233.276 638.402 167.889Z" stroke="#8E1919"/>
<path opacity="0.369748" fill-rule="evenodd" clip-rule="evenodd" d="M639.588 157.114C657.88 93.0423 674.555 28.8912 711.569 -26.5129C754.329 -90.5183 799.549 -156.584 869.777 -188.072C943.96 -221.333 1033.26 -233.59 1109.23 -204.665C1183.77 -176.287 1228.28 -101.534 1273.03 -35.5095C1311.74 21.6029 1332.89 85.5502 1351.13 152.096C1369.47 218.989 1383.65 286.119 1379.49 355.36C1374.63 436.212 1398.52 553.856 1324.65 587.061C1236.87 626.521 1147.3 475.214 1054.66 501.262C960.046 527.861 960.317 718.585 862.048 717.791C776.803 717.102 787.979 567.896 738.634 498.375C699.572 443.341 622.411 418.274 603.535 353.474C584.611 288.506 621.01 222.187 639.588 157.114Z" stroke="#8E1919"/>
<path opacity="0.378151" fill-rule="evenodd" clip-rule="evenodd" d="M641.734 145.482C661.141 81.7386 678.934 17.8883 716.909 -36.8613C760.78 -100.111 807.145 -165.377 877.913 -195.635C952.665 -227.596 1042.17 -238.292 1117.62 -208.046C1191.65 -178.371 1234.85 -102.854 1278.44 -36.0581C1316.15 21.7211 1336.18 86.0277 1353.26 152.882C1370.43 220.084 1383.43 287.452 1378.06 356.61C1371.79 437.364 1393.62 555.407 1319.19 587.318C1230.73 625.24 1143.82 472.393 1050.73 496.82C955.672 521.765 952.615 712.464 854.374 709.955C769.155 707.779 782.933 558.791 734.809 488.419C696.713 432.712 620.001 406.302 602.259 341.182C584.472 275.894 622.023 210.22 641.734 145.482Z" stroke="#8E1919"/>
<path opacity="0.386555" fill-rule="evenodd" clip-rule="evenodd" d="M642.837 134.992C663.354 71.5971 682.259 8.06708 721.184 -46.0114C766.152 -108.486 813.649 -172.933 884.934 -201.951C960.233 -232.603 1049.91 -241.735 1124.82 -210.177C1198.32 -179.215 1240.2 -102.955 1282.62 -35.4085C1319.31 23.0199 1338.22 87.6662 1354.13 154.808C1370.12 222.3 1381.94 289.885 1375.37 358.938C1367.69 439.571 1387.46 557.977 1312.48 588.584C1223.37 624.956 1139.14 470.616 1045.64 493.415C950.161 516.696 943.775 707.313 845.594 703.09C760.425 699.427 776.802 550.702 729.913 479.501C692.795 423.137 616.556 395.393 599.953 329.973C583.308 264.385 621.999 199.377 642.837 134.992Z" stroke="#8E1919"/>
<path opacity="0.394958" fill-rule="evenodd" clip-rule="evenodd" d="M643.896 123.642C665.516 60.6151 685.526 -2.57529 725.389 -55.9662C771.441 -117.646 820.056 -181.255 891.836 -209.024C967.659 -238.357 1057.48 -245.923 1131.83 -213.063C1204.78 -180.823 1245.32 -103.843 1286.55 -35.5669C1322.22 23.493 1340 88.4594 1354.73 155.869C1369.54 223.629 1380.19 291.41 1372.41 360.338C1363.33 440.825 1381.02 559.557 1305.52 588.851C1215.79 623.663 1134.27 467.876 1040.38 489.04C944.511 510.651 934.8 701.127 836.706 695.192C751.615 690.043 770.585 541.627 724.945 469.618C688.817 412.615 613.074 383.545 597.615 317.845C582.117 251.977 621.937 187.653 643.896 123.642Z" stroke="#8E1919"/>
<path opacity="0.403361" fill-rule="evenodd" clip-rule="evenodd" d="M644.907 112.433C667.624 49.7937 688.734 -13.0379 729.523 -65.725C776.644 -126.592 826.362 -189.342 898.616 -215.855C974.939 -243.86 1064.88 -249.858 1138.65 -215.704C1211.02 -182.196 1250.21 -104.521 1290.25 -35.5355C1324.88 24.1379 1341.52 89.4045 1355.07 157.061C1368.7 225.07 1378.16 293.026 1369.18 361.807C1358.69 442.123 1374.31 561.147 1298.31 589.118C1207.99 622.359 1129.2 465.173 1034.96 484.695C938.722 504.63 925.688 694.908 827.713 687.261C742.724 680.628 764.281 532.565 719.906 459.771C684.778 402.147 609.553 371.759 595.244 305.799C580.898 239.67 621.835 176.052 644.907 112.433Z" stroke="#8E1919"/>
<path opacity="0.411765" fill-rule="evenodd" clip-rule="evenodd" d="M646.867 102.363C670.674 40.1297 692.878 -22.3239 734.58 -74.2911C782.756 -134.326 833.561 -196.199 906.267 -221.447C983.067 -248.116 1073.1 -252.543 1146.26 -217.108C1218.03 -182.341 1255.86 -103.994 1294.69 -34.3205C1328.28 25.9481 1343.77 91.4951 1356.15 159.378C1368.58 227.614 1376.86 295.725 1366.68 364.339C1354.79 444.46 1368.33 563.737 1291.85 590.378C1200.96 622.038 1124.93 463.501 1030.36 481.375C933.793 499.628 917.44 689.649 819.613 680.293C734.753 672.178 758.891 524.514 715.793 450.957C681.676 392.728 606.993 361.032 593.837 294.833C580.648 228.464 622.688 165.57 646.867 102.363Z" stroke="#8E1919"/>
<path opacity="0.420168" fill-rule="evenodd" clip-rule="evenodd" d="M647.776 91.432C672.666 29.6233 695.956 -32.4333 738.559 -83.6648C787.775 -142.85 839.653 -203.827 912.788 -227.802C990.042 -253.127 1080.14 -255.982 1152.67 -219.275C1223.83 -183.261 1260.28 -104.266 1297.89 -33.9253C1330.42 26.9202 1344.76 92.7277 1355.95 160.816C1367.2 229.259 1374.28 297.503 1362.9 365.929C1349.62 445.831 1361.08 565.326 1284.14 590.629C1192.72 620.697 1119.46 460.858 1024.6 477.079C927.725 493.643 908.058 683.35 810.41 672.289C725.704 662.694 752.415 515.473 710.607 441.175C677.512 382.36 603.394 349.365 591.395 282.947C579.366 216.358 622.498 154.207 647.776 91.432Z" stroke="#8E1919"/>
<path opacity="0.428571" fill-rule="evenodd" clip-rule="evenodd" d="M648.63 81.6393C674.594 20.2743 698.964 -41.3663 742.454 -91.8465C792.696 -150.164 845.63 -210.226 919.173 -232.921C996.857 -256.894 1086.99 -258.176 1158.87 -220.209C1229.39 -182.959 1264.46 -103.339 1300.83 -32.3533C1332.29 29.0507 1345.49 95.0985 1355.49 163.371C1365.54 232 1371.43 300.358 1358.86 368.575C1344.18 448.232 1353.55 567.91 1276.19 591.865C1184.25 620.334 1113.79 459.24 1018.66 473.803C921.516 488.675 898.541 678.009 801.101 665.245C716.575 654.173 745.852 507.442 705.347 432.426C673.283 373.042 599.752 338.759 588.915 272.141C578.049 205.352 622.259 143.963 648.63 81.6393Z" stroke="#8E1919"/>
<path opacity="0.436975" fill-rule="evenodd" clip-rule="evenodd" d="M649.427 70.9822C676.459 10.0797 701.9 -51.1262 746.265 -100.84C797.518 -158.271 851.491 -217.4 925.419 -238.808C1003.51 -261.422 1093.65 -261.131 1164.85 -221.915C1234.71 -183.44 1268.39 -103.221 1303.52 -31.6108C1333.9 30.3328 1345.95 96.6009 1354.75 165.038C1363.6 233.831 1368.3 302.282 1354.54 370.269C1338.48 449.658 1345.75 569.481 1267.98 592.082C1175.56 618.942 1107.93 456.643 1012.56 469.544C915.168 482.718 888.892 671.622 791.689 657.16C707.37 644.615 739.203 498.417 700.014 422.705C668.991 362.771 596.07 327.209 586.396 260.413C576.698 193.444 621.973 132.836 649.427 70.9822Z" stroke="#8E1919"/>
<path opacity="0.445378" fill-rule="evenodd" clip-rule="evenodd" d="M651.164 61.4607C679.255 1.03931 705.76 -59.7132 750.986 -108.645C803.233 -165.173 858.231 -223.351 932.521 -243.466C1010.99 -264.713 1101.12 -262.849 1171.62 -222.397C1240.8 -182.709 1273.07 -101.913 1306.95 -29.7015C1336.24 32.763 1347.13 99.2311 1354.74 167.811C1362.39 236.749 1365.89 305.27 1350.95 373.007C1333.5 452.104 1338.69 572.035 1260.53 593.276C1167.66 618.519 1102.87 455.065 1007.29 466.299C909.679 477.771 880.11 666.188 783.174 650.032C699.087 636.017 733.467 490.397 695.605 414.012C665.632 353.546 593.343 316.717 584.837 249.762C576.309 182.635 622.635 122.826 651.164 61.4607Z" stroke="#8E1919"/>
<path opacity="0.453782" fill-rule="evenodd" clip-rule="evenodd" d="M651.839 51.0738C680.98 -8.84811 708.542 -69.1288 754.615 -117.264C807.841 -172.871 863.845 -230.081 938.475 -248.896C1017.31 -268.77 1107.38 -265.334 1177.17 -223.657C1245.65 -182.768 1276.51 -101.422 1309.11 -28.6297C1337.32 34.3365 1347.04 100.984 1353.45 169.687C1359.89 238.747 1362.2 307.32 1346.08 374.786C1327.25 453.565 1330.35 573.569 1251.83 593.443C1158.53 617.061 1096.6 452.501 1000.84 462.065C903.049 471.832 870.196 659.704 773.557 641.859C689.727 626.378 726.643 481.381 690.12 404.347C661.208 343.367 589.572 305.282 582.236 238.189C574.881 170.923 622.243 111.932 651.839 51.0738Z" stroke="#8E1919"/>
<path opacity="0.462185" fill-rule="evenodd" clip-rule="evenodd" d="M652.45 41.8195C682.632 -17.5847 711.242 -77.3752 758.148 -124.699C812.336 -179.369 869.331 -235.593 944.278 -253.102C1023.45 -271.598 1113.45 -266.589 1182.5 -223.701C1250.25 -181.623 1279.68 -99.7511 1311.01 -26.4011C1338.12 37.0477 1346.67 103.855 1351.88 172.659C1357.12 241.821 1358.23 310.423 1340.93 377.598C1320.74 456.037 1321.73 576.076 1242.89 594.577C1149.19 616.563 1090.14 450.947 994.226 458.839C896.278 466.898 860.151 654.168 763.839 634.638C680.291 617.697 719.733 473.366 684.559 395.707C656.716 334.231 585.755 294.903 579.592 227.691C573.412 160.307 621.796 102.152 652.45 41.8195Z" stroke="#8E1919"/>
<path opacity="0.470588" fill-rule="evenodd" clip-rule="evenodd" d="M652.995 31.6984C684.209 -27.17 713.858 -86.452 761.583 -132.95C816.717 -186.666 874.684 -241.886 949.926 -258.085C1029.4 -275.196 1119.3 -268.618 1187.6 -224.531C1254.6 -181.277 1282.6 -98.904 1312.65 -25.0185C1338.64 38.8937 1346.03 105.84 1350.04 174.725C1354.07 243.968 1353.98 312.579 1335.51 379.441C1313.95 457.515 1312.85 577.554 1233.7 594.676C1139.63 615.023 1083.48 448.402 987.441 454.619C889.367 460.967 849.977 647.578 754.02 626.371C670.781 607.974 712.735 464.353 678.923 386.092C652.156 324.14 581.893 283.579 576.903 216.27C571.9 148.789 621.293 91.4867 652.995 31.6984Z" stroke="#8E1919"/>
<path opacity="0.478992" fill-rule="evenodd" clip-rule="evenodd" d="M653.471 22.7085C685.708 -35.6061 716.387 -94.3616 764.916 -140.019C820.979 -192.765 879.901 -246.965 955.414 -261.849C1035.18 -277.57 1124.95 -269.424 1192.47 -224.152C1258.71 -179.735 1285.26 -96.8859 1314.01 -22.4873C1338.89 41.8687 1345.11 108.934 1347.91 177.878C1350.73 247.181 1349.45 315.78 1329.82 382.309C1306.89 459.996 1303.7 579.997 1224.26 595.734C1129.85 614.437 1076.62 446.862 980.484 451.401C882.315 456.037 839.674 641.932 744.102 619.053C661.197 599.207 705.651 456.34 673.21 377.501C647.528 315.091 577.984 273.31 574.169 205.924C570.345 138.366 620.73 81.9344 653.471 22.7085Z" stroke="#8E1919"/>
<path opacity="0.487395" fill-rule="evenodd" clip-rule="evenodd" d="M654.874 12.8486C688.124 -44.8945 719.824 -103.106 769.143 -147.909C826.118 -199.669 885.977 -252.832 961.738 -266.396C1041.76 -280.723 1131.38 -271.011 1198.1 -224.568C1263.55 -179.002 1288.66 -95.7014 1316.11 -20.8124C1339.85 43.9677 1344.9 111.132 1346.5 180.114C1348.11 249.455 1345.63 318.021 1324.84 384.198C1300.57 461.472 1295.28 581.399 1215.57 595.748C1120.85 612.8 1070.55 444.322 974.357 447.183C876.121 450.104 830.243 635.227 735.084 610.684C652.538 589.394 699.479 447.324 668.418 367.931C643.83 305.083 575.025 262.094 572.387 194.652C569.743 127.037 621.105 71.4941 654.874 12.8486Z" stroke="#8E1919"/>
<path opacity="0.495798" fill-rule="evenodd" clip-rule="evenodd" d="M655.206 4.11639C689.458 -53.0377 722.169 -110.687 772.262 -154.623C830.132 -205.38 890.91 -257.491 966.896 -269.73C1047.16 -282.658 1136.59 -271.384 1202.49 -223.783C1267.14 -177.082 1290.79 -93.3562 1316.93 -17.9996C1339.53 47.1851 1343.41 114.427 1343.81 183.426C1344.21 252.785 1340.53 321.298 1318.59 387.101C1292.97 463.94 1285.59 583.757 1205.65 596.713C1110.64 612.109 1063.29 442.778 967.059 443.96C868.788 445.167 819.685 629.46 724.969 603.26C642.807 580.533 692.221 439.304 662.551 359.381C639.063 296.113 571.019 251.93 569.558 184.453C568.094 116.802 620.418 62.1635 655.206 4.11639Z" stroke="#8E1919"/>
<path opacity="0.504202" fill-rule="evenodd" clip-rule="evenodd" d="M655.461 -5.48845C690.706 -62.036 724.418 -119.105 775.27 -162.161C834.017 -211.9 895.695 -262.942 971.883 -273.853C1052.36 -285.378 1141.58 -272.545 1206.64 -223.802C1270.46 -175.979 1292.65 -91.8539 1317.47 -16.0526C1338.93 49.5167 1341.64 116.816 1340.83 185.812C1340.02 255.167 1335.15 323.605 1312.06 389.016C1285.1 465.396 1275.64 585.065 1195.48 596.624C1100.22 610.359 1055.83 440.228 959.59 439.73C861.313 439.222 809.001 622.63 714.757 594.781C633.004 570.623 684.875 430.279 656.604 349.85C634.224 286.182 566.962 240.818 566.679 173.326C566.396 105.66 619.665 51.9427 655.461 -5.48845Z" stroke="#8E1919"/>
<path opacity="0.512605" fill-rule="evenodd" clip-rule="evenodd" d="M655.639 -13.9663C691.865 -69.8901 726.568 -126.362 778.164 -168.524C837.77 -217.23 900.33 -267.188 976.697 -276.768C1057.36 -286.887 1146.35 -272.498 1210.54 -222.627C1273.52 -173.698 1294.24 -89.1982 1317.73 -12.9754C1338.05 52.9586 1339.58 120.295 1337.57 189.266C1335.55 258.597 1329.48 326.939 1305.25 391.937C1276.97 467.835 1265.41 587.321 1185.06 597.478C1089.58 609.55 1048.17 438.67 951.952 436.492C853.698 434.269 798.194 616.736 704.45 587.247C623.131 561.666 677.443 422.248 650.58 341.338C629.315 277.289 562.855 230.758 563.75 163.271C564.648 95.6104 618.846 42.8314 655.639 -13.9663Z" stroke="#8E1919"/>
<path opacity="0.521008" fill-rule="evenodd" clip-rule="evenodd" d="M656.736 -23.3204C693.933 -78.6035 729.617 -134.461 781.94 -175.716C842.387 -223.375 905.81 -272.233 982.332 -280.479C1063.16 -289.188 1151.88 -273.249 1215.2 -222.265C1277.31 -172.244 1296.55 -87.3959 1318.71 -10.7747C1337.87 55.5038 1338.23 122.856 1335.01 191.782C1331.78 261.067 1324.52 329.292 1299.17 393.858C1269.56 469.251 1255.92 588.517 1175.41 597.271C1079.73 607.674 1041.31 436.097 945.143 432.241C846.943 428.303 788.262 609.774 695.047 578.653C614.187 551.656 670.924 413.208 645.478 331.841C625.334 267.431 559.695 219.748 561.768 152.286C563.846 84.6516 618.958 32.8265 656.736 -23.3204Z" stroke="#8E1919"/>
<path opacity="0.529412" fill-rule="evenodd" clip-rule="evenodd" d="M656.751 -31.5513C694.907 -86.1767 731.56 -141.403 784.596 -181.738C845.866 -228.335 910.131 -276.079 986.786 -282.988C1067.76 -290.285 1156.19 -272.8 1218.6 -220.719C1279.83 -169.622 1297.59 -84.4508 1318.4 -7.45461C1336.41 59.1483 1335.59 126.497 1331.17 195.356C1326.73 264.574 1318.28 332.662 1291.8 396.775C1260.89 471.64 1245.17 590.65 1164.52 597.997C1068.67 606.729 1033.24 434.508 937.163 428.974C839.047 423.323 777.208 603.742 684.551 570.999C604.174 542.595 663.319 405.158 639.296 323.36C620.279 258.608 555.483 209.786 558.733 142.371C561.991 74.7831 617.999 23.9277 656.751 -31.5513Z" stroke="#8E1919"/>
<path opacity="0.537815" fill-rule="evenodd" clip-rule="evenodd" d="M656.683 -40.6604C695.787 -94.6115 733.398 -149.19 787.13 -188.593C849.203 -234.113 914.292 -280.729 991.056 -286.299C1072.14 -292.182 1160.25 -273.156 1221.75 -219.994C1282.08 -167.836 1298.34 -82.3678 1317.81 -5.02001C1334.66 61.887 1332.66 129.211 1327.04 197.982C1321.39 267.112 1311.76 335.043 1284.16 398.684C1251.95 472.997 1234.15 591.715 1153.38 597.653C1057.4 604.711 1024.99 431.898 929.015 424.688C831.012 417.326 766.034 596.638 673.962 562.283C594.094 532.481 655.628 396.097 633.036 313.892C615.153 248.818 551.218 198.873 555.644 131.525C560.082 64.004 616.969 14.1339 656.683 -40.6604Z" stroke="#8E1919"/>
<path opacity="0.546219" fill-rule="evenodd" clip-rule="evenodd" d="M656.528 -49.6491C696.567 -102.91 735.125 -156.823 789.536 -195.283C852.395 -239.713 918.287 -285.185 995.137 -289.414C1076.31 -293.882 1164.08 -273.321 1224.64 -219.094C1284.05 -165.891 1298.82 -80.1517 1316.94 -2.47597C1332.61 64.7148 1329.44 131.993 1322.62 200.656C1315.77 269.677 1304.94 337.429 1276.25 400.579C1242.73 474.319 1222.87 592.708 1142.01 597.236C1045.92 602.617 1016.53 429.265 920.697 420.381C822.838 411.309 754.74 589.46 663.281 553.503C583.945 522.312 647.85 387.023 626.697 304.436C609.951 239.06 546.898 188.007 552.499 120.747C558.114 53.3133 615.863 4.44364 656.528 -49.6491Z" stroke="#8E1919"/>
<path opacity="0.554622" fill-rule="evenodd" clip-rule="evenodd" d="M657.284 -57.5191C698.247 -110.073 737.74 -163.305 792.814 -200.809C856.438 -244.135 923.114 -288.451 1000.03 -291.338C1081.27 -294.388 1168.66 -272.299 1228.26 -217.023C1286.74 -162.791 1300.01 -76.8076 1316.77 1.17254C1331.26 68.6266 1326.92 135.84 1318.91 204.373C1310.85 273.264 1298.85 340.817 1269.05 403.456C1234.26 476.6 1212.33 594.624 1131.4 597.74C1035.23 601.443 1008.87 427.605 913.21 417.05C815.524 406.272 744.327 583.207 653.51 545.659C574.73 513.088 640.987 378.935 621.278 295.992C605.676 230.333 543.523 178.187 550.297 111.035C557.089 43.7101 615.681 -4.14428 657.284 -57.5191Z" stroke="#8E1919"/>
<path opacity="0.563025" fill-rule="evenodd" clip-rule="evenodd" d="M656.95 -66.2728C698.823 -118.104 739.24 -170.639 794.96 -207.176C859.331 -249.385 926.77 -292.53 1003.72 -294.075C1085 -295.706 1172 -272.095 1230.63 -215.788C1288.15 -160.543 1299.91 -74.3413 1315.31 3.9194C1328.63 71.6162 1323.11 138.743 1313.9 207.126C1304.64 275.866 1291.46 343.199 1260.58 405.309C1224.51 477.834 1200.53 595.457 1119.56 597.161C1023.34 599.185 1000.02 424.913 904.554 412.69C807.071 400.209 732.797 575.875 642.649 536.748C564.45 502.807 633.038 369.83 614.779 286.556C600.326 220.635 539.093 167.412 547.038 100.388C555.003 33.1923 614.422 -13.6322 656.95 -66.2728Z" stroke="#8E1919"/>
<path opacity="0.571429" fill-rule="evenodd" clip-rule="evenodd" d="M656.522 -73.9099C699.294 -125.002 740.621 -176.824 796.97 -212.383C862.068 -253.462 930.25 -295.424 1007.22 -295.625C1088.51 -295.838 1175.08 -270.712 1232.72 -213.39C1289.27 -157.15 1299.53 -70.756 1313.56 7.76148C1325.69 75.6803 1319 142.701 1308.6 210.913C1298.15 279.48 1283.79 346.573 1251.83 408.134C1214.5 480.019 1188.47 597.206 1107.49 597.496C1011.24 597.841 990.963 423.188 895.73 409.302C798.479 395.12 721.151 569.463 631.7 528.769C554.104 493.469 625.003 361.709 608.2 278.129C594.899 211.966 534.604 157.683 543.718 90.8077C552.855 23.7608 613.082 -22.0196 656.522 -73.9099Z" stroke="#8E1919"/>
<path opacity="0.579832" fill-rule="evenodd" clip-rule="evenodd" d="M656.001 -82.434C699.658 -132.772 741.883 -183.865 798.844 -218.435C864.649 -258.372 933.553 -299.137 1010.51 -297.995C1091.8 -296.789 1177.92 -270.156 1234.54 -211.837C1290.1 -154.619 1298.85 -68.0586 1311.51 10.6917C1322.46 78.812 1314.6 145.705 1303.01 213.725C1291.36 282.1 1275.84 348.932 1242.8 409.926C1204.23 481.149 1176.16 597.864 1095.18 596.74C998.942 595.405 981.715 420.425 886.739 404.878C789.75 389.002 709.391 561.969 620.664 519.72C543.696 483.071 616.883 352.569 601.542 268.708C589.398 202.323 530.06 146.995 540.339 80.2898C550.644 13.4126 611.661 -31.3097 656.001 -82.434Z" stroke="#8E1919"/>
<path opacity="0.588235" fill-rule="evenodd" clip-rule="evenodd" d="M656.383 -89.8448C700.912 -139.413 744.022 -189.761 801.578 -223.332C868.07 -262.114 937.675 -301.67 1014.6 -299.186C1095.86 -296.561 1181.5 -268.43 1237.1 -209.131C1291.65 -150.952 1298.89 -64.2522 1310.17 14.7069C1319.92 83.0079 1310.9 149.754 1298.12 217.561C1285.28 285.722 1268.6 352.273 1234.5 412.681C1194.69 483.22 1164.59 599.427 1083.64 596.89C987.442 593.876 973.272 418.622 878.581 401.42C781.884 383.854 698.519 555.392 610.542 511.601C534.226 473.614 609.68 344.409 595.805 260.293C584.821 193.706 526.457 137.352 537.899 70.8356C549.37 4.14846 611.158 -39.5021 656.383 -89.8448Z" stroke="#8E1919"/>
<path opacity="0.596639" fill-rule="evenodd" clip-rule="evenodd" d="M655.665 -98.146C701.053 -146.929 745.035 -196.517 803.168 -229.079C870.327 -266.695 940.612 -305.03 1017.48 -301.203C1098.68 -297.161 1183.82 -267.539 1238.37 -207.279C1291.9 -148.157 1297.63 -61.344 1307.53 17.7999C1316.09 86.2607 1305.9 152.839 1291.94 220.413C1277.91 288.34 1260.07 354.589 1224.93 414.393C1183.89 484.226 1151.76 599.89 1070.87 595.941C974.742 591.249 963.632 415.774 869.256 396.922C772.881 377.671 686.534 547.728 599.335 502.408C523.694 463.095 601.391 335.226 588.986 250.881C579.166 184.113 521.794 126.748 534.395 60.4422C547.029 -6.03465 609.569 -48.6002 655.665 -98.146Z" stroke="#8E1919"/>
<path opacity="0.605042" fill-rule="evenodd" clip-rule="evenodd" d="M654.849 -105.338C701.08 -153.322 745.922 -202.135 804.614 -233.677C872.419 -270.115 943.362 -307.218 1020.15 -302.05C1101.27 -296.591 1185.88 -265.488 1239.37 -204.285C1291.86 -144.238 1296.07 -57.3381 1304.59 21.9665C1311.95 90.5663 1300.6 156.957 1285.47 224.277C1270.26 291.948 1251.26 357.876 1215.08 417.058C1172.83 486.164 1138.69 601.25 1057.88 595.89C961.845 589.52 953.8 413.878 859.767 393.382C763.742 372.452 674.441 540.976 588.046 494.141C513.102 453.514 593.019 327.021 582.088 242.472C573.435 175.542 517.073 117.185 530.829 51.1093C544.621 -15.1369 607.895 -56.6045 654.849 -105.338Z" stroke="#8E1919"/>
<path opacity="0.613445" fill-rule="evenodd" clip-rule="evenodd" d="M653.929 -113.423C700.991 -160.593 746.677 -208.616 805.912 -239.128C874.342 -274.378 945.922 -310.237 1022.61 -303.73C1103.62 -296.856 1187.67 -264.281 1240.09 -202.154C1291.52 -141.199 1294.21 -54.2397 1301.35 25.2015C1307.51 93.9194 1295.01 160.102 1278.7 227.148C1262.31 294.543 1242.17 360.129 1204.96 418.671C1161.51 487.029 1125.36 601.501 1044.66 594.732C948.752 586.687 943.773 410.932 850.112 388.797C754.467 366.194 662.238 533.134 576.674 484.799C502.45 442.87 584.563 317.791 575.109 233.064C567.625 165.994 512.291 106.662 527.198 40.8359C542.143 -25.1595 606.131 -65.5165 653.929 -113.423Z" stroke="#8E1919"/>
<path opacity="0.621849" fill-rule="evenodd" clip-rule="evenodd" d="M652.906 -120.403C700.784 -166.744 747.302 -213.963 807.059 -243.437C876.094 -277.486 948.289 -312.091 1024.85 -304.246C1105.73 -295.96 1189.2 -261.923 1240.53 -198.89C1290.89 -137.048 1292.06 -50.054 1297.8 29.4995C1302.77 98.3146 1289.11 164.269 1271.64 231.02C1254.08 298.119 1232.79 363.344 1194.56 421.226C1149.93 488.816 1111.79 602.64 1031.22 594.463C935.465 584.746 933.554 408.93 840.294 385.165C745.058 360.896 649.93 526.201 565.222 476.379C491.742 433.161 576.025 309.535 568.051 224.656C561.739 157.465 507.448 97.1767 523.502 31.6208C539.597 -34.1037 604.28 -73.3378 652.906 -120.403Z" stroke="#8E1919"/>
<path opacity="0.630252" fill-rule="evenodd" clip-rule="evenodd" d="M652.776 -128.279C701.456 -173.778 748.79 -220.177 809.053 -248.604C878.672 -281.444 951.459 -314.783 1027.88 -305.603C1108.59 -295.906 1191.46 -260.418 1241.68 -196.499C1290.95 -133.787 1290.61 -46.7863 1294.96 32.8554C1298.73 101.747 1283.92 167.452 1265.28 233.888C1246.55 300.671 1224.13 365.514 1184.9 422.721C1139.09 489.521 1098.97 602.662 1018.55 593.08C922.986 581.693 924.144 405.871 831.312 380.482C736.515 354.555 638.516 518.174 554.691 466.882C481.975 422.388 568.403 300.251 561.912 215.246C556.773 147.955 503.543 86.7286 520.739 21.4629C537.978 -43.9707 603.336 -82.07 652.776 -128.279Z" stroke="#8E1919"/>
<path opacity="0.638655" fill-rule="evenodd" clip-rule="evenodd" d="M651.538 -135.054C701.005 -179.696 749.142 -225.262 809.892 -252.633C880.073 -284.252 953.431 -316.316 1029.68 -305.804C1110.21 -294.7 1192.44 -257.771 1241.54 -192.985C1289.71 -129.423 1287.85 -42.4417 1290.81 37.2638C1293.38 106.21 1277.42 171.648 1257.63 237.748C1237.74 304.193 1214.18 368.636 1173.96 425.149C1127 491.14 1084.91 603.564 1004.67 592.58C909.316 579.526 913.542 403.752 821.168 376.746C726.838 349.168 625.998 511.052 543.081 458.305C471.153 412.549 559.699 291.939 554.693 206.833C550.729 139.463 498.576 77.3167 516.908 12.3611C535.287 -52.7617 601.299 -89.7145 651.538 -135.054Z" stroke="#8E1919"/>
<path opacity="0.647059" fill-rule="evenodd" clip-rule="evenodd" d="M650.191 -142.73C700.429 -186.502 749.354 -231.221 810.572 -257.527C881.295 -287.917 955.202 -318.696 1031.25 -306.855C1111.58 -294.347 1193.16 -255.988 1241.11 -190.356C1288.17 -125.962 1284.79 -39.0266 1286.36 40.7185C1287.72 109.699 1270.63 174.848 1249.69 240.593C1228.63 306.681 1203.96 370.702 1162.76 426.505C1114.65 491.667 1070.61 603.339 990.572 590.956C895.459 576.24 902.752 400.566 810.863 371.952C717.028 342.732 613.379 502.832 531.395 448.646C460.277 401.641 550.914 282.595 547.394 197.415C544.607 129.986 493.546 66.9389 513.008 2.31305C532.521 -62.4791 599.168 -98.2742 650.191 -142.73Z" stroke="#8E1919"/>
<path opacity="0.655462" fill-rule="evenodd" clip-rule="evenodd" d="M648.734 -149.307C699.728 -192.196 749.426 -236.054 811.094 -261.288C882.336 -290.439 956.769 -319.923 1032.6 -306.757C1112.7 -292.849 1193.59 -253.072 1240.4 -186.613C1286.32 -121.408 1281.42 -34.5443 1281.6 45.2161C1281.76 114.21 1263.54 179.051 1241.45 244.42C1219.24 310.131 1193.46 373.712 1151.29 428.787C1102.05 493.099 1056.07 603.985 976.258 590.207C881.416 573.834 891.774 398.314 800.399 368.101C707.088 337.248 600.661 495.514 519.635 439.905C449.348 391.667 542.049 274.22 540.016 188.992C538.406 121.525 488.453 57.596 509.041 -6.68035C529.681 -71.122 596.943 -105.749 648.734 -149.307Z" stroke="#8E1919"/>
<path opacity="0.663866" fill-rule="evenodd" clip-rule="evenodd" d="M648.163 -156.79C699.898 -198.782 750.353 -241.766 812.453 -265.919C884.193 -293.823 959.128 -322.004 1034.72 -307.516C1114.56 -292.212 1194.75 -251.03 1240.39 -183.763C1285.17 -117.767 1278.75 -31.0021 1277.54 48.7493C1276.49 117.736 1257.14 182.248 1233.91 247.222C1210.57 312.535 1183.68 375.657 1140.55 429.988C1090.2 493.43 1042.29 603.497 962.73 588.329C868.189 570.303 881.609 394.99 790.775 363.187C698.017 330.71 588.843 487.095 508.8 430.08C439.366 380.622 534.103 264.812 533.557 179.561C533.125 112.076 484.295 47.2849 506.002 -16.6223C527.764 -80.694 595.62 -114.141 648.163 -156.79Z" stroke="#8E1919"/>
<path opacity="0.672269" fill-rule="evenodd" clip-rule="evenodd" d="M646.477 -164.178C698.937 -205.261 750.135 -247.358 812.646 -270.424C884.863 -297.071 960.279 -323.94 1035.6 -308.135C1115.17 -291.44 1194.62 -248.865 1239.08 -180.812C1282.7 -114.044 1274.78 -27.4044 1272.17 52.3138C1269.92 121.271 1249.44 185.436 1225.09 249.995C1200.61 314.891 1172.62 377.533 1128.55 431.103C1077.1 493.657 1027.27 602.871 947.993 586.317C853.78 566.644 870.258 391.592 779.992 358.208C687.815 324.117 575.929 478.573 496.893 420.17C428.333 369.508 525.076 255.369 526.019 170.121C526.764 102.639 479.073 37.0056 501.891 -26.5132C524.768 -90.1953 593.198 -122.453 646.477 -164.178Z" stroke="#8E1919"/>
<path opacity="0.680672" fill-rule="evenodd" clip-rule="evenodd" d="M644.674 -170.475C697.843 -210.636 749.768 -251.833 812.673 -273.804C885.343 -299.187 961.216 -324.736 1036.25 -307.618C1115.52 -289.537 1194.22 -245.582 1237.48 -176.764C1279.93 -109.245 1270.49 -22.7565 1266.5 56.9041C1263.04 125.812 1241.45 189.61 1215.97 253.734C1190.36 318.192 1161.28 380.337 1116.29 433.13C1063.75 494.776 1012.02 603.104 933.046 585.168C839.191 563.854 858.721 389.116 769.052 354.162C677.484 318.468 562.92 470.947 484.915 411.174C417.249 359.323 515.97 246.889 518.4 161.671C520.323 94.2121 473.785 27.7568 497.708 -35.3541C521.693 -98.6272 590.675 -129.686 644.674 -170.475Z" stroke="#8E1919"/>
<path opacity="0.689076" fill-rule="evenodd" clip-rule="evenodd" d="M642.756 -177.681C696.617 -216.908 749.254 -257.193 812.532 -278.064C885.634 -302.174 961.942 -326.394 1036.67 -307.97C1115.61 -288.509 1193.52 -243.186 1235.58 -173.624C1276.84 -105.374 1265.9 -19.0638 1260.51 60.515C1255.86 129.352 1233.15 192.763 1206.56 256.433C1179.83 320.434 1149.67 382.062 1103.76 434.062C1050.15 494.782 996.547 602.191 917.895 582.879C824.427 559.93 847.004 385.56 757.959 349.046C667.027 311.759 549.819 462.216 472.87 401.091C406.119 348.067 506.787 237.373 510.704 152.21C513.804 84.7948 468.432 17.5374 493.454 -45.1463C518.539 -107.991 588.053 -137.842 642.756 -177.681Z" stroke="#8E1919"/>
<path opacity="0.697479" fill-rule="evenodd" clip-rule="evenodd" d="M641.716 -183.8C696.254 -222.081 749.585 -261.441 813.218 -281.204C886.73 -304.036 963.449 -326.92 1037.84 -307.195C1116.43 -286.359 1193.54 -239.683 1234.38 -169.397C1274.44 -100.438 1262 -14.3316 1255.22 65.1411C1249.37 133.886 1225.56 196.892 1197.86 260.088C1170.01 323.613 1138.78 384.705 1091.97 435.895C1037.32 495.671 981.843 602.127 903.54 581.446C810.486 556.87 836.103 382.92 747.708 344.858C657.442 305.99 537.626 454.378 461.755 391.919C395.94 337.738 498.524 228.818 503.926 143.737C508.203 76.3854 464.012 8.34633 490.124 -53.8912C516.302 -116.289 586.326 -144.921 641.716 -183.8Z" stroke="#8E1919"/>
<path opacity="0.705882" fill-rule="evenodd" clip-rule="evenodd" d="M639.556 -190.835C694.754 -228.158 748.764 -266.581 812.732 -285.231C886.631 -306.776 963.738 -328.318 1037.78 -307.297C1115.99 -285.093 1192.28 -237.079 1231.88 -166.09C1270.73 -96.4424 1256.78 -10.5664 1248.63 68.776C1241.57 137.408 1216.67 199.989 1187.87 262.692C1158.92 325.721 1126.63 386.259 1078.93 436.625C1023.24 495.437 965.915 600.91 887.985 578.865C795.374 552.668 824.023 379.192 736.306 339.593C646.732 299.155 524.344 445.43 449.575 381.656C384.715 326.335 489.185 219.222 496.072 134.248C501.523 66.9813 458.526 -1.81861 485.72 -63.5909C512.983 -125.522 583.496 -152.928 639.556 -190.835Z" stroke="#8E1919"/>
<path opacity="0.714286" fill-rule="evenodd" clip-rule="evenodd" d="M637.274 -196.785C693.115 -233.139 747.787 -270.614 812.071 -288.144C886.335 -308.396 963.806 -328.589 1037.47 -306.279C1115.28 -282.713 1190.72 -233.375 1229.07 -161.706C1266.71 -91.3912 1251.26 -5.77169 1241.72 73.4163C1233.47 141.915 1207.48 204.051 1177.59 266.242C1147.54 328.757 1114.2 388.722 1065.63 438.248C1008.92 496.079 949.765 600.535 872.232 577.134C780.093 549.325 811.764 376.375 724.752 335.251C635.897 293.256 510.975 437.373 437.33 372.304C373.446 315.859 479.77 210.585 488.138 125.744C494.762 58.5832 452.973 -10.9566 481.241 -72.245C509.581 -133.691 580.561 -159.862 637.274 -196.785Z" stroke="#8E1919"/>
<path opacity="0.722689" fill-rule="evenodd" clip-rule="evenodd" d="M634.868 -203.654C691.334 -239.028 746.652 -275.543 811.232 -291.949C885.838 -310.902 963.649 -329.74 1036.91 -306.148C1114.3 -281.228 1188.86 -230.58 1225.96 -158.253C1262.37 -87.2916 1245.43 -1.9547 1234.51 77.0547C1225.06 145.399 1197.99 207.072 1167.02 268.732C1135.88 330.713 1101.5 390.087 1052.08 438.757C994.365 495.59 933.396 598.998 856.283 574.247C764.643 544.834 799.328 372.463 713.047 329.827C624.938 286.288 497.52 428.203 425.022 361.858C362.133 304.307 470.277 200.905 480.125 116.223C487.921 49.1878 447.351 -21.0708 476.684 -81.8565C506.092 -142.799 577.519 -167.727 634.868 -203.654Z" stroke="#8E1919"/>
<path opacity="0.731092" fill-rule="evenodd" clip-rule="evenodd" d="M633.337 -209.444C690.412 -243.827 746.359 -279.371 811.215 -294.647C886.141 -312.295 964.269 -329.772 1037.11 -304.905C1114.05 -278.638 1187.72 -226.697 1223.55 -153.733C1258.71 -82.1473 1240.28 2.88098 1227.98 81.6878C1217.34 149.857 1189.2 211.048 1157.16 272.158C1124.95 333.586 1089.54 392.351 1039.27 440.152C980.576 495.969 917.811 598.297 841.141 572.204C750.029 541.196 787.717 369.457 702.193 325.321C614.858 280.251 484.983 419.92 413.654 352.321C351.779 293.681 461.711 192.182 473.035 107.684C482 40.7955 442.663 -30.1604 473.052 -90.425C503.519 -150.845 575.37 -174.523 633.337 -209.444Z" stroke="#8E1919"/>
<path opacity="0.739496" fill-rule="evenodd" clip-rule="evenodd" d="M630.68 -216.157C688.346 -249.539 744.905 -284.101 810.018 -298.243C885.24 -314.58 963.661 -330.692 1036.05 -304.557C1112.52 -276.951 1185.28 -223.733 1219.83 -150.154C1253.73 -77.9658 1233.83 6.72802 1220.15 85.3082C1208.33 153.281 1179.12 213.972 1146.02 274.513C1112.74 335.37 1076.31 393.508 1025.21 440.424C965.554 495.209 901.013 596.425 824.811 568.999C734.253 536.405 774.933 365.35 690.193 319.728C603.657 273.141 471.364 410.522 401.226 341.688C340.384 281.977 452.071 182.412 464.868 98.1253C474.998 31.4031 436.906 -40.2286 468.342 -99.9537C499.859 -159.832 572.112 -182.253 630.68 -216.157Z" stroke="#8E1919"/>
<path opacity="0.747899" fill-rule="evenodd" clip-rule="evenodd" d="M627.894 -221.795C686.134 -254.166 743.287 -287.736 808.637 -300.739C884.133 -315.761 962.823 -330.502 1034.75 -303.108C1110.72 -274.171 1182.54 -219.691 1215.8 -145.521C1248.44 -72.7516 1227.06 11.5819 1212.02 89.9115C1199.01 157.668 1168.74 217.84 1134.59 277.794C1100.25 338.061 1062.81 395.554 1010.91 441.571C950.302 495.306 884.004 595.381 808.292 566.629C718.317 532.46 761.976 362.14 678.045 315.047C592.336 266.956 457.665 402.008 388.739 331.96C328.948 271.197 442.356 173.596 456.622 89.5453C467.915 23.01 431.079 -49.2756 463.553 -108.443C496.11 -167.763 568.743 -188.919 627.894 -221.795Z" stroke="#8E1919"/>
<path opacity="0.756303" fill-rule="evenodd" clip-rule="evenodd" d="M624.979 -228.361C683.776 -259.71 741.507 -292.278 807.073 -304.139C882.819 -317.841 961.755 -331.206 1033.19 -302.561C1108.65 -272.303 1179.5 -216.577 1211.47 -141.838C1242.83 -68.5103 1219.98 15.4373 1203.57 93.4924C1189.38 161.011 1158.07 220.646 1122.88 279.995C1087.5 339.654 1049.06 396.484 996.359 441.589C934.823 494.258 866.789 593.161 791.59 563.092C702.226 527.358 748.85 357.826 665.754 309.275C580.897 259.696 443.89 392.377 376.197 321.136C317.476 259.339 432.569 163.732 448.3 79.943C460.753 13.6149 425.184 -59.3026 458.685 -117.894C492.273 -176.637 565.264 -196.522 624.979 -228.361Z" stroke="#8E1919"/>
<path opacity="0.764706" fill-rule="evenodd" clip-rule="evenodd" d="M621.935 -233.857C681.27 -264.175 739.56 -295.73 805.324 -306.445C881.297 -318.823 960.454 -330.808 1031.38 -300.921C1106.3 -269.351 1176.17 -212.397 1206.82 -137.112C1236.9 -63.2474 1212.59 20.2886 1194.82 98.0456C1179.46 165.307 1147.11 224.386 1110.88 283.112C1074.47 342.144 1035.04 398.295 981.565 442.473C919.12 494.06 849.37 591.761 774.707 560.383C685.98 523.095 735.556 354.403 653.32 304.409C569.342 253.357 430.04 383.626 363.6 311.216C305.966 248.402 422.711 154.819 439.902 71.3171C453.511 5.21635 419.219 -68.3108 453.738 -126.309C488.346 -184.456 561.673 -203.065 621.935 -233.857Z" stroke="#8E1919"/>
<path opacity="0.773109" fill-rule="evenodd" clip-rule="evenodd" d="M619.758 -240.286C679.613 -269.564 738.445 -300.097 804.385 -309.662C880.563 -320.713 959.918 -331.314 1030.31 -300.194C1104.67 -267.321 1173.53 -209.157 1202.87 -133.347C1231.65 -58.9695 1205.89 24.1296 1186.77 101.565C1170.23 168.547 1136.86 227.053 1099.61 285.138C1062.17 343.525 1021.77 398.98 967.529 442.218C904.193 492.707 832.749 589.176 758.645 556.5C670.582 517.669 723.095 349.868 641.744 298.447C558.669 245.936 417.115 373.755 351.95 300.196C295.421 236.386 413.781 144.854 432.427 61.6653C447.187 -4.18796 414.184 -78.3024 449.71 -135.689C485.327 -193.224 558.968 -210.55 619.758 -240.286Z" stroke="#8E1919"/>
<path opacity="0.781513" fill-rule="evenodd" clip-rule="evenodd" d="M616.448 -245.648C676.805 -273.877 736.161 -303.378 802.258 -311.791C878.617 -321.511 958.145 -330.726 1027.98 -298.382C1101.76 -264.216 1169.59 -204.859 1197.6 -128.549C1225.09 -53.6802 1197.87 28.9566 1177.4 106.046C1159.7 172.73 1125.31 230.645 1087.06 288.07C1048.6 345.795 1007.24 400.537 952.255 442.822C888.047 492.198 814.93 587.405 741.408 553.441C654.037 513.079 709.47 346.22 629.029 293.386C546.883 239.434 403.12 364.763 339.248 290.078C283.842 225.291 403.781 135.839 423.876 52.9881C439.783 -12.5975 408.079 -87.2767 444.601 -144.035C481.217 -200.939 555.148 -216.977 616.448 -245.648Z" stroke="#8E1919"/>
<path opacity="0.789916" fill-rule="evenodd" clip-rule="evenodd" d="M613.006 -251.947C673.846 -279.119 733.707 -307.58 799.942 -314.838C876.459 -323.223 956.135 -331.049 1025.4 -297.491C1098.56 -262.043 1165.36 -201.511 1192.03 -124.724C1218.2 -49.3869 1189.55 32.7624 1167.74 109.483C1148.87 175.848 1113.48 233.153 1074.23 289.903C1034.77 346.948 992.461 400.959 936.745 442.278C871.686 490.526 796.918 584.443 724 549.201C637.346 507.32 695.684 341.454 616.176 287.225C534.985 231.847 389.056 354.648 326.498 278.859C272.231 213.116 393.713 125.77 415.251 43.2824C432.3 -22.0157 401.904 -97.2368 439.411 -153.349C477.015 -209.605 551.215 -224.351 613.006 -251.947Z" stroke="#8E1919"/>
<path opacity="0.798319" fill-rule="evenodd" clip-rule="evenodd" d="M609.427 -257.185C670.732 -283.29 731.081 -310.702 797.432 -316.804C874.084 -323.852 953.884 -330.287 1022.55 -295.525C1095.09 -258.805 1160.81 -197.117 1186.14 -119.876C1210.99 -44.0934 1180.91 37.5435 1157.77 113.872C1137.74 179.897 1101.36 236.576 1061.12 292.632C1020.68 348.98 977.43 402.245 921.001 442.585C855.109 489.691 778.714 582.288 706.423 545.779C620.513 502.392 681.736 337.569 603.187 281.96C522.975 225.174 374.925 345.41 313.699 268.541C260.588 201.86 383.576 116.648 406.55 34.5488C424.736 -30.4418 395.657 -106.182 434.138 -161.631C472.718 -217.223 547.164 -230.671 609.427 -257.185Z" stroke="#F1F8F6"/>
<path opacity="0.806723" fill-rule="evenodd" clip-rule="evenodd" d="M606.714 -263.365C668.465 -288.396 729.283 -314.751 795.731 -319.694C872.494 -325.403 952.394 -330.444 1020.44 -294.489C1092.33 -256.509 1156.97 -193.683 1180.94 -116.012C1204.47 -39.8072 1172.97 41.2924 1148.49 117.205C1127.32 182.871 1089.95 238.907 1048.74 294.252C1007.32 349.885 963.151 402.387 906.027 441.736C839.323 487.685 761.324 578.935 689.68 541.17C604.541 496.291 668.631 332.561 591.065 275.59C511.856 217.412 361.731 335.046 301.855 257.12C249.916 189.523 374.372 106.47 398.776 24.7839C418.094 -39.8794 390.341 -116.116 429.784 -170.885C469.328 -225.794 543.998 -237.942 606.714 -263.365Z" stroke="#F1F8F6"/>
<path opacity="0.815126" fill-rule="evenodd" clip-rule="evenodd" d="M602.862 -269.488C665.041 -293.439 726.31 -318.728 792.834 -322.51C869.685 -326.879 949.661 -330.525 1017.07 -293.387C1088.28 -254.159 1151.81 -190.214 1174.43 -112.136C1196.63 -35.5327 1163.72 45.0047 1137.92 120.479C1115.6 185.765 1077.26 241.14 1035.09 295.758C992.706 350.66 947.626 402.383 889.824 440.729C822.329 485.507 742.748 575.382 671.775 536.372C587.432 490.014 654.37 327.427 577.81 269.111C499.628 209.56 347.473 324.556 288.967 245.597C238.215 177.103 364.102 96.2352 389.927 14.9876C410.371 -49.3288 383.953 -126.038 424.345 -180.11C464.842 -234.321 539.712 -245.164 602.862 -269.488Z" stroke="#F1F8F6"/>
<path opacity="0.823529" fill-rule="evenodd" clip-rule="evenodd" d="M598.873 -274.558C661.46 -297.42 723.161 -321.636 789.741 -324.256C866.656 -327.284 946.684 -329.533 1013.44 -291.225C1083.95 -250.76 1146.36 -185.716 1167.61 -107.255C1188.46 -30.2757 1154.15 49.6752 1127.04 124.688C1103.59 189.575 1064.29 244.272 1021.17 298.145C977.834 352.3 931.858 403.228 873.396 440.56C805.129 484.152 723.992 572.625 653.711 532.383C570.189 484.559 639.955 323.166 564.424 263.522C487.294 202.616 333.155 314.939 276.036 234.971C226.487 165.602 353.766 86.9431 381.005 6.15852C402.568 -57.7913 377.494 -134.95 418.823 -188.309C460.26 -241.805 535.308 -251.339 598.873 -274.558Z" stroke="#F1F8F6"/>
<path opacity="0.831933" fill-rule="evenodd" clip-rule="evenodd" d="M594.745 -280.577C657.722 -302.343 719.836 -325.479 786.451 -326.937C863.407 -328.622 943.462 -329.474 1009.54 -290.007C1079.33 -248.317 1140.6 -182.194 1160.48 -103.374C1179.98 -26.0426 1144.28 53.2973 1115.86 127.825C1091.28 192.293 1051.03 246.296 1006.98 299.409C962.708 352.799 915.85 402.917 856.745 439.223C787.727 481.617 705.059 568.66 635.491 527.198C552.817 477.924 625.388 317.772 550.91 256.82C474.855 194.577 318.779 304.193 263.064 223.24C214.733 153.017 343.366 76.5913 372.011 -3.70558C394.687 -67.2694 370.963 -144.854 413.218 -197.483C455.581 -250.249 530.784 -258.471 594.745 -280.577Z" stroke="#F1F8F6"/>
<path opacity="0.840336" fill-rule="evenodd" clip-rule="evenodd" d="M591.478 -285.547C654.825 -306.21 717.334 -328.258 783.964 -328.554C860.938 -328.895 940.995 -328.35 1006.37 -287.736C1075.43 -244.834 1135.53 -177.652 1154.03 -98.4972C1172.18 -20.8372 1135.1 57.8677 1105.39 131.888C1079.69 195.917 1038.5 249.21 993.532 301.546C948.33 354.155 900.605 403.448 840.875 438.717C771.129 479.9 686.954 565.487 618.119 522.817C536.318 472.108 611.674 313.247 538.271 251.004C463.314 187.443 305.348 294.319 251.055 212.406C203.957 141.35 333.904 67.1808 363.946 -12.604C387.728 -75.7625 365.361 -153.749 408.528 -205.633C451.806 -257.651 527.141 -264.56 591.478 -285.547Z" stroke="#F1F8F6"/>
<path opacity="0.84874" fill-rule="evenodd" clip-rule="evenodd" d="M587.07 -291.47C650.768 -311.025 713.651 -331.979 780.276 -331.112C857.245 -330.109 937.28 -328.167 1001.94 -286.418C1070.24 -242.318 1129.15 -174.097 1146.27 -94.6317C1163.06 -16.6666 1124.62 61.3791 1093.62 134.87C1066.8 198.441 1024.69 251.007 978.816 302.55C932.703 354.362 884.124 402.814 823.788 437.035C753.333 476.996 667.678 561.101 599.599 517.235C518.695 465.107 596.812 307.585 524.506 244.071C450.67 179.211 290.863 283.313 238.007 200.466C192.157 128.599 323.379 56.7084 354.809 -22.54C379.689 -85.2738 358.687 -163.639 402.753 -214.762C446.932 -266.017 522.376 -271.61 587.07 -291.47Z" stroke="#F1F8F6"/>
<path opacity="0.857143" fill-rule="evenodd" clip-rule="evenodd" d="M582.521 -296.349C646.55 -314.789 709.79 -334.642 776.39 -332.612C853.329 -330.267 933.319 -326.929 997.238 -284.057C1064.76 -238.772 1122.47 -169.533 1138.2 -89.7811C1153.63 -11.5348 1113.83 65.8282 1081.55 138.767C1053.63 201.86 1010.61 253.683 963.84 304.418C916.829 355.417 867.413 403.014 806.488 436.177C735.347 474.902 648.236 557.499 580.933 512.453C500.952 458.92 581.806 302.785 510.62 238.019C437.927 171.881 276.328 273.178 224.926 189.421C180.337 116.764 312.794 47.1751 345.602 -31.5128C371.573 -93.8028 351.942 -172.522 396.894 -222.869C441.961 -273.345 517.491 -277.62 582.521 -296.349Z" stroke="#F1F8F6"/>
<path opacity="0.865546" fill-rule="evenodd" clip-rule="evenodd" d="M577.829 -302.187C642.171 -319.507 705.747 -338.253 772.301 -335.061C849.188 -331.374 929.107 -326.64 992.268 -282.66C1058.99 -236.203 1115.49 -165.967 1129.82 -85.9527C1143.88 -7.44903 1102.73 69.2075 1069.19 141.572C1040.17 204.168 996.25 255.232 948.605 305.143C900.711 355.314 850.471 402.042 788.977 434.137C717.171 471.614 628.632 552.679 562.126 506.464C483.091 451.544 566.657 296.844 496.613 230.845C425.085 163.448 261.743 261.91 211.811 177.268C168.497 103.845 302.147 36.5778 336.324 -41.5255C363.379 -103.353 345.124 -182.403 390.948 -231.957C436.889 -281.639 512.482 -284.596 577.829 -302.187Z" stroke="#F1F8F6"/>
<path opacity="0.87395" fill-rule="evenodd" clip-rule="evenodd" d="M572.994 -306.985C637.628 -323.18 701.523 -340.814 768.011 -336.461C844.821 -331.432 924.645 -325.304 987.029 -280.229C1052.93 -232.615 1108.19 -161.404 1121.13 -81.1511C1133.82 -2.41392 1091.34 73.5129 1056.53 145.281C1026.43 207.361 981.623 257.651 933.114 306.723C884.352 356.051 833.304 401.894 771.259 432.911C698.81 469.13 608.87 548.637 543.18 501.269C465.116 444.977 551.37 291.759 482.488 224.548C412.147 155.913 247.111 251.51 198.664 166.009C156.638 91.8408 291.442 26.9165 326.977 -50.5785C355.106 -111.924 338.235 -191.281 384.916 -240.028C431.717 -288.901 507.35 -290.538 572.994 -306.985Z" stroke="#F1F8F6"/>
<path opacity="0.882353" fill-rule="evenodd" clip-rule="evenodd" d="M569.016 -312.747C633.923 -327.811 698.115 -344.328 764.517 -338.815C841.228 -332.447 920.933 -324.927 982.521 -278.769C1047.58 -230.013 1101.59 -157.848 1113.12 -77.3816C1124.44 1.56506 1080.64 76.7389 1044.59 147.889C1013.4 209.434 967.727 258.935 918.369 307.152C868.754 355.622 816.914 400.568 754.338 430.497C681.267 465.445 589.953 543.371 525.1 494.863C448.03 437.218 536.945 285.529 469.247 217.126C400.114 147.274 233.435 239.975 186.488 153.642C145.763 78.752 281.68 16.1902 318.561 -60.6729C347.757 -121.519 332.273 -201.158 379.798 -249.083C427.445 -297.131 503.095 -297.448 569.016 -312.747Z" stroke="#F1F8F6"/>
<path opacity="0.890756" fill-rule="evenodd" clip-rule="evenodd" d="M563.895 -317.475C629.055 -331.404 693.525 -346.798 759.821 -340.127C836.409 -332.421 915.971 -323.511 976.743 -276.286C1040.94 -226.401 1093.69 -153.305 1103.81 -72.6497C1113.75 6.48246 1068.64 80.8806 1031.35 151.39C999.1 212.382 952.568 261.078 902.376 308.427C851.922 356.023 799.305 400.057 736.216 428.89C662.547 462.558 569.887 538.878 505.89 489.246C429.838 430.265 521.387 280.15 454.893 210.576C386.99 139.528 218.719 229.307 173.285 142.168C133.873 66.5782 270.861 6.3978 309.079 -69.81C339.332 -130.137 325.24 -210.034 373.594 -257.122C422.073 -304.332 497.717 -303.329 563.895 -317.475Z" stroke="#F1F8F6"/>
<path opacity="0.89916" fill-rule="evenodd" clip-rule="evenodd" d="M558.628 -323.173C624.021 -335.962 688.751 -350.229 754.92 -342.402C831.362 -333.36 910.756 -323.063 970.695 -274.784C1034.01 -223.787 1085.47 -149.781 1094.19 -68.9617C1102.74 10.3318 1056.34 83.9315 1017.83 153.78C984.519 214.2 937.144 262.076 886.133 308.542C834.857 355.25 781.479 398.36 717.897 426.087C643.651 458.464 549.673 533.155 486.552 482.414C411.541 422.115 505.696 273.621 440.426 202.896C373.774 130.674 203.961 217.503 160.056 129.584C121.969 53.318 259.987 -4.46256 299.528 -79.9918C330.83 -139.782 318.135 -219.913 367.303 -266.15C416.598 -312.506 492.213 -310.183 558.628 -323.173Z" stroke="#F1F8F6"/>
<path opacity="0.907563" fill-rule="evenodd" clip-rule="evenodd" d="M553.217 -327.84C618.823 -339.486 683.792 -352.621 749.814 -343.641C826.087 -333.266 905.289 -321.585 964.376 -272.268C1026.79 -220.173 1076.95 -145.281 1084.26 -64.3211C1091.43 15.1096 1043.75 87.8884 1004.03 157.054C969.665 216.883 921.461 263.925 869.647 309.494C817.563 355.301 763.441 397.472 699.384 424.085C624.585 455.162 529.318 528.202 467.092 476.367C393.145 414.767 489.877 267.939 425.852 196.087C360.47 122.712 189.168 206.564 146.803 117.892C110.054 40.9733 249.059 -14.3899 289.913 -89.2176C322.253 -148.452 310.958 -228.792 360.926 -274.165C411.023 -319.653 486.586 -316.011 553.217 -327.84Z" stroke="#F1F8F6"/>
<path opacity="0.915966" fill-rule="evenodd" clip-rule="evenodd" d="M548.659 -333.481C614.459 -343.981 679.647 -355.98 745.503 -345.849C821.582 -334.145 900.568 -321.083 958.786 -270.742C1020.28 -217.567 1069.13 -141.81 1075.02 -60.7351C1080.8 18.8086 1031.86 90.7443 990.938 159.206C955.536 218.427 906.518 264.62 853.917 309.278C801.042 354.168 746.192 395.389 681.681 420.88C606.35 450.647 509.823 522.013 448.512 469.1C375.651 406.219 474.931 261.102 412.169 188.143C348.078 113.638 175.339 194.488 134.528 105.09C99.1269 27.5417 239.077 -25.3872 281.23 -99.4905C314.6 -158.151 304.709 -238.677 355.461 -283.17C406.344 -327.778 481.832 -322.817 548.659 -333.481Z" stroke="#F1F8F6"/>
<path opacity="0.92437" fill-rule="evenodd" clip-rule="evenodd" d="M542.956 -338.098C608.928 -347.448 674.316 -358.307 739.985 -347.028C815.848 -333.998 894.594 -319.561 951.925 -268.211C1012.48 -213.97 1060 -137.372 1064.48 -56.2073C1068.87 23.4252 1018.68 94.496 976.568 162.233C940.138 220.827 890.321 266.158 836.949 309.891C783.298 353.852 727.737 394.109 662.791 418.471C586.952 446.918 489.194 516.589 428.816 462.614C357.063 398.471 458.861 255.108 397.382 181.065C334.602 105.453 160.477 183.276 121.233 93.18C87.1906 15.0253 228.043 -35.4532 271.483 -108.81C305.871 -166.879 297.387 -247.565 348.909 -291.166C400.562 -334.879 475.952 -328.602 542.956 -338.098Z" stroke="#F1F8F6"/>
<path opacity="0.932773" fill-rule="evenodd" clip-rule="evenodd" d="M537.105 -343.694C603.231 -351.891 668.798 -361.608 734.26 -349.184C809.885 -334.833 888.367 -319.023 944.792 -266.681C1004.39 -211.391 1050.57 -133.976 1053.63 -52.7448C1056.63 26.9521 1005.21 97.1363 961.919 164.128C924.472 222.077 873.872 266.532 819.744 309.327C765.334 352.345 709.08 391.626 643.717 414.851C567.394 441.97 468.435 509.925 409.008 454.904C338.386 389.519 442.67 247.954 382.493 172.849C321.042 96.1538 145.586 170.926 107.92 80.1587C75.2467 1.42171 216.958 -46.591 261.673 -119.178C297.069 -176.639 289.995 -257.461 342.269 -300.156C394.677 -342.96 469.946 -335.369 537.105 -343.694Z" stroke="#F1F8F6"/>
<path opacity="0.941176" fill-rule="evenodd" clip-rule="evenodd" d="M531.109 -349.271C597.368 -356.313 663.094 -364.884 728.33 -351.32C803.693 -335.651 881.887 -318.474 937.39 -265.155C996.018 -208.833 1040.83 -130.624 1042.47 -49.3521C1044.08 30.3851 991.448 99.6613 946.995 165.888C908.542 223.174 857.174 266.739 802.307 308.583C747.155 350.645 690.223 388.938 624.466 411.019C547.681 436.802 447.551 503.019 389.093 446.97C319.623 380.362 426.362 240.639 367.505 164.496C307.402 86.7392 130.667 158.438 94.5917 67.0271C63.2976 -12.268 205.826 -57.8004 251.8 -129.596C288.194 -186.43 282.531 -267.363 335.542 -309.139C388.69 -351.023 463.815 -342.119 531.109 -349.271Z" stroke="#F1F8F6"/>
<path opacity="0.94958" fill-rule="evenodd" clip-rule="evenodd" d="M525.965 -353.832C592.336 -359.716 658.203 -367.139 723.191 -352.439C798.269 -335.457 876.151 -316.917 930.715 -262.638C988.351 -205.302 1031.8 -126.323 1032.02 -45.0344C1032.23 34.7188 978.398 103.066 932.796 168.506C893.349 225.113 841.228 267.775 785.64 308.655C729.762 349.748 672.171 387.042 606.038 407.972C528.815 432.411 427.544 496.871 370.073 439.81C301.776 372 410.938 234.16 353.419 157.001C294.682 78.208 116.723 146.812 82.2482 54.7851C52.3428 -25.0441 195.644 -68.0822 242.864 -139.065C280.244 -195.255 275.995 -276.275 329.727 -317.119C383.598 -358.069 458.556 -347.855 525.965 -353.832Z" stroke="#F1F8F6"/>
<path opacity="0.957983" fill-rule="evenodd" clip-rule="evenodd" d="M519.674 -359.38C586.138 -364.105 652.124 -370.377 716.846 -354.545C791.616 -336.255 869.163 -316.36 922.771 -261.136C979.398 -202.803 1021.46 -123.078 1020.26 -41.7979C1019.08 37.9468 964.064 105.344 917.327 169.979C876.898 225.889 824.04 267.635 767.747 307.538C711.16 347.649 652.927 383.933 586.439 403.705C508.801 426.793 406.42 489.476 349.955 431.421C282.852 362.429 394.402 226.516 338.239 148.365C280.886 68.5581 101.757 134.046 68.8934 41.4315C40.3859 -38.9075 184.416 -79.4383 232.868 -149.586C271.223 -205.116 268.389 -286.197 322.826 -326.097C377.403 -366.101 452.171 -354.58 519.674 -359.38Z" stroke="#F1F8F6"/>
<path opacity="0.966387" fill-rule="evenodd" clip-rule="evenodd" d="M513.235 -363.915C579.771 -367.48 645.856 -372.6 710.292 -355.641C784.731 -336.049 861.919 -314.803 914.556 -258.652C970.156 -199.34 1010.82 -118.892 1008.2 -37.646C1005.63 42.0661 949.446 108.493 901.587 172.302C860.189 227.498 806.611 268.315 749.63 307.23C692.352 346.348 633.494 381.61 566.671 400.218C488.642 421.948 385.183 482.834 329.739 423.803C263.85 353.65 377.756 219.705 322.965 140.585C267.014 59.79 86.769 122.142 55.5272 28.9679C28.4263 -51.8564 173.142 -89.8674 222.811 -159.159C262.13 -214.011 260.71 -295.129 315.836 -334.074C371.103 -373.119 445.658 -360.295 513.235 -363.915Z" stroke="#F1F8F6"/>
<path opacity="0.97479" fill-rule="evenodd" clip-rule="evenodd" d="M506.648 -369.444C573.236 -371.847 639.4 -375.812 703.53 -357.731C777.617 -336.843 854.422 -314.253 906.07 -257.193C960.626 -196.919 999.878 -115.774 995.844 -34.5859C991.886 45.0692 934.547 110.505 885.582 173.47C843.227 227.935 788.945 267.811 731.293 305.725C673.341 343.837 613.876 378.067 546.739 395.507C468.342 415.871 363.837 474.942 309.431 414.952C244.777 343.661 361.003 211.723 307.602 131.66C253.069 49.9004 71.7635 109.097 42.1527 15.3923C16.4665 -65.8926 161.824 -101.372 212.694 -169.786C252.964 -223.944 252.961 -305.074 308.758 -343.051C364.698 -381.126 439.018 -367.003 506.648 -369.444Z" stroke="#F1F8F6"/>
<path opacity="0.983193" fill-rule="evenodd" clip-rule="evenodd" d="M500.913 -373.965C567.534 -375.205 633.757 -378.015 697.562 -358.818C771.272 -336.64 847.671 -312.714 898.316 -254.761C951.812 -193.544 989.642 -111.726 984.191 -30.6208C978.843 48.9532 920.371 113.379 870.315 175.479C827.015 229.196 772.045 268.119 713.741 305.022C655.132 342.117 595.079 375.303 527.648 391.569C448.908 410.562 343.387 467.801 290.037 406.87C226.637 334.461 345.148 204.572 293.152 123.589C240.054 40.8902 57.7435 96.9136 29.7726 2.70647C5.50904 -79.0143 151.463 -111.952 203.52 -179.468C244.729 -232.914 246.142 -314.032 302.593 -351.03C359.189 -388.122 433.252 -372.705 500.913 -373.965Z" stroke="#F1F8F6"/>
<path opacity="0.991597" fill-rule="evenodd" clip-rule="evenodd" d="M494.031 -379.483C560.663 -379.561 626.925 -381.215 690.385 -360.907C763.697 -337.447 839.667 -312.19 889.293 -253.362C941.712 -191.221 978.108 -108.756 971.243 -27.7578C964.507 51.7108 904.919 115.106 853.787 176.323C809.556 229.277 753.915 267.234 694.975 303.114C635.728 339.181 575.106 371.314 507.4 386.4C428.341 404.016 321.837 459.405 269.559 397.552C207.432 324.048 328.192 196.247 277.618 114.369C225.971 30.756 42.7105 83.5893 16.3881 -11.0916C-6.44554 -93.2234 140.061 -123.609 193.289 -190.206C235.424 -242.925 238.253 -324.006 295.341 -360.013C352.575 -396.112 426.358 -379.404 494.031 -379.483Z" stroke="#F1F8F6"/>
<path fill-rule="evenodd" clip-rule="evenodd" d="M487 -384.001C553.623 -382.916 619.904 -383.413 683 -362.001C755.891 -337.265 831.409 -310.686 880 -251.001C931.327 -187.955 966.278 -104.867 958 -24.001C949.878 55.3379 889.193 117.684 837 177.999C791.852 230.173 735.557 267.153 676 301.999C616.132 337.026 554.958 368.096 487 381.999C407.645 398.233 300.191 451.754 249 388.999C188.166 314.422 311.138 188.747 262 105.999C211.821 21.4977 27.6658 71.1248 2.99991 -24.001C-18.3967 -106.519 128.618 -134.343 183 -200.001C226.049 -251.977 230.292 -332.996 288 -368.001C345.856 -403.096 419.336 -385.103 487 -384.001Z" stroke="#F1F8F6"/>
</g>
</svg>
