<svg width="650" height="703" viewBox="0 0 650 703" fill="none" xmlns="http://www.w3.org/2000/svg">
<g opacity="0.6">
<path opacity="0.01" d="M330.624 77.1697C460.388 58.9327 584.442 176.217 607.402 339.589C630.363 502.96 543.442 649.896 413.679 668.133C283.916 686.37 159.861 569.085 136.901 405.714C113.941 242.342 200.861 95.4068 330.624 77.1697Z" stroke="#ECECEC" stroke-width="1.63648"/>
<path opacity="0.0302041" d="M336.078 75.8692C464.905 62.3289 583.317 181.577 600.246 342.648C617.175 503.719 526.144 644.98 397.317 658.521C268.49 672.061 150.078 552.813 133.149 391.742C116.219 230.671 207.251 89.4095 336.078 75.8692Z" stroke="#ECECEC" stroke-width="1.63648"/>
<path opacity="0.0504082" d="M341.189 74.9655C468.912 66.0342 581.697 186.997 592.784 345.55C603.871 504.102 509.019 639.584 381.295 648.516C253.572 657.447 140.787 536.484 129.7 377.932C118.613 219.379 213.465 83.8968 341.189 74.9655Z" stroke="#ECECEC" stroke-width="1.63648"/>
<path opacity="0.0706122" d="M345.945 74.4365C472.402 70.0205 579.586 192.454 585.028 348.28C590.47 504.106 492.087 633.718 365.63 638.134C239.173 642.55 131.988 520.117 126.547 364.29C121.105 208.464 219.488 78.8525 345.945 74.4365Z" stroke="#ECECEC" stroke-width="1.63648"/>
<path opacity="0.0908163" d="M350.332 74.2656C475.365 74.2656 576.985 197.929 576.985 350.831C576.985 503.733 475.365 627.397 350.332 627.397C225.3 627.397 123.68 503.733 123.68 350.831C123.68 197.929 225.3 74.2656 350.332 74.2656Z" stroke="#ECECEC" stroke-width="1.63648"/>
<path opacity="0.11102" d="M354.339 74.4307C477.795 78.7419 573.897 203.399 568.666 353.191C563.435 502.983 458.872 620.633 335.415 616.322C211.959 612.01 115.857 487.353 121.088 337.561C126.319 187.769 230.882 70.1195 354.339 74.4307Z" stroke="#ECECEC" stroke-width="1.63648"/>
<path opacity="0.131224" d="M357.953 74.9126C479.687 83.425 570.326 208.845 560.081 355.351C549.836 501.857 442.624 613.442 320.891 604.93C199.157 596.417 108.518 470.997 118.763 324.491C129.008 177.985 236.22 66.4001 357.953 74.9126Z" stroke="#ECECEC" stroke-width="1.63648"/>
<path opacity="0.151429" d="M361.165 75.6914C481.035 88.2902 566.276 214.247 551.241 357.303C536.205 500.359 426.638 605.841 306.769 593.242C186.899 580.643 101.658 454.686 116.693 311.63C131.729 168.574 241.296 63.0925 361.165 75.6914Z" stroke="#ECECEC" stroke-width="1.63648"/>
<path opacity="0.171633" d="M363.966 76.7443C481.838 93.31 561.755 219.583 542.156 359.036C522.557 498.49 410.93 597.843 293.059 581.277C175.187 564.712 95.2701 438.439 114.869 298.985C134.468 159.531 246.095 60.1785 363.966 76.7443Z" stroke="#ECECEC" stroke-width="1.63648"/>
<path opacity="0.191837" d="M366.347 78.0524C482.091 98.4612 556.766 224.835 532.837 360.546C508.907 496.257 395.513 589.468 279.769 569.059C164.025 548.651 89.3489 422.277 113.278 286.566C137.208 150.855 250.603 57.6436 366.347 78.0524Z" stroke="#ECECEC" stroke-width="1.63648"/>
<path opacity="0.212041" d="M368.299 79.5937C481.793 103.718 551.319 229.984 523.295 361.823C495.272 493.661 380.401 580.733 266.906 556.609C153.412 532.485 83.8867 406.219 111.91 274.38C139.933 142.541 254.805 55.4698 368.299 79.5937Z" stroke="#ECECEC" stroke-width="1.63648"/>
<path opacity="0.232245" d="M369.817 81.3466C480.945 109.054 545.419 235.01 513.542 362.86C481.666 490.71 365.606 571.654 254.478 543.947C143.35 516.239 78.8757 390.283 110.752 262.433C142.629 134.583 258.689 53.6392 369.817 81.3466Z" stroke="#ECECEC" stroke-width="1.63648"/>
<path opacity="0.252449" d="M370.896 83.2883C479.548 114.444 539.077 239.895 503.591 363.651C468.104 487.407 351.142 562.249 242.489 531.094C133.837 499.938 74.3079 374.487 109.794 250.731C145.281 126.976 262.243 52.1328 370.896 83.2883Z" stroke="#ECECEC" stroke-width="1.63648"/>
<path opacity="0.272653" d="M371.53 85.3986C477.603 119.864 532.302 244.622 493.452 364.19C454.601 483.759 337.018 552.539 230.945 518.074C124.872 483.609 70.1737 358.851 109.024 239.282C147.874 119.714 265.457 50.9333 371.53 85.3986Z" stroke="#ECECEC" stroke-width="1.63648"/>
<path opacity="0.292857" d="M371.717 87.6546C475.114 125.288 525.103 249.172 483.137 364.473C441.171 479.774 323.246 542.542 219.849 504.908C116.451 467.275 66.4625 343.391 108.429 228.09C150.395 112.789 268.319 50.021 371.717 87.6546Z" stroke="#ECECEC" stroke-width="1.63648"/>
<path opacity="0.313061" d="M371.453 90.0347C472.085 130.693 517.491 253.529 472.659 364.493C427.826 475.458 309.834 532.277 209.202 491.619C108.57 450.961 63.1636 328.125 107.996 217.16C152.829 106.196 270.821 49.3768 371.453 90.0347Z" stroke="#ECECEC" stroke-width="1.63648"/>
<path opacity="0.333265" d="M370.738 92.5164C468.521 136.052 509.48 257.675 462.031 364.247C414.582 470.819 296.792 521.762 199.009 478.227C101.225 434.691 60.2668 313.068 107.716 206.496C155.164 99.9241 272.955 48.9805 370.738 92.5164Z" stroke="#ECECEC" stroke-width="1.63648"/>
<path opacity="0.353469" d="M369.57 95.078C464.428 141.344 501.078 261.596 451.264 363.731C401.45 465.865 284.125 511.02 189.267 464.754C94.4084 418.489 57.7584 298.236 107.573 196.102C157.387 93.967 274.712 48.8125 369.57 95.078Z" stroke="#ECECEC" stroke-width="1.63648"/>
<path opacity="0.373673" d="M367.95 97.6984C459.814 146.543 492.3 265.277 440.371 362.942C388.441 460.607 271.841 500.069 179.977 451.224C88.1126 402.379 55.6262 283.646 107.556 185.981C159.485 88.3158 276.086 48.8534 367.95 97.6984Z" stroke="#ECECEC" stroke-width="1.63648"/>
<path opacity="0.393878" d="M365.879 100.356C454.686 151.629 483.159 268.702 429.364 361.877C375.569 455.052 259.945 488.931 171.137 437.658C82.3299 386.385 53.857 269.312 107.652 176.136C161.446 82.9612 277.071 49.0829 365.879 100.356Z" stroke="#ECECEC" stroke-width="1.63648"/>
<path opacity="0.414082" d="M363.36 103.027C449.055 156.576 473.669 271.857 418.257 360.534C362.845 449.211 248.442 477.624 162.746 424.075C77.0514 370.527 52.4374 255.246 107.849 166.569C163.261 77.8921 277.665 49.4792 363.36 103.027Z" stroke="#ECECEC" stroke-width="1.63648"/>
<path opacity="0.434286" d="M360.396 105.694C442.93 161.364 463.844 274.729 407.062 358.911C350.28 443.094 237.335 466.17 154.801 410.5C72.267 354.83 51.353 241.465 108.135 157.282C164.917 73.0998 277.862 50.0235 360.396 105.694Z" stroke="#ECECEC" stroke-width="1.63648"/>
<path opacity="0.45449" d="M356.991 108.331C436.322 165.969 453.699 277.304 395.791 357.007C337.884 436.71 226.628 454.589 147.296 396.951C67.9648 339.313 50.5882 227.978 108.496 148.275C166.403 68.572 277.659 50.6936 356.991 108.331Z" stroke="#ECECEC" stroke-width="1.63648"/>
<path opacity="0.474694" d="M353.149 110.923C429.244 170.375 443.249 279.574 384.457 354.824C325.665 430.074 216.321 442.903 140.227 383.452C64.1329 324 50.128 214.801 108.92 139.551C167.711 64.301 277.055 51.4722 353.149 110.923Z" stroke="#ECECEC" stroke-width="1.63648"/>
<path opacity="0.494898" d="M348.879 113.444C421.708 174.555 432.51 281.522 373.072 352.357C313.635 423.192 206.417 431.129 133.588 370.018C60.7592 308.908 49.957 201.94 109.395 131.105C168.832 60.2704 276.05 52.3338 348.879 113.444Z" stroke="#ECECEC" stroke-width="1.63648"/>
<path opacity="0.515102" d="M344.186 115.879C413.728 178.495 421.498 283.143 361.649 349.612C301.8 416.081 196.914 419.291 127.372 356.675C57.8293 294.059 50.0587 189.412 109.908 122.943C169.757 56.4736 274.643 53.263 344.186 115.879Z" stroke="#ECECEC" stroke-width="1.63648"/>
<path opacity="0.535306" d="M339.077 118.205C405.318 182.173 410.23 284.423 350.2 346.586C290.17 408.749 187.811 407.408 121.57 343.44C55.3287 279.471 50.4164 177.222 110.447 115.059C170.477 52.8955 272.836 54.2364 339.077 118.205Z" stroke="#ECECEC" stroke-width="1.63648"/>
<path opacity="0.55551" d="M333.562 120.403C396.494 185.572 398.723 285.355 338.737 343.282C278.751 401.21 179.107 395.5 116.175 330.332C53.2422 265.163 51.0133 165.38 110.999 107.453C170.985 49.5249 270.629 55.2348 333.562 120.403Z" stroke="#ECECEC" stroke-width="1.63648"/>
<path opacity="0.575714" d="M327.65 122.456C387.273 188.673 386.994 285.929 327.273 339.703C267.552 393.476 170.799 383.587 111.177 317.369C51.5542 251.152 51.8326 153.896 111.554 100.122C171.275 46.349 268.028 56.2382 327.65 122.456Z" stroke="#ECECEC" stroke-width="1.63648"/>
<path opacity="0.595918" d="M321.352 124.344C377.67 191.461 375.061 286.139 315.819 335.849C256.577 385.559 162.883 371.688 106.565 304.571C50.2475 237.454 52.8565 142.775 112.099 93.0653C171.341 43.3553 265.034 57.2267 321.352 124.344Z" stroke="#ECECEC" stroke-width="1.63648"/>
<path opacity="0.616122" d="M314.678 126.05C367.703 193.918 362.94 285.978 304.386 331.726C245.831 377.473 155.354 359.823 102.329 291.955C49.3045 224.086 54.067 132.026 112.621 86.2785C171.176 40.5308 261.653 58.181 314.678 126.05Z" stroke="#ECECEC" stroke-width="1.63648"/>
<path opacity="0.636327" d="M307.64 127.557C357.39 196.032 350.651 285.44 292.986 327.335C235.322 369.231 148.207 348.012 98.4574 279.537C48.7075 211.062 55.4465 121.654 113.111 79.7583C170.776 37.8625 257.89 59.0819 307.64 127.557Z" stroke="#ECECEC" stroke-width="1.63648"/>
<path opacity="0.656531" d="M300.251 128.849C346.75 197.787 338.211 284.52 281.631 322.684C225.051 360.847 141.435 336.274 94.9363 267.336C48.4373 198.398 56.9763 111.665 113.556 73.5019C170.136 35.3384 253.752 59.9118 300.251 128.849Z" stroke="#ECECEC" stroke-width="1.63648"/>
<path opacity="0.676735" d="M292.524 129.909C335.803 199.169 325.639 283.212 270.332 317.772C215.025 352.332 135.032 324.624 91.7537 255.365C48.4755 186.105 58.6391 102.062 113.946 67.5023C169.253 32.9426 249.246 60.6497 292.524 129.909Z" stroke="#ECECEC" stroke-width="1.63648"/>
<path opacity="0.696939" d="M284.473 130.724C324.567 200.167 312.953 281.515 259.098 312.608C205.244 343.7 128.988 313.084 88.8948 243.641C48.8014 174.197 60.4153 92.8497 114.27 61.7569C168.124 30.664 244.38 61.2799 284.473 130.724Z" stroke="#8E1919" stroke-width="1.63648"/>
<path opacity="0.717143" d="M276.113 131.277C294.565 165.981 300.598 203.039 295.47 234.882C290.341 266.725 274.067 293.304 247.942 307.196C221.816 321.087 190.68 319.716 161.414 306.161C132.147 292.606 104.798 266.882 86.3456 232.178C67.8934 197.475 61.8605 160.417 66.9888 128.573C72.117 96.7306 88.3911 70.1511 114.517 56.2599C140.642 42.3686 171.778 43.7399 201.045 57.2947C230.312 70.8497 257.661 96.5737 276.113 131.277Z" stroke="#8E1919" stroke-width="1.63648"/>
<path opacity="0.737347" d="M267.458 131.556C284.36 166.211 289.344 202.581 283.775 233.352C278.206 264.123 262.102 289.235 236.872 301.541C211.641 313.847 181.938 311.076 154.261 296.52C126.584 281.964 100.993 255.645 84.0905 220.99C67.1881 186.335 62.204 149.965 67.7731 119.194C73.3423 88.4223 89.4464 63.31 114.677 51.0044C139.907 38.6987 169.61 41.4692 197.287 56.0254C224.964 70.5813 250.555 96.9005 267.458 131.556Z" stroke="#8E1919" stroke-width="1.63648"/>
<path opacity="0.757551" d="M258.524 131.546C273.903 166.088 277.894 201.744 271.952 231.451C266.009 261.161 250.155 284.85 225.898 295.65C201.642 306.45 173.429 302.381 147.374 286.917C121.32 271.455 97.4932 244.631 82.1143 210.089C66.7354 175.548 62.7449 139.892 68.6871 110.184C74.6298 80.474 90.4836 56.7848 114.74 45.9851C138.997 35.1853 167.21 39.2547 193.265 54.7184C219.318 70.1807 243.146 97.0047 258.524 131.546Z" stroke="#8E1919" stroke-width="1.63648"/>
<path opacity="0.777755" d="M249.329 131.237C263.213 165.602 266.266 200.52 260.017 229.177C253.767 257.84 238.241 280.153 215.031 289.53C191.822 298.907 165.153 293.642 140.747 277.365C116.345 261.092 94.2847 233.854 80.4004 199.489C66.516 165.124 63.4633 130.206 69.7123 101.548C75.9624 72.8861 91.4885 50.5727 114.698 41.1956C137.907 31.8184 164.576 37.084 188.982 53.3604C213.384 69.6339 235.444 96.8723 249.329 131.237Z" stroke="#8E1919" stroke-width="1.63648"/>
<path opacity="0.797959" d="M239.887 130.617C252.308 164.744 254.479 198.903 247.988 226.527C241.496 254.159 226.371 275.147 204.279 283.188C182.187 291.229 157.11 284.873 134.375 267.879C111.646 250.89 91.3527 223.327 78.9314 189.2C66.5102 155.073 64.339 120.914 70.8298 93.2905C77.3226 65.6586 92.4469 44.6701 114.539 36.6292C136.631 28.5883 161.708 34.9448 184.443 51.9385C207.172 68.9272 227.466 96.4901 239.887 130.617Z" stroke="#8E1919" stroke-width="1.63648"/>
<path opacity="0.818163" d="M230.217 129.673C241.209 163.503 242.555 196.886 235.886 223.495C229.214 250.117 214.562 269.835 193.652 276.629C172.742 283.423 149.299 276.083 128.252 258.468C107.216 240.86 88.6834 213.062 77.6913 179.232C66.6993 145.402 65.3533 112.019 72.0225 85.41C78.6949 58.7879 93.3466 39.0704 114.257 32.2763C135.167 25.4822 158.61 32.8219 179.656 50.4377C200.692 68.0449 219.225 95.8432 230.217 129.673Z" stroke="#8E1919" stroke-width="1.63648"/>
<path opacity="0.838367" d="M220.337 128.399C229.936 161.875 230.514 194.467 223.728 220.085C216.937 245.721 202.825 264.224 183.157 269.864C163.489 275.504 141.717 267.29 122.372 249.148C103.042 231.019 86.261 203.073 76.6619 169.597C67.0628 136.122 66.4854 103.53 73.2713 77.9121C80.0623 52.2754 94.1741 33.7724 113.842 28.1328C133.51 22.4931 155.282 30.7064 174.627 48.8489C193.957 66.9779 210.738 94.9233 220.337 128.399Z" stroke="#8E1919" stroke-width="1.63648"/>
<path opacity="0.858571" d="M210.264 126.783C218.509 159.85 218.374 191.639 211.532 216.291C204.681 240.97 191.173 258.318 172.803 262.898C154.433 267.478 134.362 258.503 116.727 239.928C99.1122 221.375 84.0692 193.369 75.8247 160.303C67.5802 127.236 67.7148 95.4463 74.5575 70.7944C81.4078 46.1153 94.9162 28.7679 113.286 24.1877C131.656 19.6076 151.727 28.5827 169.362 47.1571C186.977 65.7109 202.02 93.7161 210.264 126.783Z" stroke="#8E1919" stroke-width="1.63648"/>
<path opacity="0.878776" d="M200.017 124.819C206.948 157.425 206.157 188.403 199.316 212.118C192.463 235.871 179.618 252.124 162.597 255.742C145.576 259.36 127.231 249.737 111.309 230.824C95.4135 211.942 82.0914 183.964 75.161 151.358C68.2306 118.753 69.0208 87.7748 75.8625 64.0598C82.7151 40.3067 95.5603 24.0538 112.581 20.4359C129.602 16.818 147.947 26.4412 163.869 45.3535C179.765 64.2354 193.087 92.2143 200.017 124.819Z" stroke="#8E1919" stroke-width="1.63648"/>
<path opacity="0.89898" d="M189.616 122.498C195.275 154.591 193.885 184.753 187.1 207.563C180.3 230.425 168.174 245.646 152.548 248.401C136.922 251.157 120.321 241.001 106.112 221.843C91.9346 202.73 80.3126 174.862 74.6538 142.769C68.9949 110.676 70.3846 80.5136 77.1694 57.7037C83.9698 34.8413 96.096 19.6204 111.722 16.8652C127.348 14.1099 143.948 24.2654 158.158 43.4232C172.335 62.537 183.957 90.4047 189.616 122.498Z" stroke="#8E1919" stroke-width="1.63648"/>
<path opacity="0.919184" d="M179.077 119.814C183.509 151.347 181.575 180.69 174.901 202.63C168.205 224.641 156.849 238.893 142.66 240.887C128.471 242.881 113.627 232.311 101.123 212.998C88.6598 193.749 78.7131 166.075 74.2814 134.542C69.8497 103.009 71.7833 73.6661 78.4576 51.7266C85.1537 29.7157 96.5092 15.4632 110.699 13.4691C124.888 11.4749 139.732 22.0452 152.236 41.3577C164.699 60.6076 174.646 88.2811 179.077 119.814Z" stroke="#8E1919" stroke-width="1.63648"/>
<path opacity="0.939388" d="M168.423 116.762C171.673 147.69 169.251 176.214 162.738 197.321C159.481 207.876 155.214 216.536 150.155 222.714C145.1 228.889 139.295 232.54 132.942 233.208C126.589 233.876 120.152 231.511 113.923 226.522C107.691 221.531 101.716 213.947 96.3357 204.3C85.577 185.009 77.2771 157.611 74.0265 126.684C70.7759 95.7564 73.1982 67.2319 79.7109 46.1255C82.9677 35.5707 87.2354 26.9104 92.2937 20.732C97.349 14.5574 103.154 10.906 109.507 10.2382C115.86 9.57048 122.297 11.9353 128.526 16.9239C134.758 21.9155 140.733 29.4993 146.113 39.1463C156.872 58.4374 165.172 85.835 168.423 116.762Z" stroke="#8E1919" stroke-width="1.63648"/>
<path opacity="0.959592" d="M157.67 113.338C159.787 143.617 156.931 171.327 150.629 191.64C147.477 201.799 143.476 210.066 138.84 215.879C134.204 221.691 128.991 224.982 123.399 225.373C117.807 225.765 112.186 223.23 106.787 218.12C101.387 213.009 96.2744 205.38 91.7392 195.758C82.6712 176.519 75.986 149.477 73.8687 119.198C71.7513 88.9192 74.608 61.21 80.9103 40.8968C84.0623 30.7375 88.0631 22.4706 92.6993 16.658C97.3349 10.8461 102.548 7.55421 108.14 7.16317C113.732 6.77213 119.353 9.30651 124.752 14.4167C130.152 19.5275 135.264 27.1571 139.8 36.7788C148.868 56.0173 155.553 83.0592 157.67 113.338Z" stroke="#8E1919" stroke-width="1.63648"/>
<path opacity="0.979796" d="M146.841 109.538C147.874 139.128 144.637 166.028 138.591 185.591C135.567 195.376 131.854 203.28 127.657 208.766C123.455 214.257 118.85 217.225 114.037 217.393C109.224 217.561 104.423 214.922 99.8484 209.737C95.2786 204.558 91.0233 196.932 87.3241 187.381C79.9285 168.288 74.8225 141.679 73.7892 112.089C72.7559 82.4986 75.9933 55.5987 82.039 36.0362C85.063 26.251 88.776 18.3466 92.9734 12.8613C97.1753 7.37007 101.78 4.40245 106.593 4.23438C111.406 4.06631 116.207 6.70547 120.782 11.8902C125.351 17.0694 129.607 24.6955 133.306 34.2459C140.702 53.339 145.808 79.9476 146.841 109.538Z" stroke="#8E1919" stroke-width="1.63648"/>
<path d="M135.953 105.359C135.953 134.223 132.387 160.323 126.642 179.179C123.767 188.613 120.362 196.187 116.617 201.385C112.859 206.602 108.875 209.276 104.86 209.276C100.844 209.276 96.8605 206.602 93.1022 201.385C89.3578 196.187 85.9518 188.613 83.0776 179.179C77.3322 160.323 73.7665 134.223 73.7665 105.359C73.7665 76.4948 77.3322 50.3952 83.0776 31.5386C85.9518 22.1053 89.3578 14.5309 93.1022 9.33287C96.8605 4.1157 100.844 1.44226 104.86 1.44226C108.875 1.44226 112.859 4.1157 116.617 9.33287C120.362 14.5309 123.767 22.1053 126.642 31.5386C132.387 50.3952 135.953 76.4948 135.953 105.359Z" stroke="#8E1919" stroke-width="1.63648"/>
</g>
</svg>
