<svg width="741" height="710" viewBox="0 0 741 710" fill="none" xmlns="http://www.w3.org/2000/svg">
<g opacity="0.4">
<path opacity="0.01" fill-rule="evenodd" clip-rule="evenodd" d="M287.38 493.7C309.475 484.435 331.197 475.68 352.137 461.237C376.329 444.552 401.697 426.844 417.857 403.711C434.926 379.274 446.343 351.587 443.66 330.215C441.027 309.246 420.899 300.206 403.637 290.456C388.704 282.023 370.07 279.188 350.346 277.511C330.519 275.825 310.492 275.345 287.966 280.622C261.662 286.784 225.823 286.333 208.799 310.67C188.568 339.592 229.452 358.038 213.093 387.658C196.388 417.906 135.327 428.879 127.074 458.649C119.915 484.473 168.594 472.368 186.578 483.309C200.814 491.97 202.313 514.079 221.423 516.049C240.583 518.024 264.941 503.11 287.38 493.7Z" stroke="#F1F8F6" stroke-width="0.494104"/>
<path opacity="0.0168067" fill-rule="evenodd" clip-rule="evenodd" d="M292.347 489.227C314.433 479.643 336.154 470.571 356.968 455.875C381.013 438.897 406.224 420.883 422.036 397.658C438.739 373.124 449.674 345.47 446.523 324.331C443.431 303.591 422.947 294.993 405.337 285.64C390.105 277.549 371.256 275.075 351.332 273.77C331.305 272.457 311.1 272.343 288.496 277.982C262.102 284.566 225.954 284.766 209.295 309.2C189.498 338.238 231.108 355.785 215.23 385.445C199.016 415.733 137.674 427.716 129.973 457.377C123.293 483.107 172.125 470.227 190.487 480.748C205.023 489.077 206.995 510.968 226.306 512.575C245.666 514.187 269.916 498.961 292.347 489.227Z" stroke="#F1F8F6" stroke-width="0.494104"/>
<path opacity="0.0252101" fill-rule="evenodd" clip-rule="evenodd" d="M297.265 484.77C319.335 474.87 341.048 465.483 361.729 450.537C385.622 433.272 410.668 414.958 426.128 391.648C442.458 367.024 452.908 339.412 449.29 318.513C445.74 298.008 424.906 289.855 406.954 280.9C391.426 273.155 372.368 271.043 352.251 270.109C332.03 269.17 311.654 269.422 288.979 275.421C262.501 282.425 226.056 283.277 209.768 307.801C190.411 336.945 232.733 353.589 217.341 383.279C201.623 413.599 140.019 426.586 132.872 456.13C126.672 481.759 175.643 468.107 194.378 478.205C209.209 486.2 211.653 507.865 231.159 509.11C250.715 510.357 274.85 494.825 297.265 484.77Z" stroke="#F1F8F6" stroke-width="0.494104"/>
<path opacity="0.0336134" fill-rule="evenodd" clip-rule="evenodd" d="M302.133 480.336C324.181 470.122 345.879 460.424 366.421 445.234C390.153 427.686 415.026 409.078 430.129 385.69C446.083 360.984 456.045 333.422 451.961 312.768C447.954 292.505 426.776 284.799 408.488 276.247C392.669 268.849 373.408 267.1 353.104 266.538C332.694 265.972 312.153 266.591 289.414 272.947C262.861 280.369 226.13 281.873 210.217 306.479C191.306 335.721 234.328 351.456 219.427 381.168C204.209 411.509 142.362 425.498 135.771 454.916C130.054 480.435 179.149 466.016 198.251 475.688C213.372 483.345 216.288 504.779 235.982 505.66C255.727 506.544 279.74 490.71 302.133 480.336Z" stroke="#F1F8F6" stroke-width="0.494104"/>
<path opacity="0.0420168" fill-rule="evenodd" clip-rule="evenodd" d="M306.953 475.925C328.972 465.401 350.649 455.395 371.047 439.965C394.611 422.139 419.304 403.243 434.045 379.783C449.617 355.003 459.087 327.499 454.539 307.098C450.076 287.082 428.561 279.826 409.942 271.678C393.837 264.63 374.379 263.245 353.893 263.054C333.301 262.862 312.602 263.847 289.806 270.559C263.186 278.397 226.18 280.552 210.647 305.233C192.187 334.564 235.897 349.385 221.49 379.109C206.778 409.463 144.706 424.449 138.674 453.732C133.441 479.133 182.645 463.952 202.108 473.195C217.514 480.512 220.902 501.708 240.779 502.226C260.707 502.745 284.59 486.613 306.953 475.925Z" stroke="#F1F8F6" stroke-width="0.494104"/>
<path opacity="0.0504202" fill-rule="evenodd" clip-rule="evenodd" d="M311.724 471.535C333.707 460.704 355.357 450.392 375.603 434.727C398.992 416.63 423.497 397.45 437.872 373.928C453.057 349.08 462.034 321.642 457.022 301.5C452.105 281.738 430.259 274.934 411.315 267.193C394.928 260.497 375.279 259.475 354.619 259.657C333.851 259.839 313 261.189 290.153 268.255C263.475 276.507 226.204 279.311 211.056 304.06C193.054 333.471 237.437 347.374 223.53 377.102C209.328 407.459 147.05 423.437 141.578 452.576C136.83 477.852 186.129 461.912 205.946 470.724C221.634 477.7 225.492 498.651 245.545 498.805C265.651 498.959 289.396 482.535 311.724 471.535Z" stroke="#F1F8F6" stroke-width="0.494104"/>
<path opacity="0.0588235" fill-rule="evenodd" clip-rule="evenodd" d="M316.445 467.171C338.387 456.036 360.002 445.422 380.09 429.527C403.297 411.163 427.607 391.707 441.612 368.127C456.406 343.22 464.885 315.858 459.412 295.98C454.042 276.478 431.872 270.127 412.608 262.796C395.945 256.454 376.111 255.796 355.282 256.349C334.345 256.905 313.348 258.621 290.458 266.039C263.729 274.701 226.206 278.156 211.447 302.964C193.908 332.446 238.951 345.426 225.547 375.148C211.86 405.5 149.395 422.466 144.484 451.451C140.224 476.595 189.602 459.902 209.769 468.279C225.733 474.911 230.059 495.611 250.283 495.401C270.559 495.19 294.161 478.48 316.445 467.171Z" stroke="#F1F8F6" stroke-width="0.494104"/>
<path opacity="0.0672269" fill-rule="evenodd" clip-rule="evenodd" d="M321.117 462.833C343.009 451.398 364.584 440.486 384.508 424.364C407.526 405.74 431.633 386.012 445.264 362.384C459.662 337.425 467.642 310.145 461.709 290.539C455.887 271.302 433.4 265.407 413.823 258.487C396.889 252.502 376.875 252.208 355.884 253.133C334.783 254.063 313.647 256.143 290.721 263.911C263.949 272.981 226.185 277.084 211.821 301.945C194.749 331.489 240.439 343.542 227.543 373.25C214.374 403.586 151.742 421.534 147.394 450.358C143.622 475.361 193.064 457.92 213.574 465.86C229.809 472.146 234.603 492.589 254.992 492.015C275.432 491.44 298.883 474.447 321.117 462.833Z" stroke="#F1F8F6" stroke-width="0.494104"/>
<path opacity="0.0756303" fill-rule="evenodd" clip-rule="evenodd" d="M325.742 458.519C347.579 446.787 369.106 435.579 388.86 419.237C411.682 400.357 435.579 380.365 448.831 356.694C462.829 331.69 470.307 304.503 463.916 285.173C457.645 266.208 434.847 260.771 414.962 254.264C397.762 248.637 377.576 248.708 356.429 250.004C335.171 251.307 313.902 253.751 290.946 261.866C264.14 271.342 226.147 276.092 212.18 300.997C195.583 330.595 241.904 341.718 229.52 371.402C216.873 401.714 154.093 420.639 150.31 449.292C147.028 474.147 196.518 455.963 217.364 463.464C233.866 469.402 239.126 489.581 259.673 488.644C280.273 487.704 303.564 470.434 325.742 458.519Z" stroke="#F1F8F6" stroke-width="0.494104"/>
<path opacity="0.0840336" fill-rule="evenodd" clip-rule="evenodd" d="M330.317 454.231C352.091 442.206 373.564 430.705 393.143 414.147C415.762 395.018 439.441 374.767 452.31 351.061C465.904 326.021 472.878 298.933 466.03 279.886C459.312 261.199 436.21 256.22 416.024 250.13C398.563 244.861 378.21 245.297 356.913 246.964C335.506 248.64 314.11 251.448 291.131 259.907C264.3 269.786 226.088 275.182 212.524 300.124C196.405 329.765 243.345 339.955 231.476 369.606C219.355 399.885 156.446 419.781 153.228 448.254C150.437 472.954 199.962 454.032 221.138 461.092C237.901 466.68 243.626 486.59 264.324 485.289C285.076 483.985 308.202 466.444 330.317 454.231Z" stroke="#F1F8F6" stroke-width="0.494104"/>
<path opacity="0.092437" fill-rule="evenodd" clip-rule="evenodd" d="M334.843 449.967C356.548 437.652 377.961 425.863 397.358 409.094C419.767 389.722 443.222 369.217 455.704 345.484C468.889 320.415 475.357 293.435 468.055 274.677C460.891 256.273 437.493 251.755 417.011 246.082C399.295 241.175 378.78 241.974 357.341 244.012C335.79 246.06 314.274 249.23 291.28 258.033C264.431 268.311 226.013 274.35 212.856 299.322C197.22 328.999 244.764 338.252 233.414 367.861C221.823 398.097 158.803 418.958 156.152 447.244C153.853 471.78 203.396 452.127 224.896 458.742C241.916 463.979 248.103 483.613 268.947 481.95C289.845 480.282 312.799 462.474 334.843 449.967Z" stroke="#F1F8F6" stroke-width="0.494104"/>
<path opacity="0.10084" fill-rule="evenodd" clip-rule="evenodd" d="M339.323 445.732C360.953 433.132 382.298 421.057 401.507 404.083C423.699 384.474 446.923 363.722 459.015 339.969C471.787 314.878 477.746 288.015 469.992 269.55C462.385 251.435 438.698 247.379 417.927 242.125C399.96 237.581 379.292 238.744 357.716 241.152C336.028 243.572 314.398 247.104 291.396 256.245C264.537 266.92 225.924 273.602 213.178 298.596C198.03 328.298 246.163 336.612 235.336 366.17C224.279 396.354 161.168 418.174 159.084 446.263C157.277 470.628 206.824 450.25 228.641 456.419C245.912 461.303 252.56 480.656 273.544 478.63C294.581 476.599 317.355 458.53 339.323 445.732Z" stroke="#F1F8F6" stroke-width="0.494104"/>
<path opacity="0.109244" fill-rule="evenodd" clip-rule="evenodd" d="M343.753 441.528C365.301 428.645 386.573 416.289 405.589 399.114C427.557 379.273 450.542 358.281 462.239 334.515C474.596 309.41 480.044 282.671 471.841 264.507C463.793 246.686 439.823 243.093 418.77 238.26C400.559 234.08 379.742 235.607 358.036 238.384C336.217 241.175 314.481 245.067 291.478 254.546C264.617 265.614 225.821 272.935 213.489 297.944C198.834 327.663 247.542 335.035 237.241 364.533C226.72 394.656 163.538 417.428 162.022 445.311C160.708 469.499 210.243 448.401 232.371 454.123C249.888 458.652 256.995 477.717 278.111 475.33C299.282 472.936 321.869 454.612 343.753 441.528Z" stroke="#F1F8F6" stroke-width="0.494104"/>
<path opacity="0.117647" fill-rule="evenodd" clip-rule="evenodd" d="M348.136 437.347C369.595 424.187 390.787 411.553 409.603 394.183C431.341 374.117 454.08 352.891 465.38 329.118C477.317 304.007 482.253 277.401 473.603 259.542C465.116 242.02 440.872 238.892 419.542 234.482C401.091 230.667 380.133 232.557 358.304 235.702C336.361 238.864 314.525 243.115 291.527 252.927C264.672 264.385 225.706 272.345 213.792 297.36C199.634 327.087 248.903 333.515 239.13 362.944C229.15 392.996 165.914 416.714 164.967 444.383C164.146 468.386 213.655 446.575 236.087 451.847C253.845 456.021 261.408 474.792 282.651 472.044C303.948 469.288 326.342 450.714 348.136 437.347Z" stroke="#F1F8F6" stroke-width="0.494104"/>
<path opacity="0.12605" fill-rule="evenodd" clip-rule="evenodd" d="M352.47 433.198C373.834 419.763 394.939 406.856 413.551 389.296C435.052 369.01 457.538 347.557 468.437 323.786C479.949 298.676 484.373 272.211 475.278 254.663C466.355 237.446 441.843 234.783 420.243 230.796C401.559 227.348 380.465 229.6 358.52 233.113C336.46 236.644 314.53 241.253 291.545 251.396C264.705 263.24 225.579 271.836 214.088 296.85C200.431 326.576 250.245 332.057 241.003 361.409C231.566 391.382 168.298 416.037 167.92 443.484C167.592 467.294 217.06 444.776 239.789 449.598C257.781 453.414 265.799 471.887 287.162 468.778C308.579 465.661 330.773 446.843 352.47 433.198Z" stroke="#F1F8F6" stroke-width="0.494104"/>
<path opacity="0.134454" fill-rule="evenodd" clip-rule="evenodd" d="M356.758 429.079C378.019 415.374 399.031 402.197 417.432 384.452C438.69 363.953 460.917 342.279 471.411 318.516C482.496 293.415 486.405 267.1 476.869 249.867C467.512 232.961 442.74 230.764 420.878 227.202C401.966 224.121 380.743 226.736 358.687 230.615C336.517 234.514 314.5 239.48 291.534 249.951C264.718 262.177 225.445 271.406 214.379 296.411C201.228 326.127 251.571 330.66 242.864 359.925C233.973 389.809 170.691 415.395 170.882 442.612C171.047 466.222 220.458 443.005 243.478 447.373C261.7 450.832 270.17 469 291.646 465.531C313.177 462.054 335.164 442.998 356.758 429.079Z" stroke="#F1F8F6" stroke-width="0.494104"/>
<path opacity="0.142857" fill-rule="evenodd" clip-rule="evenodd" d="M360.996 424.991C382.149 411.021 403.062 397.578 421.247 379.654C442.255 358.948 464.215 337.059 474.301 313.313C484.956 288.229 488.349 262.07 478.374 245.159C468.587 228.567 443.562 226.837 421.443 223.702C402.309 220.989 380.963 223.965 358.805 228.209C336.531 232.475 314.434 237.796 291.495 248.591C264.709 261.197 225.301 271.056 214.663 296.045C202.022 325.741 252.88 329.326 244.711 358.494C236.369 388.281 173.091 414.79 173.851 441.768C174.51 465.17 223.85 441.261 247.152 445.176C265.598 448.275 274.517 466.133 296.1 462.306C317.739 458.47 339.512 439.18 360.996 424.991Z" stroke="#F1F8F6" stroke-width="0.494104"/>
<path opacity="0.151261" fill-rule="evenodd" clip-rule="evenodd" d="M365.19 420.933C386.228 406.701 407.035 392.996 424.998 374.899C445.75 353.992 467.437 331.896 477.113 308.172C487.334 283.112 490.209 257.118 479.799 240.534C469.585 224.263 444.315 223 421.946 220.291C402.596 217.948 381.134 221.284 358.879 225.892C336.508 230.524 314.337 236.198 291.432 247.315C264.686 260.296 225.154 270.782 214.949 295.747C202.821 325.415 254.178 328.049 246.549 357.113C238.758 386.793 175.505 414.216 176.833 440.947C177.985 464.136 227.238 439.541 250.817 443.001C269.481 445.74 278.847 463.282 300.531 459.098C322.27 454.904 343.822 435.388 365.19 420.933Z" stroke="#F1F8F6" stroke-width="0.494104"/>
<path opacity="0.159664" fill-rule="evenodd" clip-rule="evenodd" d="M369.336 416.905C390.253 402.415 410.948 388.453 428.684 370.187C449.173 349.086 470.581 326.789 479.843 303.095C489.626 278.067 491.984 252.246 481.141 235.994C470.503 220.048 444.996 219.253 422.384 216.972C402.823 214.999 381.252 218.694 358.907 223.664C336.446 228.66 314.209 234.686 291.344 246.121C264.645 259.473 225.002 270.583 215.232 295.517C203.622 325.147 255.462 326.83 248.375 355.781C241.137 385.345 177.928 413.675 179.825 440.15C181.47 463.117 230.621 437.845 254.468 440.849C273.346 443.226 283.156 460.448 304.933 455.908C326.766 451.357 348.091 431.62 369.336 416.905Z" stroke="#F1F8F6" stroke-width="0.494104"/>
<path opacity="0.168067" fill-rule="evenodd" clip-rule="evenodd" d="M373.436 412.91C394.226 398.168 414.803 383.952 432.306 365.524C452.526 344.235 473.648 321.743 482.493 298.087C491.837 273.099 493.676 247.458 482.404 231.543C471.344 215.927 445.608 215.6 422.759 213.747C402.995 212.145 381.32 216.198 358.893 221.529C336.349 226.888 314.051 233.264 291.234 245.013C264.591 258.733 224.849 270.462 215.517 295.357C204.427 324.942 256.735 325.673 250.192 354.502C243.51 383.941 180.365 413.168 182.829 439.38C184.966 462.119 234.001 436.177 258.109 438.723C277.194 440.739 287.445 457.634 309.309 452.74C331.229 447.834 352.321 427.882 373.436 412.91Z" stroke="#F1F8F6" stroke-width="0.494104"/>
<path opacity="0.176471" fill-rule="evenodd" clip-rule="evenodd" d="M377.488 408.948C398.145 393.957 418.597 379.492 435.862 360.907C455.807 339.437 476.636 316.758 485.062 293.147C493.963 268.206 495.283 242.754 483.585 227.179C472.108 211.899 446.15 212.04 423.072 210.616C403.109 209.385 381.338 213.794 358.835 219.485C336.214 225.205 313.864 231.929 291.101 243.989C264.522 258.071 224.692 270.418 215.801 295.266C205.236 324.796 257.995 324.575 251.999 353.272C245.875 382.578 182.811 412.694 185.842 438.635C188.472 461.138 237.375 434.534 261.738 436.623C281.023 438.276 291.712 454.84 313.656 449.593C335.657 444.333 356.509 424.173 377.488 408.948Z" stroke="#F1F8F6" stroke-width="0.494104"/>
<path opacity="0.184874" fill-rule="evenodd" clip-rule="evenodd" d="M381.495 405.019C402.011 389.785 422.332 375.075 439.354 356.339C459.018 334.693 479.548 311.834 487.552 288.275C496.007 263.389 496.808 238.133 484.688 222.904C472.796 207.964 446.625 208.572 423.325 207.578C403.17 206.719 381.309 211.483 358.737 217.532C336.047 223.611 313.65 230.681 290.949 243.048C264.441 257.489 224.536 270.449 216.089 295.243C206.051 324.708 259.246 323.536 253.797 352.094C248.233 381.256 185.271 412.251 188.868 437.914C191.989 460.175 240.745 432.917 265.355 434.547C284.836 435.837 295.959 452.065 317.977 446.467C340.052 440.854 360.658 420.491 381.495 405.019Z" stroke="#F1F8F6" stroke-width="0.494104"/>
<path opacity="0.193277" fill-rule="evenodd" clip-rule="evenodd" d="M385.457 401.124C405.827 385.65 426.011 370.701 442.784 351.819C462.161 330.005 482.386 306.973 489.966 283.472C497.973 258.648 498.254 233.596 485.715 218.719C473.413 204.122 447.036 205.199 423.521 204.635C403.18 204.147 381.236 209.265 358.602 215.669C335.849 222.107 313.412 229.52 290.78 242.191C264.351 256.986 224.384 270.555 216.383 295.288C206.875 324.679 260.49 322.555 255.591 350.964C250.588 379.975 187.747 411.841 191.909 437.216C195.52 459.228 244.115 431.324 268.964 432.496C288.634 433.423 300.188 449.309 322.273 443.361C344.415 437.398 364.769 416.839 385.457 401.124Z" stroke="#F1F8F6" stroke-width="0.494104"/>
<path opacity="0.201681" fill-rule="evenodd" clip-rule="evenodd" d="M389.372 397.263C409.59 381.555 429.631 366.37 446.15 347.348C465.234 325.373 485.148 302.174 492.301 278.74C499.857 253.986 499.619 229.145 486.665 214.623C473.956 200.375 447.382 201.919 423.658 201.785C403.137 201.669 381.117 207.14 358.427 213.898C335.619 220.691 313.15 228.446 290.592 241.416C264.252 256.561 224.234 270.735 216.682 295.398C207.707 324.707 261.725 321.633 257.377 349.885C252.938 378.735 190.236 411.461 194.962 436.542C199.061 458.298 247.48 429.757 272.561 430.469C292.415 431.033 304.396 446.573 326.542 440.277C348.744 433.966 368.839 413.216 389.372 397.263Z" stroke="#F1F8F6" stroke-width="0.494104"/>
<path opacity="0.210084" fill-rule="evenodd" clip-rule="evenodd" d="M393.243 393.437C413.302 377.499 433.194 362.083 449.454 342.927C468.24 320.797 487.836 297.439 494.561 274.078C501.664 249.401 500.906 224.78 487.541 210.618C474.429 196.723 447.665 198.734 423.741 199.03C403.047 199.285 380.957 205.107 358.218 212.217C335.361 219.363 312.866 227.457 290.391 240.723C264.146 256.213 224.09 270.988 216.989 295.575C208.55 324.793 262.955 320.768 259.16 348.854C255.284 377.536 192.742 411.112 198.029 435.89C202.616 457.384 250.844 428.215 276.149 428.468C296.181 428.668 308.586 443.856 330.785 437.215C353.041 430.556 372.871 409.623 393.243 393.437Z" stroke="#F1F8F6" stroke-width="0.494104"/>
<path opacity="0.218487" fill-rule="evenodd" clip-rule="evenodd" d="M397.07 389.644C416.964 373.482 436.7 357.84 452.697 338.555C471.178 316.277 490.451 292.766 496.745 269.486C503.393 244.895 502.115 220.5 488.344 206.701C474.833 193.164 447.888 195.641 423.77 196.367C402.908 196.995 380.755 203.165 357.975 210.624C335.076 218.122 312.562 226.553 290.176 240.11C264.036 255.941 223.953 271.312 217.305 295.814C209.405 324.932 264.179 319.959 260.938 347.871C257.628 376.374 195.264 410.791 201.112 435.259C206.185 456.484 254.208 426.696 279.729 426.489C299.932 426.325 312.757 441.158 335.003 434.172C357.306 427.169 376.865 406.059 397.07 389.644Z" stroke="#F1F8F6" stroke-width="0.494104"/>
<path opacity="0.226891" fill-rule="evenodd" clip-rule="evenodd" d="M400.853 385.889C420.576 369.507 440.151 353.643 455.879 334.236C474.05 311.817 492.994 288.161 498.855 264.968C505.046 240.469 503.249 216.309 489.076 202.879C475.17 189.702 448.051 192.645 423.747 193.801C402.724 194.8 380.516 201.318 357.701 209.124C334.767 216.971 312.241 225.736 289.95 239.581C263.922 255.747 223.825 271.71 217.633 296.12C210.273 325.129 265.401 319.209 262.715 346.938C259.971 375.255 197.804 410.501 204.211 434.652C209.769 455.602 257.571 425.203 283.301 424.536C303.669 424.008 316.91 438.481 339.196 431.154C361.539 423.809 380.821 402.527 400.853 385.889Z" stroke="#F1F8F6" stroke-width="0.494104"/>
<path opacity="0.235294" fill-rule="evenodd" clip-rule="evenodd" d="M404.59 382.17C424.136 365.573 443.544 349.493 458.999 329.97C476.854 307.415 495.463 283.622 500.889 260.524C506.622 236.125 504.306 212.206 489.734 199.148C475.438 186.337 448.154 189.745 423.672 191.329C402.494 192.7 380.236 199.563 357.394 207.714C334.432 215.908 311.901 225.004 289.713 239.132C263.804 255.629 223.706 272.179 217.97 296.49C211.154 325.381 266.618 318.515 264.487 346.053C262.311 374.175 200.36 410.24 207.323 434.066C213.364 454.734 260.932 423.734 286.863 422.608C307.39 421.717 321.043 435.825 343.362 428.159C365.739 420.473 384.738 399.027 404.59 382.17Z" stroke="#F1F8F6" stroke-width="0.494104"/>
<path opacity="0.243697" fill-rule="evenodd" clip-rule="evenodd" d="M408.284 378.49C427.648 361.684 446.882 345.391 462.059 325.758C479.593 303.076 497.861 279.152 502.852 256.155C508.123 231.864 505.29 208.193 490.325 195.512C475.642 183.07 448.202 186.941 423.548 188.955C402.222 190.697 379.921 197.903 357.058 206.396C334.076 214.934 311.546 224.359 289.468 238.766C263.686 255.588 223.598 272.72 218.322 296.924C212.051 325.689 267.835 317.88 266.26 345.218C264.652 373.136 202.935 410.009 210.454 433.503C216.976 453.884 264.294 422.292 290.418 420.707C311.097 419.452 325.159 433.191 347.504 425.188C369.907 417.164 388.618 395.56 408.284 378.49Z" stroke="#F1F8F6" stroke-width="0.494104"/>
<path opacity="0.252101" fill-rule="evenodd" clip-rule="evenodd" d="M411.936 374.846C431.11 357.834 450.166 341.335 465.06 321.597C482.268 298.794 500.19 274.747 504.742 251.859C509.552 227.682 506.201 204.268 490.847 191.966C475.782 179.897 448.193 184.232 423.376 186.673C401.909 188.786 379.572 196.332 356.695 205.166C333.699 214.045 311.178 223.796 289.215 238.477C263.57 255.62 223.504 273.328 218.688 297.419C212.964 326.048 269.051 317.298 268.033 344.429C266.993 372.134 205.53 409.803 213.601 432.959C220.602 453.045 267.657 420.871 293.966 418.827C314.792 417.21 329.257 430.576 351.622 422.238C374.045 413.878 392.461 392.123 411.936 374.846Z" stroke="#F1F8F6" stroke-width="0.494104"/>
<path opacity="0.260504" fill-rule="evenodd" clip-rule="evenodd" d="M415.544 371.237C434.524 354.026 453.395 337.325 468.002 317.488C484.878 294.572 502.448 270.408 506.562 247.636C510.907 223.581 507.041 200.43 491.302 188.513C475.86 176.82 448.132 181.616 423.158 184.485C401.556 186.967 379.19 194.852 356.306 204.023C333.303 213.241 310.797 223.314 288.958 238.266C263.455 255.724 223.425 274.004 219.07 297.973C213.896 326.458 270.268 316.77 269.807 343.684C269.336 371.168 208.145 409.623 216.766 432.432C224.245 452.219 271.021 419.472 297.507 416.971C318.473 414.99 333.337 427.98 355.715 419.31C378.151 410.617 396.268 388.717 415.544 371.237Z" stroke="#F1F8F6" stroke-width="0.494104"/>
<path opacity="0.268908" fill-rule="evenodd" clip-rule="evenodd" d="M419.11 367.668C437.889 350.263 456.569 333.365 470.885 313.436C487.424 290.412 504.637 266.141 508.31 243.491C512.191 219.566 507.81 196.684 491.691 185.155C475.876 173.843 448.017 179.098 422.895 182.394C401.164 185.245 378.775 193.466 355.892 202.971C332.889 212.525 310.406 222.918 288.695 238.135C263.344 255.904 223.361 274.748 219.469 298.589C214.845 326.921 271.486 316.298 271.582 342.988C271.68 370.243 210.78 409.471 219.948 431.928C227.902 451.407 274.386 418.098 301.04 415.14C322.14 412.798 337.399 425.406 359.783 416.406C382.225 407.383 400.036 385.345 419.11 367.668Z" stroke="#F1F8F6" stroke-width="0.494104"/>
<path opacity="0.277311" fill-rule="evenodd" clip-rule="evenodd" d="M422.635 364.138C441.208 346.544 459.692 329.455 473.712 309.439C489.909 286.315 506.76 261.942 509.992 239.422C513.406 215.634 508.511 193.029 492.018 181.891C475.835 170.962 447.853 176.676 422.59 180.397C400.737 183.616 378.334 192.171 355.457 202.008C332.462 211.895 310.007 222.605 288.433 238.083C263.24 256.156 223.316 275.56 219.889 299.265C215.817 327.436 272.709 315.881 273.362 342.338C274.029 369.356 213.439 409.346 223.151 431.442C231.577 450.609 277.755 416.748 304.57 413.333C325.797 410.63 341.446 422.854 363.829 413.527C386.27 404.176 403.771 382.007 422.635 364.138Z" stroke="#F1F8F6" stroke-width="0.494104"/>
<path opacity="0.285714" fill-rule="evenodd" clip-rule="evenodd" d="M426.117 360.648C444.479 342.871 462.76 325.595 476.48 305.499C492.33 282.283 508.814 257.816 511.603 235.432C514.55 211.788 509.144 189.468 492.28 178.723C475.735 168.182 447.638 174.352 422.242 178.498C400.274 182.084 377.862 190.97 355 201.135C332.018 211.353 309.599 222.376 288.168 238.109C263.142 256.482 223.289 276.44 220.328 300.002C216.809 328.002 273.934 315.519 275.144 341.735C276.38 368.507 216.117 409.247 226.372 430.976C235.267 449.826 281.125 415.423 308.092 411.553C329.44 408.489 345.475 420.324 367.85 410.674C390.283 400.998 407.468 378.704 426.117 360.648Z" stroke="#F1F8F6" stroke-width="0.494104"/>
<path opacity="0.294118" fill-rule="evenodd" clip-rule="evenodd" d="M429.559 357.195C447.703 339.239 465.777 321.783 479.193 301.612C494.691 278.31 510.802 253.757 513.149 231.516C515.627 208.023 509.71 185.993 492.482 175.647C475.579 165.496 447.377 172.12 421.855 176.689C399.779 180.642 377.364 189.856 354.524 200.346C331.564 210.891 309.187 222.224 287.905 238.209C263.053 256.875 223.283 277.381 220.789 300.793C217.824 328.615 275.166 315.206 276.932 341.174C278.736 367.692 218.82 409.169 229.613 430.525C238.976 449.051 284.499 414.116 311.611 409.792C333.073 406.37 349.488 417.812 371.849 407.841C394.267 397.843 411.131 375.431 429.559 357.195Z" stroke="#F1F8F6" stroke-width="0.494104"/>
<path opacity="0.302521" fill-rule="evenodd" clip-rule="evenodd" d="M432.961 353.783C450.882 335.654 468.743 318.022 481.85 297.784C496.992 274.403 512.726 249.771 514.628 227.68C516.638 204.345 510.212 182.613 492.625 172.668C475.369 162.91 447.069 169.987 421.43 174.978C399.252 179.295 376.843 188.835 354.03 199.647C331.098 210.516 308.771 222.155 287.644 238.387C262.974 257.34 223.3 278.388 221.273 301.642C218.863 329.277 276.404 314.948 278.727 340.66C281.098 366.916 221.547 409.117 232.875 430.093C242.702 448.29 287.876 412.834 315.124 408.058C336.694 404.276 353.484 415.324 375.824 405.034C398.222 394.718 414.759 372.195 432.961 353.783Z" stroke="#F1F8F6" stroke-width="0.494104"/>
<path opacity="0.310924" fill-rule="evenodd" clip-rule="evenodd" d="M436.321 350.411C454.014 332.115 471.657 314.313 484.451 294.012C499.232 270.56 514.584 245.857 516.042 223.922C517.582 200.753 510.65 179.325 492.708 169.783C475.105 160.422 446.717 167.949 420.968 173.361C398.694 178.042 376.297 187.904 353.519 199.035C330.623 210.224 308.352 222.166 287.387 238.64C262.906 257.875 223.34 279.458 221.78 302.548C219.927 329.987 277.649 314.742 280.527 340.19C283.465 366.176 224.297 409.088 236.157 429.678C246.445 447.54 291.257 411.574 318.633 406.347C340.304 402.208 357.465 412.856 379.776 402.252C402.146 391.62 418.351 368.993 436.321 350.411Z" stroke="#F1F8F6" stroke-width="0.494104"/>
<path opacity="0.319328" fill-rule="evenodd" clip-rule="evenodd" d="M439.643 347.08C457.103 328.622 474.521 310.655 487 290.299C501.415 266.782 516.38 242.015 517.393 220.244C518.463 197.247 511.026 176.13 492.736 166.995C474.791 158.033 446.323 166.008 420.472 171.838C398.11 176.881 375.731 187.063 352.995 198.51C330.141 210.016 307.934 222.258 287.137 238.967C262.853 258.479 223.406 280.59 222.315 303.509C221.018 330.745 278.904 314.588 282.336 339.763C285.841 365.471 227.073 409.082 239.461 429.28C250.207 446.801 294.644 410.337 322.139 404.659C343.904 400.165 361.43 410.41 383.707 399.494C406.041 388.55 421.911 365.826 439.643 347.08Z" stroke="#F1F8F6" stroke-width="0.494104"/>
<path opacity="0.327731" fill-rule="evenodd" clip-rule="evenodd" d="M442.926 343.789C460.147 325.176 477.336 307.049 489.494 286.644C503.54 263.07 518.114 238.246 518.681 216.645C519.281 193.828 511.342 173.028 492.709 164.303C474.427 155.742 445.888 164.163 419.942 170.41C397.499 175.814 375.146 186.312 352.459 198.071C329.654 209.891 307.516 222.428 286.895 239.369C262.814 259.151 223.5 281.784 222.877 304.524C222.136 331.548 280.169 314.484 284.154 339.38C288.224 364.802 229.875 409.098 242.787 428.898C253.988 446.073 298.036 409.12 325.642 402.995C347.495 398.146 365.381 407.986 387.616 396.762C409.909 385.509 425.437 362.694 442.926 343.789Z" stroke="#F1F8F6" stroke-width="0.494104"/>
<path opacity="0.336134" fill-rule="evenodd" clip-rule="evenodd" d="M446.172 340.541C463.148 321.777 480.103 303.496 491.938 283.047C505.609 259.423 519.787 234.551 519.909 213.126C520.038 190.496 511.599 170.019 492.629 161.706C474.016 153.55 445.414 162.414 419.382 169.076C396.865 174.838 374.544 185.65 351.913 197.717C329.164 209.847 307.103 222.676 286.662 239.843C262.793 259.89 223.622 283.038 223.468 305.592C223.284 332.396 281.446 314.431 285.983 339.039C290.617 364.168 232.704 409.136 246.137 428.53C257.789 445.354 301.434 407.926 329.143 401.354C351.078 396.152 369.318 405.584 391.504 394.055C413.748 382.496 428.931 359.597 446.172 340.541Z" stroke="#F1F8F6" stroke-width="0.494104"/>
<path opacity="0.344538" fill-rule="evenodd" clip-rule="evenodd" d="M449.379 337.333C466.106 318.425 482.821 299.996 494.328 279.51C507.621 255.843 521.399 230.929 521.075 209.688C520.733 187.251 511.798 167.103 492.496 159.205C473.558 151.456 444.902 160.761 418.792 167.836C396.206 173.955 373.925 185.077 351.356 197.449C328.67 209.885 306.693 223.002 286.439 240.39C262.789 260.695 223.774 284.351 224.088 306.713C224.462 333.288 282.734 314.427 287.822 338.74C293.018 363.568 235.559 409.194 249.509 428.178C261.609 444.646 304.838 406.752 332.641 399.736C354.65 394.183 373.239 403.203 395.37 391.373C417.559 379.512 432.391 356.537 449.379 337.333Z" stroke="#F1F8F6" stroke-width="0.494104"/>
<path opacity="0.352941" fill-rule="evenodd" clip-rule="evenodd" d="M452.547 334.168C469.02 315.121 485.49 296.549 496.666 276.032C509.577 252.33 522.95 227.382 522.181 206.331C521.369 184.093 511.939 164.282 492.311 156.801C473.054 149.461 444.353 159.203 418.172 166.689C395.526 173.164 373.29 184.592 350.791 197.265C328.175 210.004 306.288 223.404 286.227 241.009C262.803 261.565 223.955 285.722 224.739 307.885C225.669 334.223 284.035 314.472 289.672 338.483C295.429 363.003 238.442 409.272 252.903 427.84C265.447 443.947 308.247 405.599 336.136 398.141C358.213 392.238 377.145 400.845 399.215 388.716C421.341 376.557 435.818 353.513 452.547 334.168Z" stroke="#F1F8F6" stroke-width="0.494104"/>
<path opacity="0.361345" fill-rule="evenodd" clip-rule="evenodd" d="M455.68 331.043C471.893 311.863 488.114 293.153 498.955 272.612C511.48 248.881 524.445 223.908 523.231 203.052C521.948 181.022 512.026 161.552 492.079 154.491C472.508 147.563 443.77 157.74 417.528 165.634C394.827 172.462 372.644 184.194 350.222 197.163C327.682 210.201 305.891 223.881 286.031 241.696C262.84 262.498 224.171 287.148 225.423 309.105C226.91 335.199 285.351 314.563 291.536 338.265C297.852 362.468 241.353 409.368 256.322 427.514C269.307 443.254 311.665 404.465 339.631 396.567C361.769 390.316 381.038 398.506 403.039 386.084C425.097 373.629 439.214 350.523 455.68 331.043Z" stroke="#F1F8F6" stroke-width="0.494104"/>
<path opacity="0.369748" fill-rule="evenodd" clip-rule="evenodd" d="M458.777 327.964C474.725 308.657 490.691 289.816 501.195 269.256C513.329 245.505 525.882 220.513 524.223 199.86C522.471 178.043 512.06 158.921 491.799 152.281C471.921 145.767 443.155 156.375 416.858 164.675C394.111 171.855 371.987 183.886 349.648 197.149C327.192 210.481 305.505 224.437 285.85 242.456C262.898 263.498 224.421 288.634 226.141 310.378C228.185 336.219 286.683 314.706 293.413 338.091C300.286 361.971 244.294 409.486 259.766 427.205C273.187 442.574 315.09 403.354 343.125 395.02C365.317 388.422 384.918 396.193 406.844 383.481C428.826 370.735 442.579 347.573 458.777 327.964Z" stroke="#F1F8F6" stroke-width="0.494104"/>
<path opacity="0.378151" fill-rule="evenodd" clip-rule="evenodd" d="M461.837 324.927C477.516 305.498 493.223 286.532 503.386 265.96C515.127 242.194 527.263 217.192 525.16 196.747C522.938 175.151 512.043 156.382 491.474 150.166C471.294 144.067 442.509 155.104 416.166 163.807C393.378 171.336 371.321 183.663 349.072 197.215C326.706 210.838 305.129 225.065 285.685 243.284C262.981 264.558 224.707 290.172 226.894 311.698C229.494 337.279 288.031 314.894 295.306 337.955C302.734 361.504 247.265 409.621 263.235 426.906C277.089 441.9 318.523 402.262 346.618 393.493C368.859 386.551 388.785 393.901 410.629 380.902C432.528 367.869 445.914 344.659 461.837 324.927Z" stroke="#F1F8F6" stroke-width="0.494104"/>
<path opacity="0.386555" fill-rule="evenodd" clip-rule="evenodd" d="M464.862 321.932C480.267 302.388 495.71 283.302 505.529 262.724C516.872 238.952 528.588 213.946 526.041 193.716C523.351 172.347 511.973 153.938 491.104 148.147C470.628 142.466 441.833 153.927 415.451 163.032C392.631 170.908 370.646 183.527 348.494 197.364C326.226 211.273 304.765 225.767 285.539 244.18C263.089 265.68 225.029 291.765 227.683 313.065C230.837 338.377 289.397 315.128 297.212 337.858C305.194 361.069 250.265 409.772 266.728 426.62C281.01 441.234 321.964 401.189 350.111 391.988C372.392 384.705 392.638 391.63 414.393 378.349C436.204 365.033 449.217 341.781 464.862 321.932Z" stroke="#F1F8F6" stroke-width="0.494104"/>
<path opacity="0.394958" fill-rule="evenodd" clip-rule="evenodd" d="M467.854 318.981C482.98 299.327 498.154 280.127 507.625 259.55C518.568 235.778 529.861 210.777 526.871 190.768C523.713 169.632 511.856 151.588 490.692 146.225C469.927 140.963 441.131 152.845 414.719 162.348C391.872 170.568 369.967 183.475 347.918 197.593C325.754 211.785 304.416 226.542 285.414 245.143C263.224 266.863 225.391 293.41 228.511 314.478C232.219 339.514 290.783 315.408 299.137 337.8C307.668 360.666 253.296 409.941 270.249 426.345C284.954 440.574 325.415 400.136 353.605 390.505C375.92 382.882 396.479 389.382 418.139 375.822C439.854 362.227 452.491 338.941 467.854 318.981Z" stroke="#F1F8F6" stroke-width="0.494104"/>
<path opacity="0.403361" fill-rule="evenodd" clip-rule="evenodd" d="M470.811 316.071C485.654 296.314 500.554 277.006 509.676 256.435C520.214 232.671 531.08 207.682 527.649 187.9C524.024 167.004 511.692 149.331 490.239 144.396C469.192 139.555 440.403 151.855 413.968 161.754C391.102 170.316 369.283 183.507 347.345 197.902C325.292 212.371 304.083 227.386 285.31 246.17C263.388 268.103 225.792 295.105 229.378 315.934C233.639 340.687 292.188 315.73 301.079 337.777C310.158 360.291 256.36 410.123 273.795 426.079C288.92 439.919 328.876 399.099 357.1 389.043C379.443 381.082 400.309 387.154 421.867 373.319C443.48 359.45 455.737 336.137 470.811 316.071Z" stroke="#F1F8F6" stroke-width="0.494104"/>
<path opacity="0.411765" fill-rule="evenodd" clip-rule="evenodd" d="M473.738 313.208C488.292 293.353 502.914 273.942 511.684 253.385C521.815 229.636 532.251 204.666 528.378 185.118C524.287 164.468 511.484 147.17 489.75 142.666C468.425 138.247 439.653 150.962 413.204 161.252C390.325 170.153 368.6 183.625 346.778 198.292C324.843 213.035 303.77 228.303 285.232 247.264C263.584 269.404 226.237 296.851 230.287 317.436C235.099 341.897 293.617 316.098 303.042 337.794C312.666 359.949 259.457 410.323 277.371 425.825C292.91 439.273 332.349 398.083 360.599 387.603C382.962 379.308 404.129 384.95 425.578 370.845C447.082 356.705 458.956 333.372 473.738 313.208Z" stroke="#F1F8F6" stroke-width="0.494104"/>
<path opacity="0.420168" fill-rule="evenodd" clip-rule="evenodd" d="M476.627 310.388C490.889 290.442 505.229 270.935 513.643 250.397C523.363 226.67 533.365 201.728 529.053 182.418C524.498 162.021 511.228 145.104 489.218 141.032C467.623 137.037 438.876 150.161 412.421 160.841C389.537 170.079 367.91 183.827 346.213 198.761C324.402 213.773 303.471 229.29 285.173 248.422C263.807 270.762 226.72 298.647 231.233 318.98C236.595 343.143 295.064 316.509 305.019 337.847C315.185 359.637 262.582 410.537 280.969 425.581C296.918 438.632 335.827 397.085 364.095 386.186C386.471 377.557 407.932 382.768 429.266 368.398C450.655 353.991 462.142 330.646 476.627 310.388Z" stroke="#F1F8F6" stroke-width="0.494104"/>
<path opacity="0.428571" fill-rule="evenodd" clip-rule="evenodd" d="M479.487 307.613C493.452 287.582 507.505 267.984 515.561 247.471C524.868 223.774 534.434 198.867 529.683 179.802C524.665 159.664 510.931 143.133 488.653 139.494C466.795 135.924 438.081 149.454 411.628 160.52C388.746 170.091 367.226 184.111 345.658 199.309C323.978 214.585 303.196 230.346 285.145 249.643C264.065 272.177 227.251 300.491 232.224 320.566C238.135 344.424 296.536 316.963 307.02 337.937C317.725 359.354 265.744 410.764 284.597 425.347C300.952 437.996 339.32 396.106 367.596 384.789C389.979 375.831 411.728 380.609 432.94 365.977C454.208 351.308 465.303 327.957 479.487 307.613Z" stroke="#F1F8F6" stroke-width="0.494104"/>
<path opacity="0.436975" fill-rule="evenodd" clip-rule="evenodd" d="M482.316 304.882C495.98 284.772 509.742 265.089 517.437 244.608C526.328 220.948 535.455 196.083 530.267 177.269C524.787 157.396 510.594 141.256 488.054 138.051C465.94 134.907 437.268 148.84 410.825 160.287C387.951 170.19 366.544 184.478 345.113 199.934C323.57 215.47 302.944 231.47 285.144 250.927C264.358 273.646 227.826 302.381 233.26 322.193C239.718 345.738 298.034 317.459 309.042 338.061C320.283 359.1 268.939 411.005 288.254 425.12C305.008 437.365 342.823 395.143 371.099 383.413C393.483 374.128 415.513 378.471 436.597 363.583C457.736 348.656 468.438 325.307 482.316 304.882Z" stroke="#F1F8F6" stroke-width="0.494104"/>
<path opacity="0.445378" fill-rule="evenodd" clip-rule="evenodd" d="M485.114 302.196C498.473 282.013 511.939 262.252 519.272 241.809C527.744 218.192 536.429 193.377 530.805 174.82C524.865 155.217 510.218 139.474 487.423 136.704C465.058 133.987 436.438 148.317 410.013 160.144C387.155 170.375 365.866 184.926 344.579 200.635C323.18 216.426 302.715 232.662 285.172 252.272C264.687 275.17 228.449 304.317 234.341 323.86C241.343 347.083 299.557 317.995 311.086 338.22C322.859 358.874 272.169 411.259 291.939 424.903C309.089 436.738 346.339 394.198 374.607 382.059C396.983 372.449 419.287 376.356 440.238 361.216C461.242 346.036 471.546 322.695 485.114 302.196Z" stroke="#F1F8F6" stroke-width="0.494104"/>
<path opacity="0.453782" fill-rule="evenodd" clip-rule="evenodd" d="M487.882 299.555C500.932 279.304 514.099 259.471 521.067 239.072C529.117 215.507 537.357 190.75 531.3 172.454C524.902 153.128 509.804 137.786 486.761 135.452C464.154 133.163 435.593 147.887 409.194 160.089C386.358 170.644 365.196 185.454 344.058 201.413C322.81 217.454 302.513 233.919 285.232 253.676C265.053 276.747 229.12 306.297 235.469 325.564C243.013 348.46 301.106 318.571 313.153 338.413C325.455 358.676 275.434 411.523 295.653 424.692C313.192 436.115 349.867 393.27 378.117 380.724C400.481 370.793 423.052 374.264 443.862 358.875C464.725 343.447 474.628 320.121 487.882 299.555Z" stroke="#F1F8F6" stroke-width="0.494104"/>
<path opacity="0.462185" fill-rule="evenodd" clip-rule="evenodd" d="M490.62 296.958C503.357 276.647 516.22 256.747 522.821 236.399C530.447 212.892 538.24 188.2 531.751 170.172C524.897 151.129 509.354 136.192 486.07 134.295C463.226 132.434 434.734 147.547 408.369 160.121C385.562 170.998 364.532 186.063 343.55 202.265C322.46 218.552 302.336 235.241 285.323 255.14C265.456 278.376 229.84 308.32 236.643 327.306C244.728 349.868 302.682 319.187 315.243 338.64C328.07 358.504 278.733 411.799 299.396 424.488C317.319 435.496 353.407 392.358 381.632 379.41C403.974 369.161 426.806 372.193 447.469 356.562C468.185 340.89 477.685 317.587 490.62 296.958Z" stroke="#F1F8F6" stroke-width="0.494104"/>
<path opacity="0.470588" fill-rule="evenodd" clip-rule="evenodd" d="M493.332 294.407C505.752 274.042 518.307 254.081 524.54 233.79C531.739 210.348 539.082 185.729 532.164 167.974C524.855 149.22 508.871 134.693 485.353 133.233C462.28 131.801 433.865 147.298 407.542 160.24C384.772 171.435 363.88 186.75 343.061 203.191C322.134 219.718 302.191 236.627 285.45 256.662C265.902 280.056 230.613 310.384 237.868 329.083C246.491 351.304 304.289 319.841 317.36 338.898C330.708 358.359 282.071 412.085 303.17 424.291C321.473 434.879 356.962 391.462 385.152 378.116C407.468 367.551 430.554 370.145 451.063 354.275C471.625 338.364 480.718 315.091 493.332 294.407Z" stroke="#F1F8F6" stroke-width="0.494104"/>
<path opacity="0.478992" fill-rule="evenodd" clip-rule="evenodd" d="M496.016 291.901C508.115 271.487 520.359 251.473 526.22 231.244C532.991 207.875 539.883 183.335 532.536 165.859C524.776 147.4 508.355 133.287 484.611 132.265C461.315 131.263 432.987 147.14 406.714 160.445C383.987 171.955 363.24 187.515 342.59 204.191C321.833 220.953 302.075 238.076 285.613 258.24C266.389 281.785 231.437 312.489 239.143 330.895C248.301 352.768 305.926 320.532 319.503 339.188C333.368 358.24 285.445 412.38 306.974 424.099C325.65 434.265 360.531 390.582 388.678 376.842C410.96 365.965 434.292 368.119 454.642 352.016C475.044 335.871 483.728 312.634 496.016 291.901Z" stroke="#F1F8F6" stroke-width="0.494104"/>
<path opacity="0.487395" fill-rule="evenodd" clip-rule="evenodd" d="M498.669 289.441C510.443 268.985 522.372 248.922 527.861 228.762C534.201 205.472 540.639 181.021 532.867 163.829C524.657 145.669 507.805 131.975 483.841 131.392C460.33 130.819 432.096 147.07 405.882 160.736C383.205 172.557 362.609 188.357 342.135 205.262C321.553 222.255 301.988 239.587 285.808 259.874C266.915 283.563 232.312 314.634 240.466 332.741C250.155 354.259 307.589 321.26 321.669 339.51C336.047 358.146 288.852 412.684 310.805 423.913C329.849 433.653 364.11 389.717 392.206 375.587C414.447 364.401 438.019 366.115 458.202 349.783C478.438 333.409 486.71 310.217 498.669 289.441Z" stroke="#F1F8F6" stroke-width="0.494104"/>
<path opacity="0.495798" fill-rule="evenodd" clip-rule="evenodd" d="M501.299 287.026C512.745 266.534 524.356 246.428 529.47 226.344C535.378 203.141 541.36 178.785 533.164 161.882C524.507 144.027 507.23 130.757 483.054 130.611C459.335 130.469 431.204 147.09 405.055 161.111C382.436 173.24 361.998 189.276 341.705 206.404C321.306 223.622 301.938 241.158 286.047 261.562C267.49 285.388 233.245 316.815 241.844 334.618C252.063 355.775 309.289 322.024 323.866 339.861C338.752 358.076 292.3 412.996 314.671 423.731C334.077 433.042 367.708 388.867 395.744 374.351C417.937 362.861 441.741 364.133 461.753 347.578C481.816 330.979 489.674 307.838 501.299 287.026Z" stroke="#F1F8F6" stroke-width="0.494104"/>
<path opacity="0.504202" fill-rule="evenodd" clip-rule="evenodd" d="M503.903 284.654C515.017 264.132 526.306 243.991 531.044 223.988C536.518 200.879 542.042 176.625 533.425 160.017C524.324 142.473 506.626 129.63 482.245 129.922C458.325 130.21 430.306 147.196 404.231 161.568C381.676 174.001 361.402 190.268 341.296 207.615C321.086 225.053 301.923 242.787 286.324 263.302C268.108 287.257 234.233 319.032 243.275 336.525C254.02 357.315 311.02 322.821 326.091 340.24C341.481 358.029 295.786 413.313 318.567 423.55C338.329 432.431 371.32 388.03 399.287 373.133C421.426 361.34 445.455 362.171 465.289 345.397C485.173 328.58 492.614 305.497 503.903 284.654Z" stroke="#F1F8F6" stroke-width="0.494104"/>
<path opacity="0.512605" fill-rule="evenodd" clip-rule="evenodd" d="M506.482 282.332C517.261 261.787 528.224 241.616 532.585 221.7C537.623 198.692 542.687 174.548 533.653 158.239C524.11 141.011 505.996 128.599 481.418 129.33C457.305 130.047 429.406 147.393 403.413 162.113C380.929 174.845 360.824 191.338 340.913 208.899C320.897 226.551 301.944 244.478 286.642 265.098C268.774 289.175 235.278 321.287 244.76 338.466C256.029 358.881 312.785 323.655 328.344 340.652C344.234 358.008 299.31 413.641 322.494 423.377C342.606 431.824 374.947 387.21 402.837 371.937C424.915 359.846 449.162 360.235 468.811 343.248C488.511 326.217 495.534 303.199 506.482 282.332Z" stroke="#F1F8F6" stroke-width="0.494104"/>
<path opacity="0.521008" fill-rule="evenodd" clip-rule="evenodd" d="M509.036 280.052C519.478 259.49 530.112 239.295 534.094 219.472C538.694 196.572 543.297 172.545 533.848 156.541C523.866 139.635 505.343 127.657 480.575 128.826C456.275 129.973 428.505 147.673 402.602 162.735C380.196 175.764 360.267 192.478 340.555 210.246C320.741 228.108 302.003 246.223 287.003 266.94C269.488 291.133 236.382 323.572 246.301 340.431C258.089 360.466 314.585 324.519 330.628 341.087C347.012 358.006 302.873 413.97 326.454 423.203C346.909 431.213 378.59 386.401 406.394 370.755C428.404 358.37 452.862 358.318 472.321 341.122C491.831 323.882 498.432 300.936 509.036 280.052Z" stroke="#F1F8F6" stroke-width="0.494104"/>
<path opacity="0.529412" fill-rule="evenodd" clip-rule="evenodd" d="M511.567 277.819C521.666 257.246 531.968 237.034 535.57 217.311C539.732 194.525 543.873 170.623 534.011 154.928C523.594 138.348 504.666 126.809 479.716 128.416C455.237 129.992 427.604 148.041 401.799 163.441C379.477 176.763 359.731 193.692 340.225 211.663C320.617 229.728 302.101 248.025 287.408 268.835C270.251 293.134 237.545 325.892 247.898 342.426C260.202 362.075 316.419 325.417 332.942 341.552C349.815 358.028 306.474 414.306 330.444 423.033C351.237 430.604 382.249 385.607 409.959 369.593C431.894 356.917 456.555 356.424 475.818 339.025C495.131 321.581 501.309 298.714 511.567 277.819Z" stroke="#F1F8F6" stroke-width="0.494104"/>
<path opacity="0.537815" fill-rule="evenodd" clip-rule="evenodd" d="M514.076 275.633C523.831 255.055 533.798 234.831 537.019 215.213C540.74 192.55 544.417 168.78 534.146 153.398C523.296 137.15 503.97 126.053 478.846 128.097C454.195 130.102 426.708 148.494 401.009 164.228C378.779 177.837 359.22 194.977 339.926 213.146C320.531 231.409 302.241 249.882 287.86 270.778C271.066 295.177 238.77 328.243 249.554 344.447C262.37 363.703 318.293 326.346 335.29 342.043C352.647 358.072 310.117 414.646 334.469 422.865C355.594 429.994 385.926 384.825 413.533 368.45C435.388 355.487 460.244 354.552 479.305 336.955C498.415 319.313 504.168 296.532 514.076 275.633Z" stroke="#F1F8F6" stroke-width="0.494104"/>
<path opacity="0.546219" fill-rule="evenodd" clip-rule="evenodd" d="M516.562 273.494C525.97 252.917 535.598 232.688 538.437 213.182C541.717 190.647 544.929 167.016 534.252 151.953C522.973 136.042 503.254 125.39 477.962 127.87C453.148 130.304 425.815 149.034 400.229 165.096C378.097 178.99 358.733 196.335 339.656 214.695C320.481 233.151 302.423 251.795 288.357 272.77C271.931 297.262 240.055 330.625 251.267 346.494C264.591 365.352 320.202 327.308 337.668 342.561C355.504 358.138 313.799 414.991 338.525 422.699C359.974 429.385 389.618 384.058 417.115 367.325C438.881 354.079 463.925 352.703 482.779 334.914C501.681 317.079 507.007 294.392 516.562 273.494Z" stroke="#F1F8F6" stroke-width="0.494104"/>
<path opacity="0.554622" fill-rule="evenodd" clip-rule="evenodd" d="M519.027 271.398C528.085 250.83 537.372 230.602 539.828 211.213C542.665 188.814 545.412 165.329 534.331 150.589C522.627 135.02 502.522 124.816 477.071 127.732C452.1 130.593 424.929 149.655 399.465 166.041C377.438 180.215 358.273 197.76 339.42 216.306C320.469 234.949 302.65 253.758 288.903 274.806C272.851 299.383 241.405 333.034 253.041 348.563C266.869 367.017 322.151 328.296 340.08 343.102C358.39 358.222 317.522 415.338 342.615 422.532C364.383 428.772 393.329 383.302 420.706 366.216C442.378 352.691 467.603 350.874 486.243 332.898C504.931 314.876 509.828 292.288 519.027 271.398Z" stroke="#F1F8F6" stroke-width="0.494104"/>
<path opacity="0.563025" fill-rule="evenodd" clip-rule="evenodd" d="M521.473 269.347C530.177 248.792 539.12 228.571 541.192 209.306C543.586 187.049 545.867 163.718 534.386 149.306C522.26 134.083 501.774 124.331 476.171 127.682C451.052 130.969 424.052 150.358 398.717 167.062C376.801 181.511 357.842 199.251 339.219 217.978C320.498 236.802 302.922 255.771 289.499 276.885C273.826 301.54 242.818 335.468 254.875 350.652C269.204 368.697 324.139 329.312 342.527 343.665C361.304 358.323 321.286 415.684 346.738 422.362C368.818 428.155 397.058 382.554 424.307 365.122C445.878 351.322 471.275 349.065 489.696 330.908C508.165 312.703 512.632 290.222 521.473 269.347Z" stroke="#F1F8F6" stroke-width="0.494104"/>
<path opacity="0.571429" fill-rule="evenodd" clip-rule="evenodd" d="M523.898 267.345C532.247 246.811 540.843 226.603 542.531 207.467C544.481 185.359 546.294 162.188 534.418 148.109C521.873 133.236 501.013 123.939 475.266 127.724C450.006 131.437 423.185 151.146 397.986 168.163C376.189 182.884 357.442 200.813 339.053 219.714C320.569 238.714 303.241 257.837 290.147 279.011C274.856 303.736 244.297 337.932 256.771 352.767C271.595 370.396 326.168 330.358 345.009 344.256C364.248 358.447 325.091 416.035 350.895 422.195C373.28 427.539 400.805 381.822 427.919 364.048C449.382 349.978 474.944 347.281 493.14 328.948C511.383 310.567 515.419 288.2 523.898 267.345Z" stroke="#F1F8F6" stroke-width="0.494104"/>
<path opacity="0.579832" fill-rule="evenodd" clip-rule="evenodd" d="M526.305 265.385C534.295 244.877 542.542 224.689 543.845 205.687C545.351 183.736 546.696 160.733 534.427 146.989C521.467 132.472 500.24 123.633 474.357 127.85C448.964 131.988 422.329 152.011 397.275 169.337C375.603 184.324 357.073 202.437 338.925 221.508C320.682 240.677 303.609 259.948 290.846 281.175C275.944 305.963 245.842 340.415 258.73 354.896C274.045 372.105 328.239 331.427 347.526 344.864C367.222 358.585 328.938 416.383 355.086 422.023C377.769 426.916 404.571 381.097 431.54 362.987C452.889 348.65 478.608 345.515 496.574 327.011C514.586 308.459 518.19 286.212 526.305 265.385Z" stroke="#F1F8F6" stroke-width="0.494104"/>
<path opacity="0.588235" fill-rule="evenodd" clip-rule="evenodd" d="M528.693 263.474C536.322 243 544.217 222.837 545.135 203.976C546.196 182.187 547.073 159.359 534.415 145.956C521.045 131.799 499.455 123.419 473.445 128.068C447.926 132.629 421.487 152.96 396.585 170.59C375.044 185.839 356.737 204.13 338.835 223.364C320.84 242.697 304.025 262.11 291.599 283.384C277.089 308.227 247.454 342.926 260.751 357.048C276.552 373.832 330.351 332.526 350.079 345.498C370.225 358.744 332.827 416.734 359.31 421.853C382.284 426.294 408.355 380.387 435.172 361.945C456.4 347.347 482.268 343.773 499.998 325.105C517.774 306.388 520.944 284.268 528.693 263.474Z" stroke="#F1F8F6" stroke-width="0.494104"/>
<path opacity="0.596639" fill-rule="evenodd" clip-rule="evenodd" d="M531.066 261.605C538.332 241.17 545.872 221.039 546.405 202.324C547.021 180.705 547.429 158.058 534.386 145C520.609 131.207 498.665 123.29 472.535 128.369C446.898 133.351 420.662 153.985 395.919 171.912C374.517 187.419 356.438 205.883 338.787 225.274C321.045 244.765 304.495 264.314 292.408 285.629C278.295 310.519 249.136 345.453 262.838 359.214C279.121 375.566 332.508 333.645 352.671 346.148C373.261 358.916 336.76 417.08 363.571 421.676C386.829 425.663 412.16 379.682 438.817 360.915C459.918 346.059 485.927 342.049 503.416 323.221C520.95 304.345 523.686 282.36 531.066 261.605Z" stroke="#F1F8F6" stroke-width="0.494104"/>
<path opacity="0.605042" fill-rule="evenodd" clip-rule="evenodd" d="M533.42 259.784C540.321 239.394 547.504 219.3 547.652 200.738C547.822 179.295 547.762 156.836 534.338 144.127C520.158 130.702 497.866 123.25 471.624 128.757C445.877 134.161 419.852 155.09 395.276 173.309C374.018 189.069 356.174 207.7 338.78 227.242C321.296 246.886 305.015 266.564 293.272 287.914C279.56 312.844 250.886 348.003 264.989 361.397C281.749 377.313 334.707 334.79 355.299 346.82C376.327 359.105 340.733 417.427 367.864 421.498C391.399 425.03 415.984 378.989 442.471 359.902C463.439 344.793 489.582 340.348 506.824 321.367C524.111 302.337 526.411 280.492 533.42 259.784Z" stroke="#F1F8F6" stroke-width="0.494104"/>
<path opacity="0.613445" fill-rule="evenodd" clip-rule="evenodd" d="M535.759 258.007C542.293 237.669 549.117 217.62 548.879 199.215C548.603 177.954 548.074 155.691 534.274 143.334C519.696 130.282 497.063 123.298 470.716 129.231C444.867 135.053 419.061 156.272 394.66 174.778C373.553 190.786 355.948 209.578 338.817 229.266C321.596 249.056 305.59 268.858 294.194 290.236C280.886 315.198 252.706 350.571 267.206 363.594C284.438 379.07 336.951 335.957 357.966 347.511C379.425 359.31 344.75 417.77 372.192 421.316C395.997 424.392 419.827 378.304 446.138 358.904C466.966 343.547 493.234 338.667 510.225 319.539C527.259 300.361 529.123 278.663 535.759 258.007Z" stroke="#F1F8F6" stroke-width="0.494104"/>
<path opacity="0.621849" fill-rule="evenodd" clip-rule="evenodd" d="M538.085 256.274C544.249 235.994 550.713 215.995 550.089 197.754C549.368 176.681 548.371 154.62 534.197 142.62C519.226 129.944 496.258 123.429 469.815 129.788C443.872 136.027 418.293 157.528 394.074 176.315C373.125 192.566 355.765 211.514 338.901 231.341C321.949 251.272 306.222 271.192 295.176 292.591C282.278 317.577 254.6 353.154 269.492 365.802C287.19 380.833 339.243 337.144 360.674 348.218C382.559 359.527 348.812 418.108 376.557 421.128C400.625 423.747 423.693 377.627 449.819 357.919C470.501 342.318 496.886 337.005 513.62 317.735C530.397 298.416 531.824 276.872 538.085 256.274Z" stroke="#F1F8F6" stroke-width="0.494104"/>
<path opacity="0.630252" fill-rule="evenodd" clip-rule="evenodd" d="M540.395 254.591C546.188 234.374 552.289 214.431 551.279 196.359C550.113 175.482 548.648 153.629 534.106 141.989C518.746 129.693 495.45 123.65 468.919 130.432C442.889 137.086 417.545 158.864 393.516 177.926C372.731 194.415 355.621 213.513 339.029 233.473C322.351 253.538 306.908 273.571 296.216 294.984C283.731 319.987 256.564 355.757 271.844 368.027C290.003 382.608 341.58 338.355 363.42 348.946C385.723 359.761 352.916 418.446 380.956 420.938C405.279 423.099 427.578 376.961 453.511 356.951C474.04 341.112 500.535 335.368 517.007 315.962C533.521 296.506 534.511 275.123 540.395 254.591Z" stroke="#F1F8F6" stroke-width="0.494104"/>
<path opacity="0.638655" fill-rule="evenodd" clip-rule="evenodd" d="M542.693 252.95C548.113 232.803 553.849 212.922 552.454 195.025C550.843 174.349 548.91 152.713 534.005 141.436C518.26 129.524 494.644 123.954 468.033 131.157C441.925 138.224 416.823 160.272 392.991 179.603C372.376 196.325 355.521 215.568 339.207 235.655C322.808 255.848 307.654 275.986 297.319 297.407C285.251 322.421 258.602 358.372 274.266 370.259C292.88 384.386 343.965 339.584 366.208 349.688C388.923 360.007 357.065 418.777 385.391 420.741C409.962 422.444 431.486 376.301 457.218 355.996C477.588 339.922 504.184 333.749 520.389 314.213C536.635 294.627 537.188 273.411 542.693 252.95Z" stroke="#F1F8F6" stroke-width="0.494104"/>
<path opacity="0.647059" fill-rule="evenodd" clip-rule="evenodd" d="M544.979 251.354C550.024 231.284 555.393 211.471 553.614 193.754C551.559 173.286 549.159 151.871 533.894 140.961C517.769 129.437 493.84 124.342 467.157 131.964C440.978 139.441 416.127 161.753 392.499 181.348C372.06 198.298 355.466 217.678 339.434 237.887C323.32 258.201 308.458 278.44 298.484 299.862C286.837 324.878 260.715 361 276.757 372.501C295.821 386.169 346.398 340.831 369.038 350.446C392.157 360.265 361.259 419.103 389.861 420.537C414.673 421.781 435.414 375.649 460.938 355.054C481.143 338.751 507.833 332.151 523.766 312.491C539.739 292.78 539.855 271.738 544.979 251.354Z" stroke="#F1F8F6" stroke-width="0.494104"/>
<path opacity="0.655462" fill-rule="evenodd" clip-rule="evenodd" d="M547.253 249.802C551.922 229.815 556.923 210.076 554.76 192.544C552.261 172.291 549.394 151.104 533.774 140.565C517.275 129.432 493.041 124.814 466.294 132.852C440.052 140.738 415.459 163.305 392.042 183.158C371.786 200.331 355.457 219.844 339.713 240.168C323.887 260.598 309.324 280.93 299.713 302.347C288.489 327.357 262.903 363.639 279.318 374.75C298.826 387.956 348.88 342.095 371.909 351.218C395.426 360.534 365.496 419.422 394.367 420.327C419.412 421.111 439.365 375.003 464.673 354.125C484.706 337.598 511.481 330.572 527.137 310.794C542.833 290.965 542.511 270.103 547.253 249.802Z" stroke="#F1F8F6" stroke-width="0.494104"/>
<path opacity="0.663866" fill-rule="evenodd" clip-rule="evenodd" d="M549.516 248.294C553.807 228.394 558.438 208.736 555.892 191.395C552.95 171.362 549.618 150.411 533.648 140.245C516.779 129.506 492.246 125.366 465.444 133.818C439.147 142.11 414.819 164.927 391.62 185.031C371.553 202.422 355.495 222.061 340.043 242.494C324.511 263.033 310.25 283.453 301.005 304.859C290.21 329.855 265.166 366.285 281.95 377.004C301.896 389.743 351.412 343.374 374.823 352.002C398.73 360.812 369.778 419.732 398.909 420.107C424.179 420.432 443.337 374.362 468.421 353.207C488.277 336.46 515.129 329.011 530.503 309.122C545.917 289.181 545.157 268.504 549.516 248.294Z" stroke="#F1F8F6" stroke-width="0.494104"/>
<path opacity="0.672269" fill-rule="evenodd" clip-rule="evenodd" d="M551.771 246.833C555.683 227.028 559.943 207.456 557.014 190.311C553.63 170.504 549.833 149.795 533.518 140.005C516.285 129.665 491.461 126.004 464.611 134.867C438.268 143.563 414.212 166.622 391.239 186.972C371.367 204.575 355.584 224.335 340.43 244.87C325.196 265.513 311.241 286.013 302.365 307.401C292.001 332.376 267.507 368.945 284.655 379.267C305.033 391.535 353.995 344.672 377.782 352.802C402.072 361.104 374.106 420.038 403.488 419.883C428.976 419.749 447.334 373.73 472.186 352.305C491.859 335.344 518.779 327.474 533.867 307.479C548.994 287.431 547.797 266.947 551.771 246.833Z" stroke="#F1F8F6" stroke-width="0.494104"/>
<path opacity="0.680672" fill-rule="evenodd" clip-rule="evenodd" d="M554.015 245.415C557.547 225.71 561.435 206.231 558.124 189.287C554.298 169.713 550.039 149.25 533.383 139.841C515.791 129.901 490.683 126.721 463.794 135.992C437.413 145.089 413.637 168.384 390.896 188.973C371.226 206.783 355.722 226.657 340.869 247.289C325.939 268.028 312.295 288.604 303.791 309.967C293.861 334.914 269.925 371.609 287.431 381.532C308.234 393.325 356.628 345.983 380.783 353.612C405.449 361.404 378.478 420.333 408.102 419.648C433.799 419.054 451.351 373.102 475.964 351.413C495.448 334.243 522.429 325.955 537.226 305.859C552.061 285.712 550.427 265.427 554.015 245.415Z" stroke="#F1F8F6" stroke-width="0.494104"/>
<path opacity="0.689076" fill-rule="evenodd" clip-rule="evenodd" d="M556.251 244.04C559.403 224.442 562.917 205.061 559.225 188.323C554.96 168.988 550.238 148.779 533.248 139.752C515.301 130.216 489.918 127.517 462.998 137.195C436.586 146.69 413.097 170.213 390.596 191.035C371.132 209.047 355.914 229.029 341.367 249.751C326.744 270.581 313.416 291.225 305.286 312.558C295.792 337.468 272.422 374.278 290.28 383.799C311.503 395.115 359.315 347.307 383.829 354.434C408.863 361.712 382.896 420.619 412.753 419.404C438.652 418.351 455.393 372.479 479.759 350.533C499.047 333.159 526.081 324.455 540.583 304.266C555.122 284.024 553.051 263.944 556.251 244.04Z" stroke="#F1F8F6" stroke-width="0.494104"/>
<path opacity="0.697479" fill-rule="evenodd" clip-rule="evenodd" d="M558.481 242.707C561.25 223.222 564.39 203.945 560.318 187.419C555.614 168.327 550.432 148.379 533.112 139.737C514.817 130.608 489.165 128.391 462.222 138.472C435.788 148.362 412.593 172.107 390.339 193.155C371.088 211.363 356.159 231.448 341.923 252.253C327.612 273.167 314.603 293.874 306.849 315.169C297.796 340.035 274.998 376.949 293.204 386.066C314.84 396.899 362.053 348.641 386.921 355.263C412.316 362.025 387.36 420.892 417.44 419.149C443.534 417.637 459.458 371.859 483.57 349.661C502.657 332.09 529.735 322.972 543.937 302.695C558.175 282.366 555.669 262.497 558.481 242.707Z" stroke="#F1F8F6" stroke-width="0.494104"/>
<path opacity="0.705882" fill-rule="evenodd" clip-rule="evenodd" d="M560.703 241.42C563.089 222.053 565.853 202.886 561.403 186.576C556.263 167.735 550.621 148.053 532.976 139.798C514.338 131.079 488.427 129.345 461.469 139.826C435.02 150.109 412.127 174.067 390.125 195.336C371.093 213.734 356.459 233.915 342.537 254.798C328.543 275.79 315.857 296.552 308.483 317.803C299.872 342.618 277.653 379.625 296.201 388.334C318.243 398.683 364.845 349.988 390.058 356.103C415.806 362.348 391.868 421.157 422.163 418.885C448.443 416.914 463.546 371.245 487.397 348.803C506.277 331.038 533.39 321.51 547.288 301.152C561.222 280.741 558.28 261.089 560.703 241.42Z" stroke="#F1F8F6" stroke-width="0.494104"/>
<path opacity="0.714286" fill-rule="evenodd" clip-rule="evenodd" d="M562.922 240.175C564.924 220.933 567.312 201.881 562.485 185.793C556.908 167.208 550.81 147.798 532.846 139.934C513.87 131.627 487.707 130.377 460.742 141.254C434.287 151.926 411.702 176.091 389.96 197.573C371.153 216.157 356.817 236.427 343.215 257.381C329.541 278.445 317.182 299.257 310.189 320.458C302.024 345.214 280.39 382.302 299.275 390.6C321.717 400.461 367.692 351.345 393.243 356.952C419.336 362.677 396.425 421.41 426.925 418.61C453.383 416.181 467.66 370.634 491.242 347.955C509.909 330.003 537.051 320.067 550.64 299.633C564.264 279.147 560.889 259.718 562.922 240.175Z" stroke="#F1F8F6" stroke-width="0.494104"/>
<path opacity="0.722689" fill-rule="evenodd" clip-rule="evenodd" d="M565.134 238.974C566.752 219.862 568.763 200.932 563.56 185.07C557.55 166.746 550.995 147.614 532.717 140.143C513.411 132.251 487.003 131.484 460.04 142.755C433.587 153.813 411.317 178.177 389.841 199.867C371.265 218.629 357.231 238.984 343.952 260.003C330.604 281.131 318.575 301.987 311.966 323.13C304.248 347.82 283.207 384.979 302.422 392.864C325.257 402.233 370.593 352.711 396.474 357.807C422.903 363.012 401.025 421.651 431.722 418.324C458.35 415.438 471.797 370.026 495.102 347.117C513.551 328.983 540.712 318.642 553.989 298.14C567.3 277.585 563.491 258.385 565.134 238.974Z" stroke="#F1F8F6" stroke-width="0.494104"/>
<path opacity="0.731092" fill-rule="evenodd" clip-rule="evenodd" d="M567.344 237.815C568.577 218.839 570.209 200.036 564.633 184.406C558.19 166.349 551.182 147.501 532.596 140.425C512.964 132.95 486.319 132.667 459.367 144.328C432.923 155.768 410.976 180.324 389.773 202.215C371.432 221.151 357.706 241.583 344.754 262.66C331.735 283.847 320.04 304.74 313.817 325.82C306.549 350.435 286.108 387.654 305.647 395.123C328.868 403.999 373.549 354.085 399.753 358.67C426.511 363.351 405.672 421.879 436.556 418.026C463.346 414.683 475.959 369.421 498.981 346.289C517.206 327.978 544.378 317.235 557.338 296.67C570.332 276.053 566.091 257.088 567.344 237.815Z" stroke="#F1F8F6" stroke-width="0.494104"/>
<path opacity="0.739496" fill-rule="evenodd" clip-rule="evenodd" d="M569.55 236.7C570.398 217.866 571.652 199.196 565.703 183.802C558.83 166.018 551.371 147.46 532.483 140.78C512.531 133.725 485.658 133.926 458.724 145.973C432.298 157.793 410.679 182.533 389.756 204.618C371.657 223.722 358.242 244.225 345.621 265.354C332.935 286.593 321.578 307.517 315.742 328.527C308.927 353.061 289.09 390.327 308.949 397.378C332.548 405.758 376.562 355.468 403.08 359.539C430.159 363.696 410.366 422.095 441.427 417.717C468.371 413.919 480.146 368.82 502.878 345.472C520.874 326.989 548.048 315.849 560.688 295.228C573.36 274.553 568.689 255.829 569.55 236.7Z" stroke="#F1F8F6" stroke-width="0.494104"/>
<path opacity="0.747899" fill-rule="evenodd" clip-rule="evenodd" d="M571.754 235.624C572.216 216.937 573.092 198.406 566.772 183.252C559.472 165.746 551.564 147.483 532.378 141.203C512.113 134.57 485.02 135.255 458.112 147.685C431.712 159.88 410.429 184.797 389.791 207.069C371.939 226.334 358.84 246.903 346.554 268.077C334.205 289.362 323.189 310.31 317.742 331.244C311.382 355.689 292.157 392.991 312.328 399.623C336.298 407.503 379.631 356.853 406.455 360.409C433.847 364.041 415.106 422.292 446.335 417.391C473.425 413.138 484.358 368.217 506.793 344.66C524.553 326.012 551.722 314.476 564.038 293.805C576.385 273.08 571.285 254.602 571.754 235.624Z" stroke="#F1F8F6" stroke-width="0.494104"/>
<path opacity="0.756303" fill-rule="evenodd" clip-rule="evenodd" d="M573.958 234.59C574.034 216.057 574.531 197.671 567.843 182.762C560.117 165.539 551.762 147.577 532.286 141.699C511.713 135.489 484.409 136.658 457.535 149.466C431.169 162.033 410.227 187.119 389.881 209.572C372.282 228.994 359.502 249.621 347.556 270.835C335.547 292.158 324.876 313.124 319.82 333.976C313.916 358.324 295.308 395.651 315.785 401.861C340.12 409.24 382.759 358.244 409.881 361.285C437.577 364.39 419.894 422.477 451.281 417.053C478.508 412.348 488.596 367.617 510.728 343.858C528.247 325.05 555.403 313.123 567.39 292.408C579.408 271.64 573.88 253.414 573.958 234.59Z" stroke="#F1F8F6" stroke-width="0.494104"/>
<path opacity="0.764706" fill-rule="evenodd" clip-rule="evenodd" d="M576.159 233.599C575.85 215.224 575.968 196.988 568.914 182.329C560.764 165.395 551.965 147.739 532.204 142.263C511.33 136.479 483.822 138.132 456.991 151.315C430.667 164.25 410.073 189.498 390.026 212.124C372.684 231.696 360.228 252.376 348.624 273.622C336.959 294.978 326.636 315.956 321.973 336.719C316.527 360.963 298.541 398.304 319.319 404.089C344.011 410.965 385.943 359.639 413.354 362.164C441.346 364.741 424.726 422.645 456.262 416.701C483.618 411.544 492.858 367.018 514.679 343.064C531.953 324.103 559.086 311.788 570.742 291.035C582.428 270.229 576.473 252.26 576.159 233.599Z" stroke="#F1F8F6" stroke-width="0.494104"/>
<path opacity="0.773109" fill-rule="evenodd" clip-rule="evenodd" d="M578.362 232.65C577.668 214.44 577.406 196.359 569.987 181.955C561.417 165.314 552.177 147.97 532.136 142.899C510.967 137.542 483.264 139.678 456.485 153.232C430.211 166.531 409.971 191.933 390.228 214.725C373.15 234.441 361.021 255.168 349.762 276.44C338.445 297.823 328.474 318.805 324.204 339.473C319.218 363.606 301.861 400.949 322.932 406.309C347.974 412.678 389.186 361.039 416.878 363.046C445.157 365.095 429.606 422.799 461.281 416.335C488.758 410.729 497.147 366.421 518.651 342.28C535.674 323.17 562.776 310.472 574.097 289.687C585.446 268.85 579.068 251.145 578.362 232.65Z" stroke="#F1F8F6" stroke-width="0.494104"/>
<path opacity="0.781513" fill-rule="evenodd" clip-rule="evenodd" d="M580.566 231.74C579.486 213.699 578.845 195.78 571.064 181.634C562.075 165.292 552.396 148.266 532.083 143.601C510.626 138.673 482.737 141.29 456.016 155.212C429.8 168.87 409.921 194.418 390.488 217.371C373.678 237.225 361.88 257.992 350.971 279.283C340.005 300.686 330.388 321.667 326.513 342.233C321.989 366.248 305.265 403.581 326.624 408.514C352.007 414.376 392.486 362.438 420.452 363.927C449.01 365.448 434.531 422.933 466.336 415.953C493.925 409.899 501.46 365.822 522.641 341.501C539.407 322.249 566.472 309.17 577.453 288.361C588.463 267.499 581.663 250.062 580.566 231.74Z" stroke="#F1F8F6" stroke-width="0.494104"/>
<path opacity="0.789916" fill-rule="evenodd" clip-rule="evenodd" d="M582.773 230.868C581.308 213.003 580.289 195.25 572.148 181.367C562.743 165.329 552.629 148.625 532.049 144.367C510.31 139.87 482.243 142.969 455.589 157.253C429.439 171.267 409.927 196.954 390.81 220.059C374.274 240.046 362.81 260.846 352.254 282.15C341.643 303.566 332.382 324.54 328.904 344.998C324.842 368.887 308.757 406.2 330.397 410.704C356.114 416.056 395.849 363.836 424.079 364.806C452.907 365.797 439.505 423.047 471.43 415.553C499.123 409.052 505.802 365.22 526.653 340.727C543.158 321.338 570.175 307.883 580.815 287.056C591.482 266.175 584.261 249.011 582.773 230.868Z" stroke="#F1F8F6" stroke-width="0.494104"/>
<path opacity="0.798319" fill-rule="evenodd" clip-rule="evenodd" d="M584.982 230.037C583.132 212.354 581.734 194.773 573.236 181.157C563.419 165.428 552.872 149.051 532.031 145.202C510.017 141.137 481.78 144.716 455.202 159.359C429.126 173.724 409.986 199.541 391.192 222.792C374.934 242.905 363.808 263.733 353.608 285.044C343.354 306.466 334.454 327.426 331.373 347.77C327.776 371.525 312.334 408.806 334.248 412.88C360.291 417.721 399.269 365.234 427.755 365.686C456.844 366.148 444.524 423.145 476.559 415.138C504.347 408.193 510.169 364.619 530.683 339.961C546.921 320.441 573.884 306.615 584.178 285.775C594.499 264.882 586.86 247.997 584.982 230.037Z" stroke="#F1F8F6" stroke-width="0.494104"/>
<path opacity="0.806723" fill-rule="evenodd" clip-rule="evenodd" d="M587.195 229.245C584.961 211.747 583.186 194.344 574.333 181C564.106 165.584 553.129 149.539 532.035 146.1C509.752 142.468 481.354 146.527 454.859 161.523C428.865 176.236 410.104 202.176 391.637 225.565C375.663 245.798 364.878 266.647 355.037 287.958C345.145 309.38 336.607 330.319 333.924 350.543C330.792 374.159 315.998 411.396 338.181 415.039C364.542 419.367 402.751 366.629 431.484 366.563C460.825 366.494 449.59 423.221 481.725 414.705C509.601 407.317 514.563 364.015 534.734 339.199C550.702 319.555 577.601 305.36 587.547 284.515C597.518 263.615 589.463 247.015 587.195 229.245Z" stroke="#F1F8F6" stroke-width="0.494104"/>
<path opacity="0.815126" fill-rule="evenodd" clip-rule="evenodd" d="M589.414 228.495C586.797 211.189 584.644 193.968 575.439 180.899C564.805 165.802 553.403 150.094 532.061 147.067C509.517 143.868 480.966 148.406 454.563 163.751C428.658 178.807 410.281 204.861 392.148 228.383C376.462 248.729 366.022 269.592 356.543 290.897C347.015 312.312 338.842 333.225 336.558 353.323C333.892 376.79 319.751 413.974 342.195 417.183C368.866 420.998 406.294 368.026 435.266 367.44C464.85 366.842 454.704 423.281 486.93 414.258C514.885 406.43 518.985 363.413 538.807 338.447C554.498 318.684 581.326 304.126 590.921 283.281C600.539 262.382 592.072 246.071 589.414 228.495Z" stroke="#F1F8F6" stroke-width="0.494104"/>
<path opacity="0.823529" fill-rule="evenodd" clip-rule="evenodd" d="M591.637 227.782C588.637 210.673 586.107 193.64 576.553 180.851C565.516 166.076 553.691 150.71 532.108 148.094C509.309 145.331 480.615 150.346 454.311 166.036C428.504 181.429 410.517 207.591 392.722 231.236C377.33 251.69 367.237 272.562 358.123 293.853C348.962 315.256 341.157 336.136 339.273 356.101C337.074 379.414 323.59 416.531 346.287 419.307C373.261 422.607 409.898 369.416 439.098 368.312C468.917 367.184 459.863 423.319 492.17 413.79C520.194 405.525 523.433 362.806 542.899 337.698C558.31 317.822 585.058 302.905 594.298 282.066C603.561 261.175 594.683 245.158 591.637 227.782Z" stroke="#8E1919" stroke-width="0.494104"/>
<path opacity="0.831933" fill-rule="evenodd" clip-rule="evenodd" d="M593.866 227.105C590.485 210.198 587.578 193.358 577.678 180.852C566.241 166.405 553.997 151.386 532.179 149.183C509.133 146.856 480.304 152.345 454.107 168.375C428.406 184.102 410.814 210.362 393.364 234.125C378.27 254.68 368.528 275.554 359.781 296.826C350.989 318.209 343.555 339.05 342.071 358.876C340.339 382.027 327.517 419.067 350.461 421.409C377.729 424.192 413.562 370.799 442.984 369.177C473.028 367.52 465.068 423.333 497.446 413.303C525.532 404.603 527.907 362.194 547.013 336.951C562.137 316.969 588.798 301.697 597.681 280.872C606.586 259.993 597.3 244.275 593.866 227.105Z" stroke="#8E1919" stroke-width="0.494104"/>
<path opacity="0.840336" fill-rule="evenodd" clip-rule="evenodd" d="M596.105 226.469C592.344 209.77 589.062 193.128 578.818 180.909C566.985 166.794 554.326 152.126 532.28 150.336C508.992 148.446 480.037 154.409 453.957 170.774C428.368 186.829 411.177 213.181 394.077 237.053C379.285 257.704 369.897 278.573 361.521 299.819C353.101 321.177 346.039 341.971 344.956 361.653C343.693 384.635 331.535 421.586 354.72 423.493C382.273 425.76 417.292 372.181 446.925 370.04C477.186 367.854 470.323 423.328 502.762 412.8C530.901 403.667 532.412 361.583 551.151 336.213C565.985 316.13 592.55 300.508 601.072 279.703C609.617 258.844 599.926 243.429 596.105 226.469Z" stroke="#8E1919" stroke-width="0.494104"/>
<path opacity="0.84874" fill-rule="evenodd" clip-rule="evenodd" d="M598.349 225.867C594.208 209.381 590.552 192.942 579.968 181.014C567.741 167.234 554.671 152.922 532.404 151.546C508.883 150.093 479.81 156.529 453.853 173.223C428.386 189.602 411.6 216.037 394.855 240.012C380.37 260.751 371.339 281.61 363.336 302.824C355.291 324.148 348.603 344.89 347.922 364.421C347.127 387.228 335.638 424.079 359.056 425.551C386.886 427.3 421.081 373.551 450.917 370.893C481.384 368.179 475.62 423.298 508.11 412.274C536.293 402.712 536.94 360.964 555.307 335.474C569.846 315.297 596.307 299.33 604.467 278.55C612.648 257.717 602.555 242.612 598.349 225.867Z" stroke="#8E1919" stroke-width="0.494104"/>
<path opacity="0.857143" fill-rule="evenodd" clip-rule="evenodd" d="M600.603 225.306C596.084 209.037 592.055 192.806 581.135 181.173C568.519 167.733 555.041 153.781 532.559 152.82C508.812 151.805 479.631 158.71 453.805 175.729C428.467 192.427 412.092 218.936 395.707 243.007C381.533 263.828 372.861 284.67 365.234 305.845C357.566 327.131 351.255 347.814 350.975 367.189C350.648 389.812 339.832 426.553 363.476 427.588C391.574 428.819 424.935 374.917 454.964 371.743C485.629 368.502 480.966 423.248 513.497 411.732C541.716 401.743 541.498 360.344 559.487 334.743C573.727 314.477 600.076 298.17 607.871 277.423C615.686 256.622 605.193 241.83 600.603 225.306Z" stroke="#8E1919" stroke-width="0.494104"/>
<path opacity="0.865546" fill-rule="evenodd" clip-rule="evenodd" d="M602.868 224.779C597.972 208.732 593.571 192.715 582.317 181.379C569.315 168.284 555.434 154.696 532.745 154.15C508.778 153.573 479.498 160.945 453.811 178.284C428.61 195.296 412.651 221.872 396.63 246.031C382.773 266.928 374.463 287.746 367.213 308.876C359.925 330.116 353.992 350.735 354.114 369.947C354.256 392.381 344.115 428.999 367.978 429.598C396.336 430.31 428.852 376.271 459.065 372.582C489.919 368.815 486.358 423.171 518.92 411.167C547.167 400.754 546.084 359.718 563.689 334.013C577.626 313.665 603.854 297.023 611.282 276.314C618.729 255.552 607.84 241.077 602.868 224.779Z" stroke="#8E1919" stroke-width="0.494104"/>
<path opacity="0.87395" fill-rule="evenodd" clip-rule="evenodd" d="M605.143 224.288C599.872 208.469 595.1 192.669 583.516 181.635C570.133 168.888 555.853 155.669 532.963 155.537C508.784 155.398 479.413 163.236 453.874 180.89C428.816 198.21 413.278 224.844 397.628 249.084C384.09 270.051 376.144 290.839 369.274 311.918C362.369 333.106 356.816 353.654 357.339 372.697C357.95 394.934 348.487 431.419 372.562 431.582C401.172 431.775 432.832 377.616 463.221 373.412C494.253 369.12 491.796 423.071 524.38 410.582C552.645 399.748 550.697 359.086 567.914 333.286C581.543 312.862 607.643 295.889 614.701 275.225C621.777 254.508 610.497 240.355 605.143 224.288Z" stroke="#8E1919" stroke-width="0.494104"/>
<path opacity="0.882353" fill-rule="evenodd" clip-rule="evenodd" d="M607.429 223.832C601.784 208.245 596.644 192.668 584.733 181.939C570.973 169.544 556.298 156.697 533.214 156.981C508.831 157.28 479.378 165.581 453.993 183.544C429.088 201.167 413.975 227.852 398.7 252.165C385.486 273.195 377.907 293.947 371.419 314.968C364.898 336.097 359.727 356.568 360.651 375.437C361.731 397.471 352.95 433.812 377.229 433.538C406.081 433.212 436.877 378.949 467.432 374.232C498.633 369.416 497.28 422.945 529.875 409.975C558.15 398.724 555.339 358.449 572.162 332.56C585.478 312.066 611.443 294.769 618.129 274.156C624.833 253.49 613.163 239.663 607.429 223.832Z" stroke="#8E1919" stroke-width="0.494104"/>
<path opacity="0.890756" fill-rule="evenodd" clip-rule="evenodd" d="M609.728 223.409C603.711 208.059 598.203 192.71 585.969 182.289C571.836 170.25 556.771 157.779 533.5 158.477C508.92 159.215 479.394 167.977 454.172 186.243C429.427 204.164 414.744 230.891 399.848 255.27C386.962 276.357 379.753 297.067 373.649 318.023C367.513 339.088 362.726 359.475 364.051 378.164C365.599 399.988 357.502 436.173 381.978 435.462C411.064 434.618 440.986 380.267 471.697 375.039C503.059 369.701 502.809 422.791 535.407 409.344C563.683 397.679 560.009 357.803 576.432 331.834C589.433 311.277 615.254 293.66 621.566 273.104C627.895 252.496 615.839 239 609.728 223.409Z" stroke="#8E1919" stroke-width="0.494104"/>
<path opacity="0.89916" fill-rule="evenodd" clip-rule="evenodd" d="M612.04 223.023C605.653 207.914 599.779 192.797 587.226 182.687C572.724 171.008 557.273 158.917 533.823 160.03C509.053 161.205 479.464 170.425 454.412 188.989C429.833 207.203 415.585 233.964 401.072 258.401C388.519 279.54 381.681 300.2 375.963 321.085C370.215 342.079 365.813 362.376 367.539 380.88C369.554 402.487 362.144 438.506 386.809 437.359C416.121 435.996 445.159 381.574 476.018 375.836C507.53 369.977 508.385 422.613 540.974 408.693C569.243 396.618 564.708 357.153 580.727 331.112C593.407 310.497 619.076 292.566 625.013 272.074C630.965 251.529 618.527 238.368 612.04 223.023Z" stroke="#8E1919" stroke-width="0.494104"/>
<path opacity="0.907563" fill-rule="evenodd" clip-rule="evenodd" d="M614.365 222.672C607.61 207.809 601.372 192.929 588.503 183.133C573.636 171.817 557.805 160.111 534.183 161.638C509.23 163.251 479.586 172.926 454.712 191.782C430.308 210.282 416.499 237.07 402.375 261.558C390.157 282.74 383.693 303.346 378.362 324.154C373.004 345.07 368.988 365.271 371.114 383.584C373.597 404.967 366.875 440.808 391.722 439.225C421.25 437.345 449.397 382.869 480.393 376.623C512.046 370.244 514.005 422.409 546.576 408.021C574.83 395.539 569.433 356.498 585.043 330.392C597.4 309.727 622.909 291.486 628.468 271.064C634.042 250.59 621.226 237.767 614.365 222.672Z" stroke="#8E1919" stroke-width="0.494104"/>
<path opacity="0.915966" fill-rule="evenodd" clip-rule="evenodd" d="M616.707 222.35C609.586 207.737 602.985 193.099 589.805 183.621C574.578 172.672 558.371 161.352 534.583 163.293C509.456 165.343 479.767 175.471 455.078 194.613C430.856 213.395 417.49 240.2 403.758 264.732C391.88 285.952 385.791 306.496 380.85 327.22C375.883 348.052 372.255 368.152 374.78 386.267C377.729 407.421 371.699 443.074 396.72 441.056C426.455 438.657 453.701 384.144 484.826 377.391C516.61 370.496 519.673 422.174 552.215 407.321C580.445 394.437 574.19 355.831 589.385 329.669C601.415 308.959 626.757 290.415 631.937 270.069C637.13 249.671 623.94 237.19 616.707 222.35Z" stroke="#8E1919" stroke-width="0.494104"/>
<path opacity="0.92437" fill-rule="evenodd" clip-rule="evenodd" d="M619.062 222.063C611.576 207.705 604.615 193.313 591.128 184.155C575.546 173.575 558.967 162.647 535.022 165.001C509.728 167.488 480.001 178.064 455.506 197.488C431.473 216.544 418.554 243.36 405.219 267.927C393.684 289.179 387.973 309.656 383.422 330.29C378.848 351.031 375.608 371.022 378.533 388.936C381.947 409.853 376.609 445.307 401.798 442.854C431.731 439.938 458.068 385.404 489.311 378.147C521.217 370.737 525.383 421.913 557.887 406.6C586.083 393.317 578.971 355.158 593.749 328.947C605.447 308.199 630.614 289.357 635.413 269.094C640.224 248.778 626.664 236.644 619.062 222.063Z" stroke="#8E1919" stroke-width="0.494104"/>
<path opacity="0.932773" fill-rule="evenodd" clip-rule="evenodd" d="M621.435 221.806C613.588 207.708 606.269 193.566 592.478 184.731C576.546 174.524 559.601 163.99 535.505 166.757C510.052 169.679 480.298 180.701 456.003 200.4C432.167 219.726 419.699 246.543 406.765 271.139C395.576 292.415 390.244 312.818 386.086 333.356C381.906 354.001 379.056 373.878 382.378 391.584C386.257 412.259 381.613 447.502 406.961 444.614C437.083 441.183 462.503 386.644 493.856 378.886C525.873 370.963 531.14 421.621 563.597 405.853C591.751 392.175 583.785 354.474 598.139 328.224C609.502 307.443 634.487 288.31 638.903 268.134C643.331 247.907 629.405 236.124 621.435 221.806Z" stroke="#8E1919" stroke-width="0.494104"/>
<path opacity="0.941176" fill-rule="evenodd" clip-rule="evenodd" d="M623.825 221.584C615.619 207.75 607.944 193.863 593.854 185.353C577.576 175.523 560.271 165.386 536.031 168.565C510.426 171.922 480.654 183.387 456.567 203.354C432.935 222.944 420.922 249.754 408.392 274.372C397.554 295.666 392.603 315.989 388.837 336.424C385.053 356.966 382.593 376.722 386.312 394.215C390.654 414.641 386.707 449.663 412.205 446.343C442.507 442.397 467.003 387.87 498.456 379.612C530.575 371.178 536.942 421.304 569.34 405.085C597.445 391.017 588.626 353.786 602.553 327.503C613.578 306.697 638.372 287.277 642.405 267.196C646.448 247.064 632.16 235.634 623.825 221.584Z" stroke="#8E1919" stroke-width="0.494104"/>
<path opacity="0.94958" fill-rule="evenodd" clip-rule="evenodd" d="M626.233 221.391C617.669 207.825 609.641 194.197 595.256 186.016C578.637 176.565 560.976 166.829 536.6 170.417C510.852 174.208 481.07 186.112 457.198 206.342C433.777 226.19 422.223 252.986 410.102 277.617C399.617 298.923 395.048 319.159 391.678 339.486C388.289 359.919 386.221 379.549 390.335 396.823C395.14 416.994 391.889 451.784 417.531 448.032C448.004 443.572 471.567 389.074 503.11 380.319C535.322 371.378 542.787 420.954 575.117 404.291C603.163 389.836 593.495 353.086 606.99 326.779C617.673 305.953 642.269 286.253 645.917 266.273C649.575 246.242 634.93 235.169 626.233 221.391Z" stroke="#8E1919" stroke-width="0.494104"/>
<path opacity="0.957983" fill-rule="evenodd" clip-rule="evenodd" d="M628.66 221.229C619.742 207.935 611.363 194.569 596.687 186.719C579.733 177.65 561.721 168.318 537.217 172.316C511.333 176.54 481.551 188.879 457.901 209.365C434.698 229.465 423.606 256.238 411.898 280.875C401.769 302.186 397.584 322.33 394.609 342.542C391.618 362.86 389.942 382.357 394.451 399.408C399.715 419.317 397.163 453.866 422.941 449.682C453.575 444.71 476.199 390.257 507.823 381.008C540.117 371.562 548.677 420.574 580.93 403.471C608.909 388.634 598.394 352.377 611.453 326.053C621.791 305.214 646.182 285.24 649.444 265.367C652.715 245.443 637.716 234.73 628.66 221.229Z" stroke="#8E1919" stroke-width="0.494104"/>
<path opacity="0.966387" fill-rule="evenodd" clip-rule="evenodd" d="M631.106 221.096C621.837 208.079 613.11 194.98 598.148 187.463C580.863 178.779 562.507 169.853 537.881 174.259C511.869 178.914 482.095 191.685 458.676 212.422C435.698 232.767 425.072 259.509 413.779 284.145C404.01 305.455 400.21 325.501 397.631 345.591C395.039 365.787 393.755 385.146 398.657 401.968C404.38 421.61 402.527 455.906 428.433 451.292C459.218 445.81 480.896 391.419 512.591 381.677C544.958 371.729 554.611 420.164 586.777 402.625C614.679 387.41 603.321 351.657 615.941 325.325C625.931 304.479 650.109 284.237 652.984 264.477C655.866 244.666 640.52 234.317 631.106 221.096Z" stroke="#8E1919" stroke-width="0.494104"/>
<path opacity="0.97479" fill-rule="evenodd" clip-rule="evenodd" d="M633.573 220.993C623.955 208.255 614.882 195.428 599.639 188.246C582.029 179.95 563.333 171.432 538.594 176.246C512.462 181.331 482.706 194.53 459.523 215.511C436.778 236.095 426.62 262.798 415.747 287.425C406.341 308.727 402.926 328.668 400.745 348.632C398.552 368.699 397.661 387.915 402.954 404.502C409.135 423.871 407.981 457.904 434.006 452.862C464.935 446.87 485.66 392.558 517.416 382.328C549.846 371.88 560.589 419.721 592.658 401.753C620.476 386.166 608.278 350.927 620.454 324.594C630.093 303.748 654.051 283.244 656.538 263.603C659.031 243.911 643.341 233.929 633.573 220.993Z" stroke="#8E1919" stroke-width="0.494104"/>
<path opacity="0.983193" fill-rule="evenodd" clip-rule="evenodd" d="M636.06 220.92C626.097 208.466 616.68 195.914 601.16 189.07C583.23 181.163 564.201 173.058 539.356 178.277C513.112 183.79 483.383 197.413 460.444 218.631C437.938 239.449 428.252 266.104 417.801 290.714C408.76 312.003 405.733 331.833 403.95 351.663C402.157 371.597 401.659 390.662 407.342 407.011C413.978 426.1 413.524 459.86 439.661 454.391C470.723 447.892 490.489 393.675 522.297 382.959C554.779 372.016 566.609 419.249 598.571 400.856C626.296 384.901 613.262 350.187 624.991 323.862C634.276 303.022 658.006 282.262 660.105 262.746C662.209 243.18 646.179 233.568 636.06 220.92Z" stroke="#8E1919" stroke-width="0.494104"/>
<path opacity="0.991597" fill-rule="evenodd" clip-rule="evenodd" d="M638.57 220.871C628.264 208.705 618.508 196.431 602.715 189.927C584.471 182.413 565.114 174.721 540.17 180.345C513.822 186.285 484.129 200.327 461.441 221.776C439.181 242.821 429.97 269.421 419.945 294.007C411.273 315.275 408.633 334.988 407.248 354.679C405.856 374.473 405.751 393.382 411.822 409.486C418.912 428.291 419.157 461.767 445.399 455.873C476.584 448.869 495.385 394.763 527.235 383.565C559.76 372.129 572.673 418.74 604.518 399.928C632.143 383.61 618.276 349.432 629.554 323.123C638.482 302.295 661.978 281.286 663.687 261.901C665.401 242.465 649.037 233.226 638.57 220.871Z" stroke="#8E1919" stroke-width="0.494104"/>
<path fill-rule="evenodd" clip-rule="evenodd" d="M641.103 220.849C630.457 208.974 620.364 196.983 604.304 190.821C585.751 183.702 566.072 176.426 541.038 182.452C514.593 188.817 484.945 203.274 462.515 224.948C440.508 246.213 431.774 272.75 422.178 297.305C413.877 318.545 411.626 338.136 410.64 357.682C409.649 377.33 409.937 396.077 416.395 411.932C423.935 430.446 424.88 463.628 451.218 457.311C482.518 449.803 500.347 395.826 532.23 384.149C564.788 372.224 578.781 418.198 610.499 398.973C638.014 382.297 623.319 348.666 634.143 322.379C642.711 301.571 665.965 280.318 667.285 261.07C668.608 241.772 651.915 232.908 641.103 220.849Z" stroke="#8E1919" stroke-width="0.494104"/>
</g>
</svg>
