<svg width="422" height="1177" viewBox="0 0 422 1177" fill="none" xmlns="http://www.w3.org/2000/svg">
<g opacity="0.4">
<path opacity="0.0840336" fill-rule="evenodd" clip-rule="evenodd" d="M-258.221 753.87C-222.182 733.969 -186.931 714.618 -154.53 687.2C-117.098 655.526 -77.8819 621.61 -56.5945 582.334C-34.1086 540.847 -23.0455 496.562 -34.3968 464.978C-45.5337 433.991 -83.1499 425.873 -116.573 415.746C-145.485 406.986 -180.059 407.471 -215.315 410.202C-250.754 412.948 -285.273 417.383 -323.308 431.372C-367.721 447.707 -431.791 457.242 -454.228 498.567C-480.891 547.678 -402.738 563.778 -422.365 612.911C-442.408 663.084 -546.875 696.433 -552.18 743.627C-556.781 784.566 -474.661 752.808 -439.597 764.543C-411.841 773.832 -402.184 807.421 -367.918 805.297C-333.563 803.167 -294.824 774.081 -258.221 753.87Z" stroke="#F1F8F6" stroke-width="0.818142"/>
<path opacity="0.092437" fill-rule="evenodd" clip-rule="evenodd" d="M-250.056 746.35C-214.133 725.971 -179.368 706.264 -147.266 678.512C-110.181 646.452 -71.5748 612.909 -50.9212 573.625C-29.1047 532.13 -18.3115 486.856 -30.4038 455.8C-42.2678 425.331 -80.9553 418.613 -114.859 409.215C-144.185 401.086 -177.74 402.087 -213.227 405.452C-248.898 408.836 -284.205 413.884 -322.262 428.447C-366.701 445.452 -430.662 455.827 -452.432 497.161C-478.304 546.281 -400.076 561.297 -418.853 610.308C-438.028 660.356 -542.299 694.567 -546.678 741.389C-550.476 782.006 -468.526 749.838 -432.936 760.797C-404.763 769.472 -393.738 801.808 -359.236 799.062C-324.646 796.308 -286.541 767.046 -250.056 746.35Z" stroke="#F1F8F6" stroke-width="0.818142"/>
<path opacity="0.10084" fill-rule="evenodd" clip-rule="evenodd" d="M-242.926 739.849C-207.124 718.995 -171.973 698.476 -140.18 670.372C-103.452 637.904 -65.6463 603.877 -45.6428 564.531C-24.5129 522.97 -14.6145 478.355 -27.4646 447.75C-40.072 417.723 -79.1339 411.133 -113.526 402.404C-143.276 394.853 -177.752 396.467 -213.472 400.431C-249.378 404.417 -284.344 410.632 -322.421 425.753C-366.883 443.41 -430.744 454.567 -451.831 495.968C-476.89 545.167 -397.772 558.412 -415.679 607.378C-433.964 657.38 -538.731 693.702 -542.161 740.243C-545.136 780.615 -462.51 747.365 -426.384 757.614C-397.787 765.726 -387.192 797.661 -352.452 794.329C-317.623 790.987 -279.288 761.03 -242.926 739.849Z" stroke="#F1F8F6" stroke-width="0.818142"/>
<path opacity="0.109244" fill-rule="evenodd" clip-rule="evenodd" d="M-235.832 732.37C-200.156 711.042 -165.496 690.208 -134.016 661.759C-97.649 628.893 -59.5235 594.863 -40.1708 555.471C-19.7285 513.861 -10.9703 468.963 -24.574 438.829C-37.9208 409.265 -77.3767 402.817 -112.251 394.77C-142.418 387.809 -176.684 390.519 -212.632 395.089C-248.767 399.683 -284.486 406.594 -322.577 422.274C-367.056 440.584 -431.946 452.065 -452.349 493.514C-476.594 542.772 -395.212 555.644 -412.248 604.542C-429.644 654.476 -535.139 691.955 -537.623 738.189C-539.778 778.296 -457.607 743.485 -420.952 753.009C-391.935 760.547 -379.791 792.047 -344.819 788.122C-309.757 784.186 -272.067 754.031 -235.832 732.37Z" stroke="#F1F8F6" stroke-width="0.818142"/>
<path opacity="0.117647" fill-rule="evenodd" clip-rule="evenodd" d="M-227.773 725.907C-192.226 704.109 -158.07 682.945 -126.898 654.184C-90.8868 620.958 -52.7412 585.856 -34.0179 546.507C-14.2404 504.941 -6.11038 461.536 -20.4331 431.989C-34.4853 403 -74.1114 397.501 -109.439 390.221C-139.998 383.924 -175.201 387.177 -211.357 392.401C-247.703 397.652 -283.624 403.75 -321.718 420.008C-366.201 438.991 -430.692 452.282 -450.432 493.688C-473.891 542.894 -392.731 553.669 -408.927 602.379C-425.466 652.119 -530.19 692.392 -531.766 738.182C-533.134 777.903 -450.541 741.206 -413.388 749.912C-383.977 756.804 -372.257 788.001 -337.071 783.434C-301.795 778.855 -263.875 748.045 -227.773 725.907Z" stroke="#F1F8F6" stroke-width="0.818142"/>
<path opacity="0.12605" fill-rule="evenodd" clip-rule="evenodd" d="M-220.749 718.464C-185.338 696.199 -150.827 674.218 -119.974 645.128C-84.3301 611.522 -47.0122 575.974 -28.9373 536.612C-9.84462 495.034 -2.85544 451.4 -17.9176 422.365C-32.6954 393.877 -73.2669 390.019 -109.06 383.448C-140.022 377.764 -174.428 380.643 -210.798 386.485C-247.358 392.358 -283.738 400.139 -321.835 416.958C-366.32 436.598 -431.543 451.205 -450.601 492.624C-473.25 541.846 -390.092 551.197 -405.423 599.793C-421.079 649.418 -526.824 689.925 -527.465 735.358C-528.022 774.77 -445.639 737.476 -407.975 745.428C-378.159 751.722 -364.89 782.426 -329.485 777.252C-293.99 772.065 -256.714 741.078 -220.749 718.464Z" stroke="#F1F8F6" stroke-width="0.818142"/>
<path opacity="0.134454" fill-rule="evenodd" clip-rule="evenodd" d="M-214.608 711.574C-179.395 688.88 -144.43 666.003 -113.953 636.627C-78.7451 602.689 -41.8172 567.59 -24.4319 528.26C-6.06774 486.716 -0.201977 442.864 -15.9886 414.356C-31.4772 386.386 -72.5005 382.749 -108.704 376.872C-140.02 371.788 -175.096 376.343 -211.62 382.779C-248.335 389.248 -284.728 397.314 -322.761 414.658C-367.172 434.911 -432.378 450.394 -450.711 491.78C-472.497 540.963 -388.625 548.485 -403.051 596.918C-417.784 646.376 -523.143 688.548 -522.835 733.586C-522.568 772.654 -440.352 734.743 -402.235 741.955C-372.06 747.664 -358.337 777.37 -322.773 771.614C-287.117 765.844 -250.371 734.623 -214.608 711.574Z" stroke="#F1F8F6" stroke-width="0.818142"/>
<path opacity="0.142857" fill-rule="evenodd" clip-rule="evenodd" d="M-207.649 705.177C-172.64 682.056 -138.541 660.315 -108.452 630.635C-73.692 596.348 -36.9729 559.392 -20.3011 520.044C-2.69068 478.48 2.46363 435.541 -14.0753 407.488C-30.302 379.965 -71.7295 376.729 -108.361 371.489C-140.047 366.956 -175.23 371.826 -211.916 378.82C-248.793 385.85 -285.183 394.264 -323.153 412.117C-367.491 432.965 -432.692 449.274 -450.275 490.681C-471.169 539.888 -387.529 545.922 -401.019 594.262C-414.795 643.626 -519.454 688.181 -518.162 732.906C-517.041 771.704 -435.415 732.07 -396.825 738.604C-366.276 743.776 -350.968 772.763 -315.234 766.46C-279.409 760.141 -243.206 728.659 -207.649 705.177Z" stroke="#F1F8F6" stroke-width="0.818142"/>
<path opacity="0.151261" fill-rule="evenodd" clip-rule="evenodd" d="M-199.727 697.792C-164.866 674.211 -130.422 651.637 -100.658 621.652C-66.2743 587.012 -31.256 550.216 -15.2261 510.908C1.70637 469.387 6.91518 426.683 -10.3389 399.204C-27.2672 372.244 -69.1203 369.232 -106.189 364.743C-138.254 360.859 -173.94 367.363 -210.818 374.997C-247.888 382.67 -284.189 391.305 -322.143 409.723C-366.462 431.23 -432.352 448.901 -449.259 490.266C-469.351 539.423 -383.746 543.904 -396.384 592.061C-409.29 641.238 -514.646 687.023 -512.441 731.315C-510.528 769.736 -428.662 728.034 -389.59 733.768C-358.661 738.307 -343.487 767.791 -307.556 760.861C-271.533 753.912 -235.133 721.741 -199.727 697.792Z" stroke="#F1F8F6" stroke-width="0.818142"/>
<path opacity="0.159664" fill-rule="evenodd" clip-rule="evenodd" d="M-193.669 691.988C-159.019 667.989 -124.959 645.058 -95.5775 614.812C-61.6345 579.871 -26.1389 542.992 -10.7883 503.769C5.42653 462.338 9.50346 419.493 -8.44709 392.603C-26.0587 366.221 -67.9884 364.4 -105.437 360.644C-137.831 357.395 -174.064 363.219 -211.073 371.465C-248.274 379.753 -285.015 390.159 -322.887 409.103C-367.112 431.225 -432.953 449.793 -449.146 491.069C-468.389 540.12 -382.161 542.702 -393.913 590.624C-405.913 639.561 -510.794 687 -507.666 730.819C-504.952 768.829 -423.279 726.508 -383.786 731.459C-352.523 735.378 -336.132 763.263 -300.064 755.732C-263.903 748.181 -228.86 716.362 -193.669 691.988Z" stroke="#F1F8F6" stroke-width="0.818142"/>
<path opacity="0.168067" fill-rule="evenodd" clip-rule="evenodd" d="M-186.812 684.647C-152.378 660.231 -118.695 636.977 -89.7077 606.454C-56.22 571.193 -21.4377 533.977 -6.79291 494.791C8.67643 453.398 11.6839 410.607 -6.99426 384.237C-25.3197 358.364 -67.2141 357.887 -105.064 354.811C-137.804 352.15 -174.153 358.323 -211.302 367.147C-248.645 376.018 -285.359 386.782 -323.152 406.238C-367.283 428.957 -433.09 448.374 -448.54 489.613C-466.901 538.62 -380.56 540.578 -391.389 588.333C-402.448 637.101 -507.36 685.088 -503.27 728.513C-499.722 766.183 -418.313 723.072 -378.376 727.299C-346.761 730.645 -329.635 758.279 -293.419 750.179C-257.109 742.059 -221.785 709.444 -186.812 684.647Z" stroke="#F1F8F6" stroke-width="0.818142"/>
<path opacity="0.176471" fill-rule="evenodd" clip-rule="evenodd" d="M-179.808 678.896C-145.593 654.067 -111.475 629.918 -82.8833 599.127C-49.8527 563.556 -15.7898 526.021 -1.84731 486.89C12.8802 445.555 15.2764 403.736 -4.11994 377.907C-23.15 352.566 -66.7072 352.234 -104.948 349.852C-138.026 347.791 -174.028 355.207 -211.311 364.618C-248.788 374.078 -285.476 385.204 -323.183 405.172C-367.213 428.49 -432.977 448.763 -447.689 489.944C-465.172 538.883 -377.543 538.154 -387.455 585.719C-397.578 634.291 -502.436 685.198 -497.393 728.203C-493.017 765.509 -412.336 720.719 -371.966 724.206C-340.008 726.966 -322.144 754.325 -285.787 745.649C-249.337 736.952 -214.557 704.113 -179.808 678.896Z" stroke="#F1F8F6" stroke-width="0.818142"/>
<path opacity="0.184874" fill-rule="evenodd" clip-rule="evenodd" d="M-173.018 671.588C-139.027 646.349 -105.298 621.882 -77.1035 590.832C-44.5315 554.961 -11.1934 517.124 2.0512 478.065C16.0415 436.808 17.3825 395.096 -2.72134 369.83C-22.4456 345.041 -65.9178 346.075 -104.538 344.4C-137.946 342.951 -174.042 350.722 -211.45 360.725C-249.052 370.781 -285.714 382.274 -323.328 402.756C-367.251 426.673 -433.771 448.395 -447.749 489.5C-464.36 538.349 -375.83 536.362 -384.834 583.712C-394.029 632.065 -498.916 683.546 -492.93 726.105C-487.737 763.022 -406.854 718.322 -366.063 721.054C-333.772 723.216 -315.657 749.401 -279.168 740.143C-242.585 730.862 -207.54 697.222 -173.018 671.588Z" stroke="#F1F8F6" stroke-width="0.818142"/>
<path opacity="0.193277" fill-rule="evenodd" clip-rule="evenodd" d="M-167.069 665.893C-133.306 640.247 -99.969 615.469 -72.1722 584.167C-40.0601 548.006 -6.64907 509.288 5.90307 470.321C19.162 429.159 19.4451 387.587 -1.35417 362.904C-21.7606 338.688 -65.1008 341.079 -104.089 340.126C-137.815 339.301 -174.006 347.434 -211.53 358.038C-249.249 368.697 -286.686 381.159 -324.202 402.155C-368.01 426.672 -434.46 449.27 -447.709 490.28C-463.454 539.016 -374.546 534.876 -382.65 581.986C-390.925 630.094 -495.354 683.033 -488.437 725.119C-482.437 761.626 -401.016 715.529 -359.816 717.49C-327.202 719.042 -308.372 744.915 -271.759 735.068C-235.052 725.195 -201.359 691.94 -167.069 665.893Z" stroke="#F1F8F6" stroke-width="0.818142"/>
<path opacity="0.201681" fill-rule="evenodd" clip-rule="evenodd" d="M-160.144 659.227C-126.669 633.218 -93.6195 608.054 -66.2738 576.549C-34.6828 540.152 -1.91139 501.083 9.91438 462.254C22.406 421.239 22.2013 380.656 0.727095 356.573C-20.3416 332.945 -64.6228 335.031 -103.923 334.78C-137.917 334.563 -173.756 343.979 -211.337 355.151C-249.114 366.381 -286.62 379.31 -323.975 400.778C-367.594 425.846 -434.07 449.409 -446.555 490.273C-461.392 538.836 -371.72 533.448 -378.892 580.264C-386.217 628.073 -490.227 682.512 -482.372 724.084C-475.559 760.145 -394.918 712.369 -353.368 713.579C-320.478 714.536 -300.852 740.008 -264.173 729.602C-227.399 719.168 -194.143 685.641 -160.144 659.227Z" stroke="#F1F8F6" stroke-width="0.818142"/>
<path opacity="0.210084" fill-rule="evenodd" clip-rule="evenodd" d="M-153.454 652.973C-120.215 626.564 -87.5641 601.101 -60.6171 569.361C-29.4866 532.693 3.0983 494.195 14.2458 455.492C26.021 414.609 24.2221 373.384 2.081 349.926C-19.642 326.91 -63.7416 330.361 -103.382 330.858C-137.672 331.289 -173.58 341.07 -211.258 352.855C-249.133 364.701 -286.6 378.022 -323.843 400.005C-367.332 425.675 -433.711 450.126 -445.483 490.859C-459.472 539.266 -369.747 533.138 -376.041 579.669C-382.469 627.185 -486.53 682.245 -477.774 723.293C-470.178 758.901 -389.835 710.32 -347.906 710.731C-314.715 711.056 -294.382 736.166 -257.598 725.157C-220.719 714.119 -187.213 679.795 -153.454 652.973Z" stroke="#F1F8F6" stroke-width="0.818142"/>
<path opacity="0.218487" fill-rule="evenodd" clip-rule="evenodd" d="M-147.586 646.353C-114.642 619.588 -82.271 593.772 -55.7896 561.824C-25.197 524.916 6.82229 486.167 17.2173 447.577C28.1975 406.814 25.4807 365.941 2.6376 343.039C-19.7742 320.57 -64.1735 324.739 -104.141 325.902C-138.713 326.909 -174.712 337.221 -212.453 349.551C-250.39 361.944 -287.885 375.794 -324.964 398.236C-368.261 424.441 -434.67 449.822 -445.649 490.437C-458.698 538.703 -368.343 531.107 -373.672 577.381C-379.114 624.636 -482.855 681.026 -473.126 721.606C-464.686 756.807 -384.723 707.248 -342.428 706.947C-308.948 706.709 -287.891 731.279 -251.035 719.734C-214.085 708.16 -181.045 673.536 -147.586 646.353Z" stroke="#F1F8F6" stroke-width="0.818142"/>
<path opacity="0.226891" fill-rule="evenodd" clip-rule="evenodd" d="M-140.744 639.762C-108.097 612.646 -76.0262 586.458 -49.9946 554.332C-19.9215 517.218 11.469 478.147 21.1626 439.747C31.402 399.186 28.2752 359.344 4.80337 337.101C-18.2252 315.277 -63.0158 320.041 -103.252 321.943C-138.057 323.588 -174.809 333.555 -212.577 346.471C-250.543 359.453 -287.489 374.586 -324.387 397.5C-367.473 424.256 -433.863 450.623 -444.105 491.038C-456.276 539.066 -365.805 529.332 -370.241 575.243C-374.771 622.128 -477.436 680.825 -466.817 720.816C-457.606 755.507 -378.529 704.318 -335.931 703.226C-302.21 702.361 -280.378 726.456 -243.485 714.335C-206.497 702.182 -173.9 667.302 -140.744 639.762Z" stroke="#F1F8F6" stroke-width="0.818142"/>
<path opacity="0.235294" fill-rule="evenodd" clip-rule="evenodd" d="M-134.927 634.194C-102.53 606.685 -70.0812 579.599 -44.4638 547.24C-14.8694 509.858 15.8559 470.64 24.8518 432.357C34.3542 391.919 30.317 352.492 6.16592 330.851C-17.5291 309.619 -62.5481 315.09 -103.126 317.719C-138.226 319.992 -175.76 331.092 -213.621 344.603C-251.678 358.185 -288.512 373.757 -325.287 397.173C-368.231 424.517 -434.514 451.745 -444.022 492.038C-455.321 539.922 -363.437 527.965 -366.97 573.606C-370.579 620.214 -473.569 680.817 -462.028 720.306C-452.017 754.561 -373.389 702.429 -330.41 700.561C-296.388 699.082 -273.94 722.661 -236.947 709.953C-199.859 697.213 -167.831 662.133 -134.927 634.194Z" stroke="#F1F8F6" stroke-width="0.818142"/>
<path opacity="0.243697" fill-rule="evenodd" clip-rule="evenodd" d="M-129.137 627.655C-97.0456 599.801 -64.894 572.364 -39.7416 539.823C-10.6843 502.23 19.4748 462.797 27.742 424.68C36.4747 384.416 31.5756 345.398 6.7676 324.375C-17.5719 303.748 -62.8533 309.979 -103.716 313.312C-139.063 316.195 -176.678 327.872 -214.572 341.946C-252.663 356.093 -289.478 372.191 -326.071 396.067C-368.799 423.947 -435.067 452.129 -443.808 492.249C-454.196 539.926 -361.792 526.426 -364.397 571.74C-367.057 618.015 -469.637 679.945 -457.171 718.89C-446.356 752.673 -368.164 699.579 -324.864 696.957C-290.588 694.881 -267.456 717.856 -230.42 704.594C-193.289 691.298 -161.729 655.945 -129.137 627.655Z" stroke="#F1F8F6" stroke-width="0.818142"/>
<path opacity="0.252101" fill-rule="evenodd" clip-rule="evenodd" d="M-122.373 622.139C-90.592 593.943 -58.7412 566.159 -34.053 533.444C-5.53201 495.649 24.062 456.011 31.6098 418.076C39.5826 378.005 33.8364 339.417 8.38833 319.03C-16.5792 299.028 -62.107 306.03 -103.239 310.079C-138.819 313.581 -176.505 325.842 -214.422 340.484C-252.536 355.203 -289.324 371.832 -325.726 396.166C-368.232 424.581 -434.466 453.726 -442.451 493.654C-451.939 541.104 -359.049 526.037 -360.739 571.003C-362.464 616.922 -464.614 680.182 -451.239 718.559C-439.637 751.85 -361.894 697.793 -318.29 694.404C-283.773 691.722 -259.975 714.074 -222.906 700.253C-185.742 686.396 -154.651 650.776 -122.373 622.139Z" stroke="#F1F8F6" stroke-width="0.818142"/>
<path opacity="0.260504" fill-rule="evenodd" clip-rule="evenodd" d="M-116.637 615.648C-85.221 587.16 -54.3211 559.607 -30.1454 526.769C-2.21648 488.832 26.9084 448.914 33.709 411.21C40.8925 371.384 34.3488 333.217 8.28511 313.478C-17.2864 294.112 -63.0907 301.938 -104.436 306.678C-140.2 310.778 -177.279 323.037 -215.161 338.211C-253.241 353.464 -290.09 370.716 -326.242 395.462C-368.456 424.358 -434.74 454.563 -441.938 494.248C-450.493 541.409 -357.984 525.492 -358.735 570.055C-359.503 615.562 -460.512 679.541 -446.228 717.312C-433.838 750.075 -356.533 695.035 -312.685 690.905C-277.974 687.636 -253.448 709.277 -216.403 694.931C-179.262 680.548 -148.544 644.582 -116.637 615.648Z" stroke="#F1F8F6" stroke-width="0.818142"/>
<path opacity="0.268908" fill-rule="evenodd" clip-rule="evenodd" d="M-110.929 610.181C-79.8306 581.357 -49.2131 553.491 -25.5178 520.475C1.85607 482.334 30.4917 442.301 36.5419 404.759C42.9327 365.103 34.9913 326.826 8.25367 307.687C-17.9791 288.909 -63.872 297.651 -105.507 303.075C-141.522 307.767 -177.867 321.396 -215.781 337.116C-253.893 352.919 -291.36 370.048 -327.319 395.239C-369.31 424.656 -435.563 455.797 -441.972 495.313C-449.588 542.273 -356.083 525.323 -355.879 569.569C-355.67 614.751 -457.079 679.196 -441.844 716.437C-428.627 748.742 -351.222 693.318 -307.047 688.455C-272.077 684.606 -246.999 705.513 -209.912 690.629C-172.73 675.706 -142.513 639.456 -110.929 610.181Z" stroke="#F1F8F6" stroke-width="0.818142"/>
<path opacity="0.277311" fill-rule="evenodd" clip-rule="evenodd" d="M-105.249 603.736C-74.471 574.581 -44.1591 546.383 -20.9246 513.216C5.91691 474.901 33.993 434.687 39.3551 397.373C45.0192 357.959 36.2655 320.185 8.94295 301.734C-17.8637 283.631 -63.9457 293.171 -105.801 299.343C-142.007 304.682 -178.371 318.883 -216.274 335.185C-254.375 351.573 -291.801 369.263 -327.55 394.912C-369.293 424.863 -435.457 456.988 -441.142 496.264C-447.898 542.939 -353.991 524.354 -352.918 568.189C-351.822 612.953 -452.765 678.749 -436.68 715.357C-422.727 747.113 -345.8 690.713 -301.373 685.049C-266.204 680.565 -240.519 700.8 -203.433 685.342C-166.251 669.843 -136.507 633.347 -105.249 603.736Z" stroke="#F1F8F6" stroke-width="0.818142"/>
<path opacity="0.285714" fill-rule="evenodd" clip-rule="evenodd" d="M-99.324 599.001C-68.9224 569.564 -38.8011 540.964 -16.0935 507.681C10.1393 469.23 37.0802 428.161 41.6745 391.074C46.5274 351.9 37.894 315.398 9.93909 297.576C-17.4879 280.092 -64.4039 289.933 -106.478 296.775C-142.872 302.693 -179.241 317.615 -217.108 334.433C-255.173 351.338 -292.597 369.723 -328.088 395.77C-369.531 426.184 -435.726 459.353 -440.603 498.391C-446.399 544.783 -351.633 523.805 -349.596 567.246C-347.515 611.608 -447.442 679.327 -430.424 715.343C-415.662 746.586 -339.341 689.068 -294.663 682.686C-259.295 677.633 -233.029 697.037 -195.967 681.071C-158.809 665.064 -130.201 628.897 -99.324 599.001Z" stroke="#F1F8F6" stroke-width="0.818142"/>
<path opacity="0.294118" fill-rule="evenodd" clip-rule="evenodd" d="M-93.6956 592.609C-63.6229 562.846 -33.7945 533.937 -11.5649 500.5C14.1158 461.871 40.5638 420.72 44.4373 383.842C48.5289 344.887 38.5142 308.366 9.93882 291.198C-18.097 274.354 -64.2792 285.782 -106.595 293.342C-143.198 299.88 -180.24 314.806 -218.106 332.185C-256.169 349.655 -293.48 368.645 -328.758 395.137C-369.952 426.072 -436.059 460.2 -440.178 499.019C-445.073 545.152 -350.145 522.377 -347.196 565.439C-344.184 609.413 -443.75 678.327 -425.837 713.748C-410.298 744.474 -333.866 686.514 -288.914 679.362C-253.329 673.701 -226.584 692.338 -189.513 675.818C-152.347 659.256 -124.238 622.836 -93.6956 592.609Z" stroke="#F1F8F6" stroke-width="0.818142"/>
<path opacity="0.302521" fill-rule="evenodd" clip-rule="evenodd" d="M-88.0973 587.238C-58.407 557.202 -28.7788 527.89 -7.0731 494.352C18.0023 455.606 43.3435 414.993 46.4708 378.372C49.7741 339.689 39.1845 303.789 10.0139 287.283C-18.6058 271.089 -65.6033 282.862 -108.105 291.11C-144.869 298.245 -181.896 313.914 -219.704 331.815C-257.71 349.81 -294.276 368.795 -329.283 395.683C-370.161 427.079 -436.258 462.267 -439.591 500.816C-443.553 546.628 -347.81 522.753 -343.929 565.381C-339.965 608.912 -439.208 679.085 -420.402 713.872C-404.088 744.048 -329.003 685.671 -283.834 677.78C-248.078 671.533 -220.806 689.321 -183.781 672.285C-146.661 655.206 -118.251 617.743 -88.0973 587.238Z" stroke="#F1F8F6" stroke-width="0.818142"/>
<path opacity="0.310924" fill-rule="evenodd" clip-rule="evenodd" d="M-82.2327 581.6C-52.928 551.294 -23.5054 521.579 -2.32176 487.947C22.1506 449.094 47.1073 408.321 49.5001 371.971C52.0276 333.575 40.8894 298.299 11.1433 282.47C-18.0411 266.94 -65.8595 279.1 -108.529 288.045C-145.44 295.783 -182.433 312.195 -220.172 330.622C-258.108 349.146 -294.632 368.822 -329.361 396.104C-369.914 427.961 -435.276 463.504 -437.836 501.768C-440.879 547.241 -345.137 521.623 -340.34 563.799C-335.442 606.867 -433.542 678.91 -413.864 713.044C-396.794 742.654 -323.162 682.573 -277.796 673.933C-241.884 667.094 -213.312 684.625 -176.345 667.071C-139.282 649.471 -111.995 612.378 -82.2327 581.6Z" stroke="#F1F8F6" stroke-width="0.818142"/>
<path opacity="0.319328" fill-rule="evenodd" clip-rule="evenodd" d="M-76.6893 575.274C-47.7734 544.703 -19.2568 515.303 1.40682 481.585C25.2784 442.632 49.8546 401.7 51.5251 365.634C53.2897 327.538 40.8135 292.31 10.5123 277.171C-19.2167 262.318 -65.5334 275.344 -108.354 284.993C-145.395 293.34 -183.15 309.916 -220.809 328.872C-258.663 347.926 -295.128 368.294 -329.572 395.969C-369.793 428.284 -435.106 464.894 -436.906 502.86C-439.046 547.979 -343.232 521.915 -337.538 563.621C-331.724 606.211 -429.564 678.213 -409.036 711.677C-391.229 740.705 -317.476 680.131 -271.932 670.734C-235.878 663.296 -206.82 679.943 -169.921 661.867C-132.928 643.744 -106.057 606.323 -76.6893 575.274Z" stroke="#F1F8F6" stroke-width="0.818142"/>
<path opacity="0.327731" fill-rule="evenodd" clip-rule="evenodd" d="M-71.8667 570.698C-43.3429 539.865 -15.0357 510.067 5.10988 476.27C28.383 437.225 52.5825 396.132 53.5433 360.363C54.5582 322.579 41.5706 288.001 10.7353 273.564C-19.5177 259.399 -66.6376 272.843 -109.592 283.203C-146.747 292.165 -184.444 309.503 -222.01 328.989C-259.771 348.575 -296.159 369.636 -330.311 397.702C-370.191 430.474 -435.432 468.155 -436.486 505.811C-437.738 550.561 -341.312 522.015 -334.74 563.237C-328.028 605.333 -424.658 679.17 -403.304 711.948C-384.78 740.382 -311.729 678.724 -266.026 668.564C-229.847 660.521 -200.33 676.28 -163.513 657.68C-126.601 639.031 -100.836 602.012 -71.8667 570.698Z" stroke="#F1F8F6" stroke-width="0.818142"/>
<path opacity="0.336134" fill-rule="evenodd" clip-rule="evenodd" d="M-65.3821 564.419C-37.2549 533.327 -9.13971 503.146 10.4676 469.261C33.1188 430.116 55.5093 389.118 55.7108 353.615C55.9236 316.113 42.6016 282.279 11.1691 268.501C-19.6698 254.983 -67.4478 268.977 -110.579 280.014C-147.889 289.56 -184.57 308.251 -222.067 328.244C-259.759 348.343 -296.169 368.859 -330.036 397.305C-369.584 430.521 -434.777 469.248 -435.031 506.623C-435.334 551.039 -338.361 521.167 -330.842 561.946C-323.164 603.588 -419.565 678.572 -397.308 710.712C-378 738.593 -305.832 675.765 -259.921 664.879C-223.578 656.261 -193.557 672.34 -156.796 653.237C-119.941 634.085 -93.9488 595.996 -65.3821 564.419Z" stroke="#F1F8F6" stroke-width="0.818142"/>
<path opacity="0.344538" fill-rule="evenodd" clip-rule="evenodd" d="M-60.6016 559.9C-32.9212 528.605 -5.58318 498.68 13.443 464.764C35.4229 425.582 58.2839 383.665 57.703 348.48C57.0894 311.314 41.9648 278.411 9.95986 265.299C-21.4407 252.435 -69.0536 267.57 -112.309 279.25C-149.726 289.353 -186.462 307.658 -223.837 328.118C-261.408 348.683 -297.764 370.034 -331.293 398.806C-370.444 432.403 -434.987 471.541 -434.418 508.583C-433.743 552.603 -337.857 521.689 -329.373 561.97C-320.709 603.104 -415.387 679.078 -392.23 710.544C-372.142 737.84 -300.674 675.09 -254.612 663.511C-218.149 654.345 -187.059 668.643 -150.407 649.079C-113.66 629.466 -88.7146 591.684 -60.6016 559.9Z" stroke="#F1F8F6" stroke-width="0.818142"/>
<path opacity="0.352941" fill-rule="evenodd" clip-rule="evenodd" d="M-55.8415 554.418C-28.5631 522.873 -1.65614 491.316 16.858 457.339C38.2464 418.088 60.9389 377.259 59.6855 342.403C58.3616 305.584 41.9315 272.857 9.45495 260.479C-22.4083 248.336 -69.9302 264.467 -113.265 276.873C-150.75 287.605 -187.371 306.653 -224.617 327.646C-262.058 348.75 -298.305 370.802 -331.52 399.96C-370.305 434.007 -434.71 474.225 -433.434 510.922C-431.918 554.531 -334.714 521.611 -325.406 561.365C-315.9 601.961 -410.987 678.706 -387.071 709.443C-366.325 736.106 -294.744 672.79 -248.582 660.429C-212.04 650.644 -181.231 664.779 -144.696 644.687C-108.066 624.543 -83.5462 586.457 -55.8415 554.418Z" stroke="#F1F8F6" stroke-width="0.818142"/>
<path opacity="0.361345" fill-rule="evenodd" clip-rule="evenodd" d="M-49.4461 549.212C-22.5746 517.419 3.45534 486.251 21.436 452.208C42.2082 412.879 63.7527 371.465 61.7748 336.91C59.6855 300.41 42.9933 268.448 9.97897 256.765C-22.4119 245.302 -69.6613 262.503 -113.121 275.604C-150.715 286.936 -187.336 305.55 -224.479 327.058C-261.816 348.678 -297.882 371.459 -330.791 400.992C-369.218 435.477 -433.511 476.75 -431.473 513.13C-429.05 556.363 -331.396 522.052 -321.193 561.317C-310.773 601.414 -405.58 679.344 -380.826 709.397C-359.352 735.467 -288.706 670.999 -242.393 657.892C-205.731 647.516 -173.773 661.163 -137.329 640.563C-100.791 619.909 -76.7374 581.501 -49.4461 549.212Z" stroke="#F1F8F6" stroke-width="0.818142"/>
<path opacity="0.369748" fill-rule="evenodd" clip-rule="evenodd" d="M-44.7336 543.784C-18.3178 511.801 6.93377 480.932 24.3398 446.877C44.4481 407.536 65.8036 365.92 63.0798 331.716C60.2026 295.587 43.3072 264.342 9.78073 253.356C-23.1126 242.577 -70.3491 259.672 -113.882 273.431C-151.538 285.333 -188.642 305.588 -225.629 327.564C-262.809 349.654 -299.012 372.053 -331.562 401.905C-369.57 436.763 -433.169 478.436 -430.346 514.447C-426.991 557.242 -330.533 521.926 -319.418 560.651C-308.068 600.195 -400.187 679.507 -374.599 708.843C-352.402 734.291 -282.697 668.666 -236.289 654.85C-199.551 643.913 -167.926 657.275 -131.624 636.21C-95.2291 615.092 -71.5622 576.267 -44.7336 543.784Z" stroke="#F1F8F6" stroke-width="0.818142"/>
<path opacity="0.378151" fill-rule="evenodd" clip-rule="evenodd" d="M-40.0423 539.388C-14.0861 507.219 11.0576 475.899 27.8673 441.829C47.2866 402.47 67.9133 361.458 64.389 327.583C60.6662 291.802 41.9427 260.492 7.83339 250.169C-25.6318 240.042 -73.3413 257.89 -116.997 272.279C-154.76 284.725 -190.935 305.13 -227.794 327.557C-264.845 350.1 -299.971 373.782 -332.17 403.943C-369.769 439.161 -434.26 481.551 -430.594 517.215C-426.238 559.599 -328.102 522.535 -316.001 560.749C-303.643 599.772 -396.584 679.792 -370.077 708.448C-347.084 733.306 -278.246 667.661 -231.687 653.166C-194.83 641.692 -161.471 653.622 -125.283 632.112C-89.0025 610.546 -66.4041 572.061 -40.0423 539.388Z" stroke="#F1F8F6" stroke-width="0.818142"/>
<path opacity="0.386555" fill-rule="evenodd" clip-rule="evenodd" d="M-34.3723 534.028C-8.87746 501.677 16.1248 469.89 32.3641 435.822C51.1246 396.466 70.0302 355.617 65.7838 322.114C61.2983 286.725 42.408 256.14 7.82563 246.533C-26.1037 237.107 -73.5115 256.058 -117.206 271.112C-155.003 284.135 -191.884 304.999 -228.565 327.894C-265.438 350.909 -299.787 374.62 -331.613 405.095C-368.778 440.68 -431.641 483.879 -427.215 519.153C-421.956 561.072 -326.002 522.632 -313.024 560.278C-299.771 598.722 -390.869 679.628 -363.572 707.54C-339.892 731.753 -271.12 665.381 -224.501 650.168C-187.598 638.126 -154.61 649.78 -118.587 627.805C-82.4706 605.773 -60.2656 566.885 -34.3723 534.028Z" stroke="#F1F8F6" stroke-width="0.818142"/>
<path opacity="0.394958" fill-rule="evenodd" clip-rule="evenodd" d="M-29.7253 529.698C-4.69473 497.17 19.5388 465.698 35.2099 431.639C53.3139 392.292 72.0427 351.244 67.0865 318.121C61.8512 283.133 41.8941 252.878 6.8589 243.993C-27.5147 235.276 -74.5887 255.312 -118.305 271.033C-156.121 284.633 -192.157 305.582 -228.649 328.945C-265.331 352.429 -300.447 376.563 -331.895 407.347C-368.616 443.295 -431.366 487.658 -426.194 522.533C-420.047 563.978 -323.856 524.214 -310.019 561.283C-295.889 599.138 -386.045 680.508 -357.978 707.667C-333.632 731.227 -266.481 664.514 -219.822 648.582C-182.887 635.97 -148.121 646.174 -112.273 623.736C-76.3327 601.239 -55.147 562.735 -29.7253 529.698Z" stroke="#F1F8F6" stroke-width="0.818142"/>
<path opacity="0.403361" fill-rule="evenodd" clip-rule="evenodd" d="M-25.1018 524.398C-0.539866 491.696 23.5689 459.766 38.6491 425.711C56.0705 386.37 73.7846 344.795 68.0616 312.033C62.0163 277.427 41.4932 248.737 5.93176 240.544C-28.9581 232.505 -75.8317 252.523 -119.622 268.886C-157.502 283.041 -194.743 305.322 -231.074 329.136C-267.595 353.074 -301.872 377.25 -332.95 408.335C-369.24 444.634 -431.903 490.144 -425.924 524.64C-418.818 565.634 -321.994 523.67 -307.22 560.188C-292.133 597.481 -381.221 680.382 -352.298 706.822C-327.207 729.758 -261.251 661.882 -214.494 645.258C-177.482 632.099 -142.289 642.353 -106.587 619.466C-70.7942 596.521 -50.0476 557.61 -25.1018 524.398Z" stroke="#F1F8F6" stroke-width="0.818142"/>
<path opacity="0.411765" fill-rule="evenodd" clip-rule="evenodd" d="M-20.5028 519.126C3.5885 486.257 26.9372 454.653 41.4529 420.618C58.2221 381.3 75.7513 339.523 69.3419 307.157C62.5716 272.968 41.0168 244.639 5.04185 237.18C-30.2538 229.861 -77.6915 250.608 -121.47 267.641C-159.339 282.375 -195.714 304.726 -231.833 329.005C-268.141 353.411 -302.233 378.388 -332.919 409.777C-368.75 446.43 -430.645 492.311 -423.943 526.391C-415.979 566.892 -319.592 524.373 -303.993 560.295C-288.064 596.978 -376.18 680.332 -346.53 706.001C-320.81 728.268 -254.962 659.651 -208.202 642.304C-171.187 628.573 -136.407 638.567 -100.904 615.218C-65.3093 591.81 -44.9706 552.51 -20.5028 519.126Z" stroke="#F1F8F6" stroke-width="0.818142"/>
<path opacity="0.420168" fill-rule="evenodd" clip-rule="evenodd" d="M-15.5188 515.698C8.09728 482.664 31.9021 449.792 45.8298 415.774C61.9199 376.476 77.8205 335.016 70.6662 303.028C63.109 269.239 41.6515 241.658 5.18774 234.904C-30.5875 228.278 -78.41 249.832 -122.23 267.511C-160.135 282.804 -195.537 305.233 -231.474 329.962C-267.598 354.821 -302.969 381.11 -333.271 412.794C-368.655 449.791 -429.827 496.012 -422.341 529.695C-413.445 569.723 -316.513 524.978 -300.01 560.328C-283.157 596.426 -370.142 681.278 -339.675 706.206C-313.246 727.831 -249.237 658.893 -202.415 640.849C-165.35 626.565 -128.966 634.986 -93.631 611.192C-58.2054 587.336 -39.504 549.248 -15.5188 515.698Z" stroke="#F1F8F6" stroke-width="0.818142"/>
<path opacity="0.428571" fill-rule="evenodd" clip-rule="evenodd" d="M-10.9613 510.498C12.1761 477.304 35.2459 444.772 48.587 410.777C63.9992 371.505 79.8151 329.876 71.9262 298.275C63.5932 264.894 40.3415 237.46 3.40717 231.418C-32.8297 225.491 -80.0605 248.154 -123.906 266.482C-161.832 282.336 -197.796 305.341 -233.539 330.519C-269.469 355.829 -303.972 382.138 -333.884 414.113C-368.813 451.451 -429.252 498.002 -420.993 531.279C-411.179 570.824 -314.918 525.465 -297.526 560.232C-279.765 595.736 -365.957 680.962 -334.694 705.139C-307.574 726.112 -243.875 656.37 -197.008 637.627C-159.908 622.79 -123.117 631.225 -87.9614 606.985C-52.7156 582.681 -34.4603 544.211 -10.9613 510.498Z" stroke="#F1F8F6" stroke-width="0.818142"/>
<path opacity="0.436975" fill-rule="evenodd" clip-rule="evenodd" d="M-7.39621 506.064C15.2192 472.772 38.6048 440.742 51.3225 406.83C66.0147 367.653 80.2816 326.29 71.6395 295.125C62.5108 262.206 39.4176 235.466 2.03576 230.135C-34.6402 224.906 -81.677 247.617 -125.5 266.549C-163.408 282.927 -199.019 306.889 -234.523 332.464C-270.211 358.173 -304.884 384.325 -334.359 416.53C-368.777 454.136 -429.125 501.94 -420.073 534.757C-409.317 573.757 -312.274 527.336 -293.978 561.469C-275.294 596.325 -360.733 681.996 -328.677 705.393C-300.87 725.689 -238.05 655.922 -191.188 636.524C-154.092 621.168 -118.191 628.172 -83.2604 603.536C-48.24 578.836 -30.365 539.877 -7.39621 506.064Z" stroke="#F1F8F6" stroke-width="0.818142"/>
<path opacity="0.445378" fill-rule="evenodd" clip-rule="evenodd" d="M-1.8992 500.948C20.2322 467.506 43.4392 434.976 55.5985 401.105C69.6454 361.976 83.7261 320.412 74.4418 289.667C64.6347 257.191 39.9924 231.693 2.27292 227.11C-34.7343 222.614 -82.2703 246.108 -126.015 265.709C-163.854 282.664 -198.57 306.624 -233.816 332.656C-269.247 358.823 -303.672 385.785 -332.727 418.279C-366.654 456.222 -426.187 504.355 -416.459 536.731C-404.899 575.207 -308.783 527.15 -289.728 560.657C-270.269 594.873 -354.277 682.056 -321.577 704.657C-293.21 724.262 -231.519 653.473 -184.726 633.354C-147.684 617.427 -110.73 623.657 -76.0421 598.568C-41.2651 573.413 -24.3764 534.913 -1.8992 500.948Z" stroke="#F1F8F6" stroke-width="0.818142"/>
<path opacity="0.453782" fill-rule="evenodd" clip-rule="evenodd" d="M2.01805 497.696C23.622 464.165 45.7647 430.805 57.3043 397.028C70.6354 358.008 85.1219 317.203 75.106 286.908C64.5261 254.907 39.1129 229.851 0.981848 225.986C-36.4291 222.194 -84.3132 246.583 -128.004 266.787C-165.798 284.263 -200.547 308.09 -235.533 334.513C-270.701 361.074 -303.897 389.184 -332.502 421.899C-365.904 460.1 -425.72 508.428 -415.222 540.332C-402.747 578.246 -306.879 528.866 -286.952 561.722C-266.603 595.274 -348.848 683.118 -315.395 704.924C-286.375 723.841 -225.575 653.04 -178.82 632.268C-141.809 615.825 -104.842 620.921 -70.3992 595.441C-35.868 569.896 -19.9235 531.751 2.01805 497.696Z" stroke="#F1F8F6" stroke-width="0.818142"/>
<path opacity="0.462185" fill-rule="evenodd" clip-rule="evenodd" d="M6.46679 492.646C27.5783 458.974 48.9983 425.975 59.9557 392.243C72.6143 353.274 86.0425 312.047 75.3328 282.166C64.0202 250.602 37.8214 226.036 -0.708591 222.899C-38.511 219.821 -85.1672 244.425 -128.82 265.276C-166.581 283.313 -201.411 308.809 -236.16 335.673C-271.09 362.677 -304.37 390.532 -332.558 423.523C-365.473 462.046 -425.057 511.528 -413.829 542.997C-400.486 580.395 -303.317 528.957 -282.561 561.199C-261.365 594.124 -344.287 682.966 -310.113 703.994C-280.469 722.235 -220.038 650.611 -173.307 629.14C-136.314 612.144 -98.9815 617.253 -64.7613 591.336C-30.453 565.352 -14.9746 526.845 6.46679 492.646Z" stroke="#F1F8F6" stroke-width="0.818142"/>
<path opacity="0.470588" fill-rule="evenodd" clip-rule="evenodd" d="M11.8864 488.632C32.4632 454.881 53.2682 422.141 63.5828 388.51C75.4987 349.658 87.4948 308.794 76.0011 279.361C63.8601 248.271 38.069 224.378 -0.936614 221.947C-39.2056 219.561 -86.9882 244.912 -130.632 266.349C-168.384 284.893 -202.144 310.472 -236.654 337.714C-271.345 365.097 -304.728 392.84 -332.471 426.039C-364.867 464.806 -422.803 514.879 -410.75 545.876C-396.427 582.713 -301.285 530.569 -279.586 562.165C-257.428 594.429 -337.783 684.045 -302.777 704.288C-272.411 721.848 -214.045 649.998 -167.306 627.891C-130.306 610.391 -92.1249 614.551 -58.1273 588.256C-24.0422 561.895 -9.01181 522.91 11.8864 488.632Z" stroke="#F1F8F6" stroke-width="0.818142"/>
<path opacity="0.478992" fill-rule="evenodd" clip-rule="evenodd" d="M15.7537 484.498C35.7942 450.675 56.4827 417.342 66.1818 383.823C77.3867 345.1 88.8415 304.771 76.6458 275.808C63.7634 245.214 36.2469 221.609 -3.1196 219.905C-41.7427 218.233 -88.8319 244.665 -132.378 266.702C-170.046 285.765 -203.826 311.218 -238.046 338.842C-272.445 366.61 -305.528 395.26 -332.803 428.667C-364.652 467.676 -421.856 518.139 -409.064 548.643C-393.862 584.893 -299.068 531.448 -276.541 562.37C-253.537 593.947 -333.057 683.986 -297.353 703.416C-266.381 720.27 -208.402 647.577 -161.749 624.821C-124.818 606.807 -86.2229 610.87 -52.5001 584.194C-18.6906 557.449 -4.59994 518.85 15.7537 484.498Z" stroke="#F1F8F6" stroke-width="0.818142"/>
<path opacity="0.487395" fill-rule="evenodd" clip-rule="evenodd" d="M20.1194 480.552C39.6208 446.661 59.6678 413.589 68.7529 380.188C79.2483 341.601 89.6929 300.805 76.8048 272.316C63.1911 242.223 35.4233 220.092 -4.28769 219.116C-43.2487 218.159 -90.0978 244.645 -133.532 267.279C-171.104 286.857 -205.416 313.057 -239.337 341.06C-273.434 369.208 -305.684 397.897 -332.486 431.506C-363.782 470.75 -420.751 522.453 -407.23 552.458C-391.162 588.116 -295.757 533.515 -272.416 563.758C-248.581 594.642 -327.255 685.106 -290.87 703.719C-259.307 719.865 -202.246 647.179 -155.695 623.776C-118.845 605.251 -79.8084 607.349 -46.3699 580.295C-12.8455 553.172 0.31334 514.972 20.1194 480.552Z" stroke="#F1F8F6" stroke-width="0.818142"/>
<path opacity="0.495798" fill-rule="evenodd" clip-rule="evenodd" d="M24.9535 476.504C43.9127 442.552 63.822 408.881 72.294 375.603C82.0812 337.158 91.9954 296.901 78.4242 268.892C64.0888 239.306 35.6103 217.643 -4.42906 217.397C-43.7123 217.155 -90.8192 244.561 -134.128 267.788C-171.59 287.879 -204.927 314.1 -238.538 342.477C-272.324 371.002 -305.231 400.457 -331.553 434.262C-362.289 473.736 -418.493 525.812 -404.253 555.313C-387.331 590.372 -292.334 534.467 -268.193 564.025C-243.541 594.21 -320.363 685.222 -283.314 703.013C-251.176 718.447 -195.528 644.787 -149.095 620.742C-112.337 601.707 -72.9113 603.7 -39.7669 576.273C-6.53713 548.775 5.69801 510.987 24.9535 476.504Z" stroke="#F1F8F6" stroke-width="0.818142"/>
<path opacity="0.504202" fill-rule="evenodd" clip-rule="evenodd" d="M29.2615 471.628C47.6755 437.619 66.9433 404.217 74.8032 371.068C83.8833 332.772 92.2835 292.951 78.0381 265.426C62.9905 236.352 33.8091 215.164 -6.54296 215.647C-46.133 216.121 -91.9934 243.681 -135.162 267.497C-172.504 288.099 -206.345 315.088 -239.637 343.835C-273.102 372.731 -304.17 402.305 -330.006 436.301C-360.175 475.999 -417.087 529.211 -402.137 558.203C-384.371 592.656 -289.814 535.458 -264.886 564.327C-239.43 593.808 -315.379 685.23 -277.683 702.198C-244.984 716.917 -190.27 643.286 -143.969 618.601C-107.317 599.06 -67.0133 600.067 -34.1723 572.271C-1.24676 544.403 10.5597 506.167 29.2615 471.628Z" stroke="#F1F8F6" stroke-width="0.818142"/>
<path opacity="0.512605" fill-rule="evenodd" clip-rule="evenodd" d="M33.0597 468.662C50.9239 434.603 70.0589 400.6 77.281 367.582C85.6244 329.438 93.6193 290.176 78.6345 263.133C62.8061 234.569 32.1096 213.799 -8.6394 215.003C-48.6189 216.184 -94.5299 244.671 -137.619 269.067C-174.892 290.17 -207.64 317.157 -240.646 346.265C-273.824 375.525 -305.457 405.885 -330.818 440.066C-360.433 479.978 -416.133 532.679 -400.405 561.164C-381.715 595.014 -287.821 536.518 -262.017 564.702C-235.667 593.483 -310.43 686.258 -271.987 702.408C-238.639 716.419 -184.567 641.925 -138.332 616.611C-101.733 596.573 -61.1559 597.448 -28.5847 569.29C4.07036 541.06 14.9164 503.253 33.0597 468.662Z" stroke="#F1F8F6" stroke-width="0.818142"/>
<path opacity="0.521008" fill-rule="evenodd" clip-rule="evenodd" d="M36.8434 464.748C54.1236 430.705 72.6794 396.859 79.26 364.04C86.8623 326.125 93.8833 286.347 78.2174 259.843C61.6694 231.848 30.8387 212.487 -10.1887 214.414C-50.4413 216.304 -96.5817 245.766 -139.478 270.696C-176.585 292.261 -209.396 319.245 -242.035 348.659C-274.844 378.225 -305.682 408.686 -330.512 442.984C-359.508 483.033 -414.478 536.21 -398.034 564.128C-378.491 597.305 -284.154 537.704 -257.564 565.142C-230.411 593.162 -304.298 686.41 -265.229 701.707C-231.337 714.976 -178.198 640.486 -132.152 614.591C-95.7011 594.092 -55.2283 593.801 -23.0072 565.336C9.29684 536.798 19.2932 499.322 36.8434 464.748Z" stroke="#F1F8F6" stroke-width="0.818142"/>
<path opacity="0.529412" fill-rule="evenodd" clip-rule="evenodd" d="M42.0659 460.982C58.7916 426.901 75.71 393.298 81.6808 360.624C88.5787 322.877 96.0968 283.689 79.7817 257.684C62.5479 230.215 31.047 211.35 -10.2483 214.005C-50.7637 216.61 -96.6291 246.11 -139.346 271.617C-176.297 293.681 -208.574 321.507 -240.867 351.275C-273.327 381.199 -304.306 411.581 -328.634 446.053C-357.041 486.305 -411.661 540.715 -394.532 568.109C-374.178 600.664 -280.369 539.791 -253.03 566.526C-225.111 593.826 -297.074 687.519 -257.405 701.983C-222.994 714.531 -171.804 640.039 -125.934 613.518C-89.6228 592.523 -48.3286 591.219 -16.4382 562.399C15.5342 533.506 25.0788 495.595 42.0659 460.982Z" stroke="#F1F8F6" stroke-width="0.818142"/>
<path opacity="0.537815" fill-rule="evenodd" clip-rule="evenodd" d="M45.8094 457.154C61.9759 423.04 78.2887 389.749 83.6234 357.225C89.7864 319.651 96.3575 280.073 79.3269 254.568C61.3374 227.627 29.3504 209.267 -12.2984 212.647C-53.1607 215.964 -99.0194 246.398 -141.617 272.475C-178.465 295.032 -211.08 323.665 -243.059 353.782C-275.205 384.056 -305.267 414.398 -329.103 449.037C-356.936 489.485 -410.788 544.227 -392.907 571.095C-371.657 603.025 -278.601 540.89 -250.421 566.919C-221.644 593.5 -291.889 687.593 -251.518 701.227C-216.498 713.054 -166.006 637.723 -120.245 610.582C-84.0199 589.097 -43.4731 587.637 -11.8796 558.469C19.7953 529.226 29.3904 491.802 45.8094 457.154Z" stroke="#F1F8F6" stroke-width="0.818142"/>
<path opacity="0.546219" fill-rule="evenodd" clip-rule="evenodd" d="M49.5374 454.373C65.1125 420.295 81.2831 386.293 85.9799 353.985C91.4059 316.662 96.5369 277.498 78.8501 252.546C60.1674 226.189 27.1141 209.195 -14.7707 213.295C-55.8645 217.318 -100.466 247.843 -142.834 274.439C-179.483 297.444 -211.14 326.098 -242.728 356.503C-274.48 387.066 -305.171 418.366 -328.46 453.103C-355.656 493.664 -407.733 548.853 -389.161 575.14C-367.09 606.38 -275.671 543.105 -246.742 568.375C-217.2 594.181 -286.523 688.713 -245.572 701.487C-210.048 712.567 -160.509 637.272 -114.977 609.565C-78.9324 587.632 -37.5511 585.059 -6.33241 555.601C24.9666 526.066 33.7189 488.984 49.5374 454.373Z" stroke="#F1F8F6" stroke-width="0.818142"/>
<path opacity="0.554622" fill-rule="evenodd" clip-rule="evenodd" d="M54.6647 449.732C69.674 415.633 84.8217 382.859 88.8829 350.714C93.5746 313.579 98.738 274.051 80.3502 249.61C60.9272 223.793 27.4111 207.309 -14.7998 212.136C-56.2135 216.872 -101.773 248.327 -143.998 275.486C-180.523 298.979 -212.069 327.54 -243.326 358.283C-274.746 389.186 -304.508 420.425 -327.294 455.317C-353.902 496.059 -405.607 552.447 -386.297 578.197C-363.349 608.797 -271.741 544.303 -241.993 568.856C-211.615 593.929 -279.191 688.816 -237.566 700.751C-201.458 711.104 -154.073 635.898 -108.677 607.579C-72.7407 585.163 -30.7004 581.555 0.204094 551.758C31.1881 521.884 39.4209 484.364 54.6647 449.732Z" stroke="#F1F8F6" stroke-width="0.818142"/>
<path opacity="0.563025" fill-rule="evenodd" clip-rule="evenodd" d="M58.3483 447.044C72.7613 412.995 87.7482 379.512 91.1733 347.595C95.1302 310.724 98.4525 272.563 79.4237 248.684C59.3235 223.46 25.1899 207.449 -17.2303 212.993C-58.8495 218.431 -103.141 249.936 -145.112 277.602C-181.418 301.533 -212.412 330.992 -243.261 362.011C-274.271 393.191 -303.221 424.469 -325.451 459.444C-351.41 500.285 -403.304 557.109 -383.319 582.268C-359.569 612.167 -268.651 546.573 -238.177 570.358C-207.057 594.647 -273.679 689.955 -231.502 701.026C-194.916 710.63 -147.088 634.545 -101.946 605.673C-66.2103 582.818 -24.7845 579.013 5.72925 548.938C36.3216 518.785 43.7101 481.626 58.3483 447.044Z" stroke="#F1F8F6" stroke-width="0.818142"/>
<path opacity="0.571429" fill-rule="evenodd" clip-rule="evenodd" d="M62.0155 443.407C75.8301 409.414 90.2437 376.138 93.0338 344.456C96.2571 307.856 99.1589 270.133 79.4965 246.819C58.7271 222.193 23.9795 206.658 -18.6375 212.916C-60.4496 219.055 -104.863 251.54 -146.57 279.706C-182.648 304.07 -213.673 333.54 -244.107 364.828C-274.7 396.278 -302.837 427.574 -324.507 462.626C-349.811 503.555 -400.882 560.788 -380.23 585.353C-355.688 614.545 -265.485 547.867 -234.295 570.881C-202.444 594.383 -267.098 690.059 -224.383 700.266C-187.329 709.12 -141.476 633.137 -96.5993 603.719C-61.0743 580.432 -19.2618 576.411 10.8539 546.065C41.0471 515.64 47.9851 477.931 62.0155 443.407Z" stroke="#F1F8F6" stroke-width="0.818142"/>
<path opacity="0.579832" fill-rule="evenodd" clip-rule="evenodd" d="M66.6647 440.822C79.9034 406.828 94.0985 372.962 96.253 341.463C98.742 305.073 100.663 267.034 80.3195 244.247C58.8308 220.177 23.2571 206.079 -19.6472 213.063C-61.7412 219.914 -105.679 252.389 -147.207 281.104C-183.128 305.942 -213.416 336.183 -243.494 367.792C-273.728 399.565 -302.314 431.727 -323.464 466.913C-348.16 508.001 -398.402 565.506 -377.033 589.516C-351.639 618.049 -261.329 550.145 -229.351 572.426C-196.696 595.178 -260.556 691.193 -217.208 700.552C-179.605 708.67 -134.927 632.809 -90.225 602.794C-54.8388 579.034 -12.4086 573.971 17.3675 543.302C47.2203 512.554 53.2191 475.347 66.6647 440.822Z" stroke="#F1F8F6" stroke-width="0.818142"/>
<path opacity="0.588235" fill-rule="evenodd" clip-rule="evenodd" d="M70.2965 437.289C82.9314 403.366 96.5462 369.716 98.0667 338.464C99.8233 302.36 100.326 264.844 79.3631 242.631C57.2195 219.167 22.0476 205.472 -21.0287 213.165C-63.2915 220.713 -107.315 254.171 -148.556 283.374C-184.23 308.634 -214.539 338.887 -244.187 370.75C-273.989 402.779 -301.748 434.941 -322.328 470.189C-346.358 511.347 -395.754 569.233 -373.733 592.639C-347.563 620.455 -258.02 551.489 -225.347 572.99C-191.982 594.947 -253.843 691.274 -209.982 699.766C-171.935 707.133 -128.872 630.512 -84.4604 599.965C-49.3036 575.783 -6.49421 570.492 22.8686 539.565C52.307 508.559 57.4641 471.742 70.2965 437.289Z" stroke="#F1F8F6" stroke-width="0.818142"/>
<path opacity="0.596639" fill-rule="evenodd" clip-rule="evenodd" d="M73.9115 433.81C85.9403 399.965 98.9771 366.537 99.8643 335.539C100.889 299.729 100.977 262.665 79.4008 241.03C56.6093 218.177 19.8485 205.054 -23.3882 213.454C-65.8083 221.695 -108.549 255.105 -149.493 284.787C-184.91 310.462 -214.595 341.572 -243.804 373.682C-273.167 405.959 -301.095 438.201 -321.099 473.502C-344.459 514.722 -392.999 572.973 -370.331 595.772C-343.394 622.866 -254.641 552.856 -221.283 573.575C-187.218 594.733 -248.06 691.433 -203.7 699.058C-165.219 705.673 -123.153 629.161 -79.0427 598.089C-44.1244 573.492 -0.58484 567.033 28.3576 535.856C57.3745 504.598 61.6946 468.184 73.9115 433.81Z" stroke="#F1F8F6" stroke-width="0.818142"/>
<path opacity="0.605042" fill-rule="evenodd" clip-rule="evenodd" d="M78.5069 431.389C89.926 397.629 101.422 364.543 101.65 333.809C101.913 298.305 102.029 260.733 79.7719 239.689C56.2619 217.459 19.7464 205.635 -23.7384 214.75C-66.4021 223.692 -110.015 258.17 -150.726 288.333C-185.941 314.423 -215.529 345.536 -244.337 377.89C-273.295 410.412 -300.336 442.624 -319.778 477.971C-342.482 519.246 -390.21 577.853 -366.827 600.032C-339.038 626.388 -250.3 555.26 -216.164 575.182C-181.306 595.525 -240.339 692.502 -195.374 699.247C-156.368 705.098 -115.485 628.725 -71.6062 597.127C-36.8711 572.114 6.27344 564.601 34.8315 533.176C63.4631 501.671 66.9093 465.675 78.5069 431.389Z" stroke="#F1F8F6" stroke-width="0.818142"/>
<path opacity="0.613445" fill-rule="evenodd" clip-rule="evenodd" d="M82.085 428.021C92.8934 394.356 103.818 361.521 103.414 331.056C102.947 295.861 102.642 258.728 79.7844 238.27C55.6399 216.661 17.5557 205.451 -26.0667 215.267C-68.8654 224.898 -111.19 259.285 -151.584 289.913C-186.525 316.406 -215.131 347.405 -243.488 379.991C-271.992 412.746 -298.526 445.862 -317.385 481.245C-339.407 522.563 -386.257 581.506 -362.241 603.066C-333.701 628.689 -246.792 556.676 -211.99 575.807C-176.451 595.343 -234.431 692.667 -188.99 698.543C-149.572 703.641 -109.693 627.398 -66.1371 595.291C-31.6578 569.874 12.1686 561.183 40.2925 529.524C68.4887 497.782 71.1076 462.213 82.085 428.021Z" stroke="#F1F8F6" stroke-width="0.818142"/>
<path opacity="0.621849" fill-rule="evenodd" clip-rule="evenodd" d="M85.6453 425.713C95.8394 392.149 106.223 359.569 105.161 329.383C103.934 294.51 102.326 257.945 78.8012 238.089C53.9515 217.115 15.4689 206.381 -28.3792 216.91C-71.3993 227.24 -113.566 262.574 -153.706 293.669C-188.428 320.567 -216.941 351.56 -244.882 384.375C-272.969 417.361 -298.603 450.409 -316.891 485.823C-338.247 527.176 -384.263 586.447 -359.544 607.375C-330.169 632.245 -244.312 559.28 -208.752 577.601C-172.438 596.311 -228.578 693.859 -182.557 698.849C-142.635 703.177 -103.944 627.103 -60.6411 594.483C-26.3624 568.661 17.7093 559.747 45.435 527.854C73.232 495.878 75.2919 459.8 85.6453 425.713Z" stroke="#F1F8F6" stroke-width="0.818142"/>
<path opacity="0.630252" fill-rule="evenodd" clip-rule="evenodd" d="M90.1866 422.461C99.7855 388.942 109.853 355.799 108.179 325.833C106.246 291.214 104.48 254.261 80.3804 234.953C54.9244 214.557 15.5647 205.325 -28.4018 216.558C-71.5381 227.579 -113.674 263.826 -153.493 295.423C-187.938 322.755 -215.446 353.493 -242.939 386.583C-270.577 419.846 -296.61 453.806 -314.327 489.307C-335.016 530.762 -379.801 589.25 -354.478 609.602C-324.384 633.788 -238.679 560.548 -202.485 578.12C-165.523 596.064 -220.555 693.854 -174.088 697.998C-133.779 701.593 -96.805 624.912 -53.8302 591.744C-19.8109 565.489 23.8896 555.642 51.1851 523.471C78.5508 491.218 80.4377 456.505 90.1866 422.461Z" stroke="#F1F8F6" stroke-width="0.818142"/>
<path opacity="0.638655" fill-rule="evenodd" clip-rule="evenodd" d="M93.7096 420.272C102.69 386.87 112.181 353.997 109.876 324.32C107.212 290.037 104.041 253.703 79.3579 234.995C53.2851 215.234 14.3511 206.333 -29.7209 218.259C-72.9608 229.96 -114.784 266.22 -154.256 298.258C-188.4 325.972 -216.201 357.674 -243.222 390.971C-270.385 424.442 -295.567 458.322 -312.686 493.834C-332.677 535.301 -376.843 595.033 -350.905 614.754C-320.08 638.189 -234.992 563.04 -198.157 579.808C-160.541 596.932 -213.485 694.852 -166.575 698.126C-125.884 700.965 -90.9179 624.639 -48.2983 590.987C-14.5602 564.348 29.4902 554.269 56.3307 521.887C83.2403 489.422 84.5891 454.195 93.7096 420.272Z" stroke="#F1F8F6" stroke-width="0.818142"/>
<path opacity="0.647059" fill-rule="evenodd" clip-rule="evenodd" d="M97.2137 417.147C105.573 383.872 114.75 350.309 111.813 320.93C108.419 286.991 104.575 252.077 79.3132 233.975C52.6293 214.853 12.1529 206.644 -32.0146 219.258C-75.3481 231.635 -115.882 267.708 -154.998 300.179C-188.834 328.267 -216.897 360.947 -243.439 394.442C-270.12 428.112 -294.452 461.893 -310.971 497.406C-330.259 538.874 -373.505 598.876 -346.957 617.961C-315.409 640.64 -231.25 564.559 -193.782 580.521C-155.52 596.822 -207.344 695.023 -160.003 697.426C-118.937 699.509 -84.015 623.194 -41.7605 589.067C-8.31147 562.051 35.3716 550.965 61.7508 518.381C88.1979 485.712 88.724 450.941 97.2137 417.147Z" stroke="#F1F8F6" stroke-width="0.818142"/>
<path opacity="0.655462" fill-rule="evenodd" clip-rule="evenodd" d="M100.701 415.088C108.435 381.95 117.054 348.661 113.459 319.594C109.306 286.013 104.433 250.774 78.5259 233.296C51.1603 214.834 11.0345 207.868 -33.3165 221.189C-76.8299 234.258 -118.115 271.458 -156.939 304.368C-190.522 332.836 -217.49 365.306 -243.59 398.999C-269.826 432.867 -294.23 466.724 -310.159 502.232C-328.76 543.694 -371.132 603.962 -343.905 622.389C-311.549 644.287 -228.773 568.307 -190.58 583.438C-151.578 598.889 -200.283 696.021 -152.405 697.528C-110.873 698.835 -77.897 621.996 -35.9379 587.386C-2.72273 559.989 41.2034 548.697 67.1574 515.91C93.1781 483.038 92.8457 448.744 100.701 415.088Z" stroke="#F1F8F6" stroke-width="0.818142"/>
<path opacity="0.663866" fill-rule="evenodd" clip-rule="evenodd" d="M105.171 412.094C112.279 379.101 120.314 346.101 116.089 317.347C111.207 284.129 104.953 249.577 78.4783 232.715C50.513 214.904 9.83971 208.446 -34.587 222.449C-78.1748 236.189 -118.171 273.161 -156.62 306.487C-189.88 335.314 -217.068 368.766 -242.676 402.639C-268.418 436.688 -291.975 470.42 -307.295 505.909C-325.184 547.35 -366.616 607.855 -338.791 625.635C-305.724 646.763 -222.927 569.681 -184.117 583.996C-144.486 598.613 -193.032 696.195 -144.743 696.828C-102.855 697.377 -70.9237 620.766 -29.3492 585.699C3.56163 557.939 48.0689 545.445 73.5491 512.472C99.0949 479.414 97.9506 445.602 105.171 412.094Z" stroke="#F1F8F6" stroke-width="0.818142"/>
<path opacity="0.672269" fill-rule="evenodd" clip-rule="evenodd" d="M108.622 410.165C115.104 377.327 121.587 344.86 116.73 316.428C111.12 283.583 105.439 249.275 78.4016 233.034C49.8417 215.878 8.61971 209.933 -35.8734 224.615C-79.5263 239.021 -119.427 276.944 -157.494 310.676C-190.422 339.855 -216.407 372.108 -241.518 406.151C-266.759 440.372 -289.683 474.937 -304.389 510.398C-321.562 551.806 -363.016 612.765 -334.598 629.892C-300.827 650.245 -219.007 572.291 -179.589 585.784C-139.335 599.564 -185.755 697.138 -137.065 696.896C-94.8283 696.687 -64.9168 620.554 -23.736 585.039C8.86306 556.926 53.9251 543.217 78.9257 510.069C103.991 476.835 102.04 443.517 108.622 410.165Z" stroke="#F1F8F6" stroke-width="0.818142"/>
<path opacity="0.680672" fill-rule="evenodd" clip-rule="evenodd" d="M112.059 407.313C117.911 374.639 123.821 342.491 118.334 314.391C111.995 281.928 105.14 247.355 77.5447 231.739C48.3957 215.245 7.39897 210.548 -37.1514 225.906C-80.8604 240.975 -120.446 278.867 -158.122 312.996C-190.712 342.517 -216.888 375.753 -241.496 409.957C-266.232 444.339 -288.299 478.743 -302.388 514.165C-318.84 555.528 -358.363 616.452 -329.358 632.92C-294.889 652.491 -215.034 573.937 -175.014 586.605C-134.146 599.542 -178.429 697.066 -129.348 695.95C-86.7714 694.982 -57.906 619.119 -17.128 583.166C15.1523 554.706 59.5815 541.005 84.0968 507.69C108.675 474.289 106.117 440.497 112.059 407.313Z" stroke="#F1F8F6" stroke-width="0.818142"/>
<path opacity="0.689076" fill-rule="evenodd" clip-rule="evenodd" d="M116.48 404.527C121.7 372.028 127.04 340.209 120.923 312.448C113.856 280.377 106.593 246.282 78.4447 231.298C48.7116 215.47 6.21133 211.549 -38.3872 227.579C-82.1436 243.307 -120.631 281.882 -157.908 316.398C-190.153 346.254 -215.348 379.233 -239.447 413.588C-263.672 448.122 -285.851 482.609 -299.319 517.981C-315.046 559.286 -353.602 620.392 -324.015 636.196C-288.854 654.977 -210.011 575.612 -169.397 587.45C-127.923 599.538 -171.023 697.232 -121.56 695.241C-78.6519 693.513 -50.6586 616.951 -10.2921 580.571C21.6624 551.772 66.4383 537.839 90.4626 504.367C114.549 470.809 111.179 437.535 116.48 404.527Z" stroke="#F1F8F6" stroke-width="0.818142"/>
<path opacity="0.697479" fill-rule="evenodd" clip-rule="evenodd" d="M119.885 402.82C124.461 370.574 129.257 338.958 122.5 311.612C114.694 280.019 105.927 247.542 77.2227 233.245C46.9024 218.144 4.83272 214.431 -39.8039 231.121C-83.5977 247.496 -121.78 286.078 -158.642 320.917C-190.527 351.053 -215.886 385.123 -239.462 419.557C-263.16 454.171 -284.351 487.615 -297.184 522.857C-312.169 564.01 -349.771 625.413 -319.598 640.493C-283.741 658.415 -205.947 578.376 -164.738 589.327C-122.656 600.51 -163.608 698.159 -113.768 695.265C-70.5336 692.755 -44.5617 616.733 -4.62415 579.992C26.9908 550.908 72.2955 535.647 95.8141 502.088C119.393 468.443 115.239 435.57 119.885 402.82Z" stroke="#F1F8F6" stroke-width="0.818142"/>
<path opacity="0.705882" fill-rule="evenodd" clip-rule="evenodd" d="M123.279 400.188C127.22 368.138 131.453 336.869 124.068 309.881C115.537 278.703 106.527 245.731 77.2806 232.078C46.3878 217.656 2.677 215.746 -41.9907 233.101C-85.8149 250.128 -122.872 289.346 -159.32 324.553C-190.847 355.007 -215.082 387.798 -238.139 422.362C-261.316 457.106 -282.774 491.621 -294.98 526.792C-309.234 567.86 -345.849 629.406 -315.105 643.81C-278.57 660.927 -201.823 580.125 -160.035 590.235C-117.362 600.559 -157.101 698.33 -106.898 694.558C-63.3483 691.286 -37.4824 615.302 2.02799 578.155C33.3048 548.75 77.9963 533.536 101.015 499.84C124.092 466.058 119.275 432.739 123.279 400.188Z" stroke="#F1F8F6" stroke-width="0.818142"/>
<path opacity="0.714286" fill-rule="evenodd" clip-rule="evenodd" d="M127.659 398.635C130.965 366.792 134.64 335.878 126.628 309.258C117.372 278.506 107.013 246.332 77.2294 233.329C45.7691 219.595 2.4863 217.925 -42.204 235.941C-86.0503 253.616 -123.747 293.057 -159.774 328.62C-190.937 359.382 -214.336 392.851 -236.87 427.534C-259.522 462.398 -280.133 496.701 -291.71 531.788C-305.229 572.759 -340.849 634.428 -309.54 648.148C-272.333 664.453 -195.696 582.61 -153.337 591.873C-110.081 601.332 -148.59 699.207 -98.0326 694.555C-54.1761 690.52 -30.3303 615.171 8.74489 577.628C39.6772 547.91 84.8466 531.469 107.36 497.648C129.931 463.74 124.301 430.977 127.659 398.635Z" stroke="#F1F8F6" stroke-width="0.818142"/>
<path opacity="0.722689" fill-rule="evenodd" clip-rule="evenodd" d="M131.029 396.166C133.706 364.471 136.915 333.062 128.284 306.756C118.312 276.365 107.552 244.828 77.2417 232.432C45.2247 219.337 1.40517 218.249 -43.3003 236.931C-87.1616 255.26 -124.646 295.557 -160.25 331.52C-191.048 362.629 -213.472 395.653 -235.485 430.506C-257.612 465.54 -278.419 500.789 -289.372 535.851C-302.162 576.793 -336.766 638.429 -304.902 651.512C-267.035 667.059 -191.472 584.376 -148.554 592.837C-104.727 601.477 -141.034 699.043 -90.1343 693.536C-45.981 688.758 -24.0479 613.126 14.5904 575.143C45.1768 545.075 90.6835 528.499 112.693 494.503C134.759 460.419 128.31 428.356 131.029 396.166Z" stroke="#F1F8F6" stroke-width="0.818142"/>
<path opacity="0.731092" fill-rule="evenodd" clip-rule="evenodd" d="M134.391 394.78C136.43 363.314 139.049 332.288 129.815 306.361C119.149 276.41 107.048 244.753 76.2792 232.995C43.7782 220.576 0.117906 220.759 -44.4992 240.062C-88.2738 259 -124.66 298.945 -159.758 335.219C-190.118 366.597 -212.721 400.621 -234.16 435.556C-255.711 470.674 -275.72 505.705 -286.021 540.654C-298.049 581.464 -331.594 643.163 -299.246 655.573C-260.806 670.321 -187.107 587.202 -143.728 594.837C-99.4309 602.633 -133.328 699.849 -82.203 693.497C-37.8542 687.987 -16.8229 612.687 21.2874 574.357C51.456 544.014 96.5626 526.49 118.016 492.404C139.524 458.23 132.319 426.738 134.391 394.78Z" stroke="#F1F8F6" stroke-width="0.818142"/>
<path opacity="0.739496" fill-rule="evenodd" clip-rule="evenodd" d="M138.745 392.48C140.144 361.255 142.204 330.613 132.346 305.086C120.957 275.596 108.465 244.469 77.1738 233.381C44.1202 221.669 -1.00251 222.734 -45.6182 242.686C-89.3913 262.262 -124.598 302.765 -159.254 339.363C-189.231 371.022 -211.814 405.018 -232.715 440.038C-253.726 475.24 -271.947 509.675 -281.61 544.504C-292.893 585.173 -326.367 647.272 -293.468 658.977C-254.373 672.888 -180.849 588.766 -136.92 595.535C-92.0607 602.448 -125.634 700.016 -74.1808 692.781C-29.5475 686.505 -9.58979 611.613 28.0626 572.922C57.8687 542.293 102.454 523.871 123.387 489.693C144.375 455.426 137.323 424.193 138.745 392.48Z" stroke="#F1F8F6" stroke-width="0.818142"/>
<path opacity="0.747899" fill-rule="evenodd" clip-rule="evenodd" d="M142.095 391.271C142.855 360.299 144.363 330.052 133.88 304.935C121.771 275.92 107.958 245.678 76.1487 235.268C42.5482 224.271 -2.15965 225.545 -46.766 246.143C-90.5301 266.353 -125.43 306.738 -159.638 343.649C-189.228 375.578 -210.901 410.195 -231.262 445.288C-251.729 480.563 -270.049 515.062 -279.072 549.758C-289.609 590.272 -322.06 652.42 -288.617 663.413C-248.873 676.476 -176.528 592.705 -132.056 598.602C-86.6422 604.624 -117.953 700.843 -66.1813 692.721C-21.2713 685.677 -3.32007 611.566 33.8678 572.525C63.306 541.619 108.286 521.965 128.696 487.705C149.16 453.357 141.323 422.726 142.095 391.271Z" stroke="#F1F8F6" stroke-width="0.818142"/>
<path opacity="0.756303" fill-rule="evenodd" clip-rule="evenodd" d="M145.444 389.153C145.565 358.447 146.524 327.615 135.445 302.911C122.646 274.372 108.36 244.718 76.1075 234.966C42.0386 224.665 -3.38734 227.56 -47.8836 248.765C-91.5397 269.569 -126.33 310.891 -160.013 348.078C-189.15 380.244 -209.964 414.499 -229.741 449.637C-249.62 484.958 -267.165 519.183 -275.531 553.726C-285.3 594.062 -316.671 656.217 -282.76 666.517C-242.461 678.757 -171.065 594.295 -126.153 599.35C-80.2894 604.511 -110.123 700.613 -58.1504 691.646C-13.0665 683.867 4.0165 609.152 40.6578 569.802C69.6634 538.653 114.154 519.083 133.998 484.769C153.893 450.368 145.321 420.339 145.444 389.153Z" stroke="#F1F8F6" stroke-width="0.818142"/>
<path opacity="0.764706" fill-rule="evenodd" clip-rule="evenodd" d="M148.793 388.128C148.275 357.701 147.748 327.66 136.049 303.389C122.534 275.351 107.88 246.253 75.1203 237.194C40.5162 227.625 -4.49461 230.712 -48.9669 252.554C-92.5993 273.984 -127.086 315.177 -160.311 352.653C-189.05 385.07 -209.846 419.277 -229.075 454.463C-248.405 489.833 -265.128 524.743 -272.852 559.127C-281.871 599.276 -311.285 661.058 -276.84 670.63C-235.907 682.004 -166.58 597.323 -121.141 601.491C-74.7384 605.748 -102.364 701.41 -50.0897 691.553C-4.74418 683.002 10.3337 609.142 46.4985 569.468C75.127 538.061 119.976 518.256 139.29 483.885C158.655 449.427 149.319 419.03 148.793 388.128Z" stroke="#F1F8F6" stroke-width="0.818142"/>
<path opacity="0.773109" fill-rule="evenodd" clip-rule="evenodd" d="M153.146 386.199C151.991 356.064 150.892 326.472 138.6 302.637C124.401 275.102 109.288 246.605 76.096 238.219C41.0349 229.36 -4.65987 233.08 -49.0085 255.519C-92.5196 277.534 -125.935 319.269 -158.627 356.994C-186.906 389.626 -206.865 423.441 -225.505 458.646C-244.242 494.035 -261.108 529.022 -268.174 563.225C-276.424 603.164 -304.755 664.893 -269.854 673.756C-228.38 684.29 -160.024 598.979 -114.159 602.292C-67.323 605.676 -93.4562 701.15 -40.9982 690.445C4.50698 681.159 18.6861 607.742 54.294 567.786C82.4816 536.156 126.86 515.455 145.603 481.057C164.394 446.57 154.32 416.805 153.146 386.199Z" stroke="#F1F8F6" stroke-width="0.818142"/>
<path opacity="0.781513" fill-rule="evenodd" clip-rule="evenodd" d="M156.507 384.369C154.712 354.469 153.015 324.475 140.131 301.021C125.248 273.927 109.69 246.166 76.0687 238.408C40.5545 230.214 -5.82462 234.626 -50.0429 257.664C-93.4261 280.267 -126.709 321.854 -158.862 359.869C-186.675 392.752 -205.778 427.046 -223.824 462.318C-241.964 497.774 -258.022 533.31 -264.426 567.389C-271.905 607.183 -299.155 668.697 -263.803 676.899C-221.791 686.646 -155.342 601.014 -109.057 603.517C-61.7924 606.074 -85.5124 700.85 -32.8774 689.323C12.7813 679.324 25.1514 606.8 60.1959 566.52C87.9375 534.634 132.746 512.758 150.912 478.285C169.126 443.723 158.329 414.735 156.507 384.369Z" stroke="#F1F8F6" stroke-width="0.818142"/>
<path opacity="0.789916" fill-rule="evenodd" clip-rule="evenodd" d="M159.879 383.64C157.447 354.06 155.202 324.528 141.707 301.545C126.116 274.993 109.242 247.219 75.131 240.179C39.0998 232.742 -6.83067 238.33 -51.0037 261.995C-94.3426 285.212 -127.287 327.638 -158.966 365.905C-186.369 399.007 -205.463 433.234 -222.954 468.515C-240.537 503.98 -255.756 539.155 -261.517 573.032C-268.244 612.589 -294.464 674.022 -258.596 681.47C-215.971 690.32 -150.694 604.197 -103.905 605.791C-56.1252 607.419 -77.637 701.611 -24.7264 689.187C21.1714 678.41 31.52 605.862 66.0724 565.296C93.4244 533.184 138.592 511.063 156.222 476.571C173.897 441.991 162.349 413.682 159.879 383.64Z" stroke="#F1F8F6" stroke-width="0.818142"/>
<path opacity="0.798319" fill-rule="evenodd" clip-rule="evenodd" d="M164.183 381.019C161.112 351.703 158.314 322.792 144.229 300.215C127.958 274.134 110.648 247.122 76.1177 240.727C39.6432 233.972 -6.95676 240.266 -50.9862 264.52C-94.1841 288.316 -126.016 331.161 -157.146 369.691C-184.074 403.021 -202.364 436.697 -219.256 472.018C-236.235 507.522 -251.601 542.63 -256.697 576.353C-262.649 615.731 -287.713 677.896 -251.403 684.664C-208.253 692.708 -143.99 605.928 -96.7946 606.698C-48.5993 607.483 -68.6187 701.29 -15.5464 688.04C30.4916 676.546 39.9543 604.557 73.932 563.695C100.829 531.348 145.486 508.458 162.534 473.918C179.625 439.29 167.302 410.792 164.183 381.019Z" stroke="#F1F8F6" stroke-width="0.818142"/>
<path opacity="0.806723" fill-rule="evenodd" clip-rule="evenodd" d="M167.569 380.499C163.866 351.531 160.518 323.118 145.852 301.027C128.909 275.506 111.166 249.14 76.226 243.449C39.3187 237.437 -7.95526 244.406 -51.8356 269.236C-94.8872 293.597 -125.689 335.9 -156.27 374.626C-182.724 408.124 -201.018 442.766 -217.313 478.049C-233.693 513.516 -248.297 548.263 -252.735 581.746C-257.918 620.843 -281.881 682.851 -245.139 688.879C-201.476 696.043 -138.23 608.747 -90.6394 608.633C-42.0409 608.517 -60.5602 701.98 -7.33644 687.877C38.833 675.644 47.4173 604.198 80.821 563.111C107.264 530.586 151.382 506.837 167.851 472.324C184.362 437.723 171.33 409.919 167.569 380.499Z" stroke="#F1F8F6" stroke-width="0.818142"/>
<path opacity="0.815126" fill-rule="evenodd" clip-rule="evenodd" d="M170.979 379.087C166.638 350.413 162.64 321.653 147.39 299.995C129.772 274.974 110.598 248.839 75.2489 243.81C37.9095 238.497 -9.00933 246.75 -52.7336 272.16C-95.6322 297.089 -126.206 340.199 -156.23 379.16C-182.201 412.861 -199.708 446.925 -215.399 482.218C-231.172 517.695 -244.018 552.479 -247.792 585.776C-252.199 624.657 -276.104 685.797 -238.931 691.129C-194.755 697.465 -132.55 609.564 -84.567 608.611C-35.5677 607.637 -52.4677 701.636 0.902269 686.704C47.1986 673.751 53.8947 602.354 86.715 561C112.696 528.265 157.293 504.326 173.175 469.794C189.098 435.173 175.388 408.21 170.979 379.087Z" stroke="#F1F8F6" stroke-width="0.818142"/>
<path opacity="0.823529" fill-rule="evenodd" clip-rule="evenodd" d="M175.266 377.796C170.289 349.43 165.765 321.329 149.932 300.118C131.642 275.613 112.063 250.28 76.3103 245.922C38.5443 241.318 -9.02617 250.307 -52.5883 276.292C-95.3278 301.785 -124.908 344.251 -154.37 383.433C-179.856 417.326 -196.447 451.781 -211.533 487.068C-226.697 522.54 -239.703 557.235 -242.813 590.331C-246.444 628.976 -269.141 690.775 -231.543 695.4C-186.861 700.897 -125.71 612.42 -77.3419 610.619C-27.949 608.779 -43.3396 702.282 10.1689 686.519C56.5853 672.845 62.4151 602.079 94.6476 560.474C120.163 527.539 164.214 502.863 179.508 468.327C194.842 433.702 180.321 406.605 175.266 377.796Z" stroke="#8E1919" stroke-width="0.818142"/>
<path opacity="0.831933" fill-rule="evenodd" clip-rule="evenodd" d="M178.717 376.609C173.106 348.568 167.899 320.152 151.489 299.402C132.53 275.43 112.564 250.907 76.4135 247.229C38.2272 243.344 -9.99402 253.085 -53.388 279.639C-95.9626 305.691 -125.291 348.94 -154.189 388.328C-179.186 422.399 -195.016 456.237 -209.495 491.504C-224.049 526.955 -236.164 562.086 -238.61 594.964C-241.466 633.355 -263.095 694.793 -225.077 698.703C-179.897 703.35 -120.697 614.787 -71.9514 612.129C-22.1728 609.415 -35.1739 701.921 18.4651 685.325C64.9948 670.928 68.9135 600.292 100.555 558.451C125.602 525.33 170.15 500.452 184.855 465.927C199.598 431.312 184.417 405.088 178.717 376.609Z" stroke="#8E1919" stroke-width="0.818142"/>
<path opacity="0.840336" fill-rule="evenodd" clip-rule="evenodd" d="M182.209 376.532C175.979 348.899 170.236 321.037 153.263 300.826C133.656 277.478 112.418 254.124 75.8854 251.185C37.2961 248.081 -10.7029 258.072 -53.9247 285.182C-96.3302 311.78 -124.686 354.411 -153.028 393.937C-177.543 428.128 -193.298 462.892 -207.182 498.063C-221.138 533.417 -232.509 568.109 -234.306 600.683C-236.405 638.719 -256.95 699.904 -218.53 703.036C-172.873 706.758 -114.721 617.797 -65.6154 614.224C-15.4698 610.575 -26.9658 702.576 26.7905 685.118C73.4219 669.975 76.483 599.992 107.541 557.986C132.127 524.734 176.092 499.032 190.219 464.591C204.383 430.061 188.537 404.596 182.209 376.532Z" stroke="#8E1919" stroke-width="0.818142"/>
<path opacity="0.84874" fill-rule="evenodd" clip-rule="evenodd" d="M186.527 374.593C179.655 347.248 173.424 320.229 155.892 300.431C135.639 277.559 113.55 253.266 76.6879 250.942C37.75 248.486 -9.95272 259.873 -52.9055 287.503C-95.0471 314.612 -123.293 358.022 -150.99 397.743C-174.947 432.102 -189.858 467.142 -203.085 502.301C-216.381 537.643 -227.134 571.649 -228.243 604.032C-229.537 641.846 -248.794 703.433 -210.026 705.919C-163.955 708.873 -107.609 619.707 -58.2226 615.359C-7.78954 610.919 -16.7526 701.634 37.0197 683.419C83.665 667.619 84.3117 599.257 114.691 557.03C138.739 523.602 183.115 496.761 196.603 462.322C210.125 427.795 193.505 402.365 186.527 374.593Z" stroke="#8E1919" stroke-width="0.818142"/>
<path opacity="0.857143" fill-rule="evenodd" clip-rule="evenodd" d="M188.98 374.273C181.484 347.301 175.655 320.496 157.558 301.202C136.653 278.913 114.199 255.477 76.9588 253.861C37.6222 252.154 -10.7128 264.319 -53.4806 292.504C-95.4408 320.156 -122.519 363.822 -149.645 403.704C-173.109 438.203 -187.285 472.578 -199.906 507.669C-212.593 542.944 -223.543 576.845 -223.994 608.958C-224.521 646.458 -242.726 707.602 -203.561 709.342C-157.017 711.409 -101.509 622.768 -51.7697 617.537C-0.977193 612.196 -8.48119 702.24 45.3968 683.185C92.1338 666.656 91.7354 598.071 121.517 555.654C145.092 522.076 188.866 494.534 201.765 460.152C214.697 425.681 196.593 401.666 188.98 374.273Z" stroke="#8E1919" stroke-width="0.818142"/>
<path opacity="0.865546" fill-rule="evenodd" clip-rule="evenodd" d="M192.589 373.558C184.473 346.975 177.924 319.916 159.27 301.141C137.72 279.451 114.059 257.384 76.4502 256.487C36.7236 255.54 -11.3775 267.996 -53.9548 296.731C-95.7282 324.923 -122.759 368.354 -149.314 408.383C-172.284 443.009 -185.484 477.666 -197.502 512.675C-209.582 547.865 -219.607 582.125 -219.405 613.953C-219.17 651.118 -236.34 711.792 -196.785 712.776C-149.779 713.944 -95.6037 623.918 -45.5228 617.794C5.61881 611.541 -0.172329 701.842 53.8022 681.943C100.623 664.681 98.5607 597.373 127.743 554.782C150.844 521.067 194.863 492.336 207.175 458.025C219.519 423.626 200.831 400.555 192.589 373.558Z" stroke="#8E1919" stroke-width="0.818142"/>
<path opacity="0.87395" fill-rule="evenodd" clip-rule="evenodd" d="M196.972 372C188.244 345.823 181.221 319.502 162.039 301.248C139.878 280.16 115.815 259.029 77.9093 258.824C37.8691 258.607 -10.1594 271.443 -52.455 300.672C-93.9519 329.349 -119.957 373.078 -145.877 413.201C-168.298 447.908 -181.747 482.434 -193.126 517.321C-204.565 552.39 -213.988 586.056 -213.124 617.571C-212.116 654.372 -227.924 715.478 -188.056 715.734C-140.678 716.038 -88.2864 626.038 -37.9621 619.065C13.4281 611.944 10.1349 700.864 64.0956 680.178C110.904 662.234 107.079 595.193 135.593 552.485C158.165 518.677 201.926 490.168 213.617 455.967C225.338 421.677 205.835 398.587 196.972 372Z" stroke="#8E1919" stroke-width="0.818142"/>
<path opacity="0.882353" fill-rule="evenodd" clip-rule="evenodd" d="M200.381 371.57C191.026 345.748 183.597 320.305 163.873 302.524C141.088 281.982 116.371 260.968 78.1612 261.415C37.7997 261.887 -11.0002 275.672 -53.0072 305.398C-94.2209 334.562 -119.207 378.5 -144.476 418.753C-166.335 453.572 -179.234 487.347 -189.959 522.155C-200.74 557.144 -209.312 591.026 -207.769 622.279C-205.967 658.773 -219.896 718.668 -179.707 718.238C-131.948 717.726 -81.0511 628.638 -30.4774 620.855C21.1675 612.908 18.6081 701.36 72.5546 679.91C119.351 661.303 114.932 595.036 142.761 552.174C164.791 518.244 208.042 489.109 219.096 454.976C230.178 420.754 209.881 397.795 200.381 371.57Z" stroke="#8E1919" stroke-width="0.818142"/>
<path opacity="0.890756" fill-rule="evenodd" clip-rule="evenodd" d="M203.822 370.271C193.843 344.823 184.876 319.842 164.595 302.563C141.165 282.602 116.715 261.14 78.1453 262.288C37.4039 263.502 -11.6663 279.102 -53.4647 309.371C-94.4737 339.068 -118.628 382.157 -143.309 422.562C-164.66 457.513 -177.115 492.883 -187.224 527.617C-197.387 562.533 -205.382 595.633 -203.178 626.614C-200.606 662.79 -213.247 722.936 -172.68 721.767C-124.47 720.378 -75.0187 629.921 -24.1177 621.266C27.8615 612.428 27.0182 700.914 81.0423 678.636C127.906 659.311 122.426 592.99 149.638 549.949C171.18 515.877 212.97 486.719 223.425 452.648C233.908 418.489 213.956 396.116 203.822 370.271Z" stroke="#8E1919" stroke-width="0.818142"/>
<path opacity="0.89916" fill-rule="evenodd" clip-rule="evenodd" d="M207.304 370.098C196.708 345.042 187.017 320.038 166.207 303.264C142.167 283.885 117.395 263.507 78.5364 265.329C37.4899 267.253 -11.4712 283.292 -52.9713 314.046C-93.6877 344.219 -117.671 388.011 -141.702 428.513C-162.49 463.548 -173.572 497.599 -183.033 532.22C-192.543 567.022 -200.52 600.837 -197.646 631.518C-194.29 667.343 -205.944 726.738 -165.072 724.861C-116.5 722.63 -68.4916 633.152 -17.3597 623.669C34.8552 613.985 36.4067 700.859 90.4 677.812C137.237 657.82 129.155 592.466 155.682 549.306C176.68 515.14 219.147 485.78 228.97 451.811C238.818 417.754 218.064 395.547 207.304 370.098Z" stroke="#8E1919" stroke-width="0.818142"/>
<path opacity="0.907563" fill-rule="evenodd" clip-rule="evenodd" d="M212.225 369.977C201.02 345.329 190.59 320.327 169.26 304.073C144.618 285.296 118.335 265.637 79.1967 268.143C37.8543 270.789 -11 287.269 -52.1976 318.502C-92.6173 349.145 -115.577 393.08 -138.959 433.662C-159.185 468.766 -169.388 502.946 -178.202 537.436C-187.063 572.106 -194.162 606.076 -190.624 636.438C-186.493 671.892 -197.191 730.515 -156.023 727.918C-107.1 724.833 -61.2602 634.518 -9.90773 624.197C42.5325 613.658 45.9879 700.334 99.942 676.517C146.745 655.856 138.13 591.357 163.972 548.095C184.429 513.848 226.371 483.893 235.564 450.042C244.782 416.104 223.606 395.011 212.225 369.977Z" stroke="#8E1919" stroke-width="0.818142"/>
<path opacity="0.915966" fill-rule="evenodd" clip-rule="evenodd" d="M215.836 370.053C204.029 345.831 192.848 320.856 171.006 305.138C145.773 286.98 119.224 268.434 79.8143 271.633C38.1859 275.011 -10.5637 291.935 -51.4546 323.642C-91.5732 354.75 -114.33 399.36 -137.066 440.006C-156.732 475.165 -166.46 508.537 -174.634 542.879C-182.85 577.4 -189.059 611.498 -184.863 641.523C-179.964 676.584 -189.741 734.414 -148.287 731.088C-99.0251 727.135 -53.7344 637.308 -2.17234 626.141C50.482 614.737 55.4358 700.247 109.342 675.656C156.103 654.324 145.747 590.344 170.907 546.997C190.823 512.683 232.228 482.145 240.797 448.43C249.388 414.627 227.828 394.654 215.836 370.053Z" stroke="#8E1919" stroke-width="0.818142"/>
<path opacity="0.92437" fill-rule="evenodd" clip-rule="evenodd" d="M219.511 369.253C207.11 345.473 195.608 321.45 173.263 306.283C147.45 288.762 120.233 270.434 80.5635 274.336C38.6603 278.457 -11.2477 295.501 -51.8276 327.676C-91.6413 359.243 -112.535 403.378 -134.626 444.072C-153.736 479.272 -163.411 513.3 -170.949 547.477C-178.527 581.833 -183.833 616.03 -178.988 645.7C-173.331 680.346 -181.782 738.263 -140.054 734.197C-90.4649 729.365 -47.3772 638.803 4.38263 626.78C57.2388 614.502 64.0892 699.706 117.937 674.34C164.649 652.335 153.376 588.355 177.856 544.94C197.235 510.572 238.529 480.364 246.479 446.8C254.449 413.15 232.106 393.404 219.511 369.253Z" stroke="#8E1919" stroke-width="0.818142"/>
<path opacity="0.932773" fill-rule="evenodd" clip-rule="evenodd" d="M223.795 368.69C210.778 345.309 198.591 321.474 175.725 306.815C149.308 289.88 121.938 272.793 81.9962 277.364C39.8049 282.192 -9.9977 299.748 -50.2587 332.393C-89.7595 364.422 -110.459 409.137 -131.885 449.912C-150.419 485.182 -159.255 519.181 -166.136 553.232C-173.053 587.461 -177.156 620.146 -171.638 649.506C-165.196 683.79 -173.187 742.211 -131.171 737.441C-81.2409 731.773 -38.7011 641.635 13.2674 628.792C66.3367 615.677 74.5871 699.563 128.38 673.441C175.043 650.781 161.694 588.908 185.473 545.391C204.297 510.943 245.452 478.797 252.761 445.347C260.089 411.812 237.015 392.436 223.795 368.69Z" stroke="#8E1919" stroke-width="0.818142"/>
<path opacity="0.941176" fill-rule="evenodd" clip-rule="evenodd" d="M227.6 368.149C214.011 345.244 201.536 322.391 178.21 308.298C151.263 292.018 122.664 274.375 82.5434 279.626C40.1635 285.172 -9.20934 304.184 -49.0704 337.227C-88.1787 369.647 -107.971 414.502 -128.7 455.249C-146.631 490.495 -154.66 524.6 -160.884 558.428C-167.14 592.431 -170.891 624.327 -164.728 653.286C-157.532 687.101 -164.127 745.503 -121.923 740.017C-71.7682 733.498 -31.3027 642.614 20.7555 628.956C73.9164 615.009 84.2214 698.356 137.841 671.522C184.355 648.245 169.453 586.923 192.495 543.42C210.735 508.982 251.886 477.094 258.553 443.854C265.237 410.529 241.402 391.411 227.6 368.149Z" stroke="#8E1919" stroke-width="0.818142"/>
<path opacity="0.94958" fill-rule="evenodd" clip-rule="evenodd" d="M231.494 368.723C217.308 346.252 204.164 323.621 180.336 310.068C152.809 294.412 123.591 277.173 83.2186 283.113C40.5728 289.387 -9.46821 309.505 -49.0025 343.007C-87.7903 375.876 -106.565 420.69 -126.635 461.483C-143.997 496.77 -151.693 529.94 -157.271 563.606C-162.879 597.448 -165.312 630.121 -158.494 658.733C-150.532 692.142 -156.351 749.54 -113.882 743.329C-63.4113 735.949 -24.244 646.119 27.999 631.623C81.3486 616.82 92.9726 698.771 146.518 671.177C192.967 647.24 177.193 586.06 199.54 542.489C217.23 507.998 257.866 475.649 263.904 442.558C269.958 409.381 245.902 391.545 231.494 368.723Z" stroke="#8E1919" stroke-width="0.818142"/>
<path opacity="0.957983" fill-rule="evenodd" clip-rule="evenodd" d="M235.95 367.568C221.177 345.549 207.366 323.162 183.047 310.166C154.953 295.151 124.857 279.79 84.2437 286.429C41.344 293.443 -7.7569 313.476 -46.9602 347.432C-85.4232 380.746 -103.182 425.491 -122.599 466.315C-139.394 501.63 -147.064 535.318 -152.004 568.806C-156.969 602.469 -159.108 634.179 -151.643 662.424C-142.927 695.407 -147.484 752.636 -104.76 745.689C-53.9887 737.433 -16.5935 647.829 35.8211 632.484C89.346 616.815 103.564 697.582 157.025 669.225C203.4 644.627 185.959 584.224 207.615 540.603C224.758 506.072 264.872 473.273 270.288 440.346C275.717 407.335 250.954 389.932 235.95 367.568Z" stroke="#8E1919" stroke-width="0.818142"/>
<path opacity="0.966387" fill-rule="evenodd" clip-rule="evenodd" d="M240.023 367.38C224.676 345.829 210.175 323.726 185.399 311.284C156.776 296.911 126.013 282.058 85.2298 289.362C42.1507 297.078 -6.94891 317.737 -45.7382 352.08C-83.795 385.774 -100.679 430.529 -119.386 471.324C-135.568 506.612 -142.497 540.266 -146.771 573.533C-151.068 606.974 -152.448 638.592 -144.334 666.443C-134.86 698.965 -138.111 755.953 -95.2085 748.307C-44.2236 739.219 -8.98977 648.934 43.5019 632.794C97.1055 616.312 113.276 696.303 166.55 667.253C212.762 642.052 194.374 583.192 215.28 539.587C231.828 505.068 271.499 471.764 276.264 439.044C281.042 406.241 255.61 389.269 240.023 367.38Z" stroke="#8E1919" stroke-width="0.818142"/>
<path opacity="0.97479" fill-rule="evenodd" clip-rule="evenodd" d="M243.628 367.484C227.678 346.36 212.57 324.675 187.311 312.748C158.13 298.97 126.779 284.753 85.8092 292.69C42.5324 301.073 -6.53279 322.401 -44.9002 357.132C-82.5432 391.207 -98.5909 435.898 -116.564 476.691C-132.112 511.978 -138.362 545.487 -141.945 578.567C-145.546 611.82 -146.245 643.214 -137.452 670.711C-127.185 702.82 -129.217 759.419 -86.1163 751.107C-34.8965 741.229 -1.33959 651.051 51.2454 634.15C104.944 616.891 123.004 695.986 176.095 666.261C222.148 640.477 202.316 582.386 222.444 538.767C238.378 504.238 277.657 470.522 281.747 437.977C285.847 405.348 259.827 388.939 243.628 367.484Z" stroke="#8E1919" stroke-width="0.818142"/>
<path opacity="0.983193" fill-rule="evenodd" clip-rule="evenodd" d="M248.308 366.718C231.807 346.095 216.646 325.517 190.933 314.191C161.229 301.107 129.309 287.378 88.1361 296.044C44.6449 305.198 -4.26511 327.051 -42.2904 362.22C-79.5976 396.724 -95.4193 441.904 -112.754 482.682C-127.749 517.955 -133.007 549.892 -135.976 582.745C-138.961 615.77 -139.635 647.623 -130.23 674.701C-119.247 706.32 -120.034 762.643 -76.7195 753.563C-25.2451 742.773 7.34161 652.327 60.0562 634.551C113.887 616.397 133.686 694.745 186.66 664.251C232.613 637.798 211.193 580.605 230.647 536.985C246.047 502.455 284.783 468.318 288.274 435.986C291.774 403.57 265.067 387.664 248.308 366.718Z" stroke="#8E1919" stroke-width="0.818142"/>
<path opacity="0.991597" fill-rule="evenodd" clip-rule="evenodd" d="M252.071 367.08C234.991 346.918 219.263 326.777 193.091 315.998C162.857 303.545 130.375 290.491 89.0384 299.808C45.3749 309.65 -3.48247 332.182 -41.0793 367.726C-77.9661 402.599 -92.9583 447.682 -109.57 488.425C-123.94 523.669 -128.561 555.433 -130.855 588.065C-133.161 620.868 -133.162 652.468 -123.1 679.155C-111.35 710.319 -110.943 766.188 -67.456 756.422C-15.7767 744.817 15.1571 654.55 67.9381 635.995C121.837 617.046 143.473 694.395 196.245 663.223C242.022 636.182 219.202 579.841 237.89 536.242C252.684 501.728 291.02 467.194 293.851 435.069C296.69 402.861 269.418 387.556 252.071 367.08Z" stroke="#8E1919" stroke-width="0.818142"/>
<path fill-rule="evenodd" clip-rule="evenodd" d="M255.925 366.564C238.279 346.881 221.996 327.194 195.379 316.975C164.629 305.17 131.601 292.809 90.114 302.787C46.2912 313.327 -2.50238 336.541 -39.6678 372.455C-76.1313 407.691 -90.3022 452.658 -106.198 493.351C-119.948 528.551 -123.941 560.127 -125.568 592.521C-127.204 625.085 -126.542 656.415 -115.835 682.695C-103.332 713.382 -101.748 768.766 -58.1017 758.305C-6.23302 745.874 23.0641 655.823 75.8978 636.481C129.851 616.729 153.292 693.03 205.852 661.179C251.445 633.549 227.25 578.098 245.179 534.536C259.372 500.052 297.304 465.126 299.484 433.225C301.67 401.241 273.848 386.556 255.925 366.564Z" stroke="#8E1919" stroke-width="0.818142"/>
</g>
</svg>
