<svg width="16" height="16" viewBox="0 0 16 16" fill="none" xmlns="http://www.w3.org/2000/svg">
<path d="M3.32292 4.79819C4.12852 4.79819 4.78159 4.14513 4.78159 3.33953C4.78159 2.53393 4.12852 1.88086 3.32292 1.88086C2.51732 1.88086 1.86426 2.53393 1.86426 3.33953C1.86426 4.14513 2.51732 4.79819 3.32292 4.79819Z" fill="#F1F8F6"/>
<path d="M6.15912 5.90312V13.9958H8.67179V9.99379C8.67179 8.93779 8.87045 7.91512 10.1798 7.91512C11.4711 7.91512 11.4871 9.12246 11.4871 10.0605V13.9965H14.0011V9.55846C14.0011 7.37846 13.5318 5.70312 10.9838 5.70312C9.76045 5.70312 8.94045 6.37446 8.60512 7.00979H8.57112V5.90312H6.15912ZM2.06445 5.90312H4.58112V13.9958H2.06445V5.90312Z" fill="#F1F8F6"/>
</svg>
