<svg width="14" height="14" viewBox="0 0 14 14" fill="none" xmlns="http://www.w3.org/2000/svg">
<path d="M7.00008 4.91589C5.8532 4.91589 4.91726 5.85183 4.91726 6.9987C4.91726 8.14558 5.8532 9.08152 7.00008 9.08152C8.14695 9.08152 9.08289 8.14558 9.08289 6.9987C9.08289 5.85183 8.14695 4.91589 7.00008 4.91589ZM13.247 6.9987C13.247 6.13621 13.2548 5.28152 13.2063 4.42058C13.1579 3.42058 12.9298 2.53308 12.1985 1.80183C11.4657 1.06902 10.5798 0.842457 9.57977 0.794019C8.71727 0.745582 7.86258 0.753394 7.00164 0.753394C6.13914 0.753394 5.28445 0.745582 4.42351 0.794019C3.42351 0.842457 2.53601 1.07058 1.80476 1.80183C1.07195 2.53464 0.845387 3.42058 0.796949 4.42058C0.748512 5.28308 0.756324 6.13777 0.756324 6.9987C0.756324 7.85964 0.748512 8.71589 0.796949 9.57683C0.845387 10.5768 1.07351 11.4643 1.80476 12.1956C2.53758 12.9284 3.42351 13.155 4.42351 13.2034C5.28601 13.2518 6.1407 13.244 7.00164 13.244C7.86414 13.244 8.71883 13.2518 9.57977 13.2034C10.5798 13.155 11.4673 12.9268 12.1985 12.1956C12.9313 11.4628 13.1579 10.5768 13.2063 9.57683C13.2563 8.71589 13.247 7.8612 13.247 6.9987ZM7.00008 10.2034C5.22664 10.2034 3.79539 8.77214 3.79539 6.9987C3.79539 5.22527 5.22664 3.79402 7.00008 3.79402C8.77352 3.79402 10.2048 5.22527 10.2048 6.9987C10.2048 8.77214 8.77352 10.2034 7.00008 10.2034ZM10.336 4.41121C9.92195 4.41121 9.58758 4.07683 9.58758 3.66277C9.58758 3.24871 9.92195 2.91433 10.336 2.91433C10.7501 2.91433 11.0845 3.24871 11.0845 3.66277C11.0846 3.76109 11.0653 3.85847 11.0277 3.94933C10.9902 4.04019 10.935 4.12275 10.8655 4.19227C10.796 4.26179 10.7134 4.31692 10.6226 4.35449C10.5317 4.39205 10.4343 4.41133 10.336 4.41121Z" fill="#F1F8F6"/>
</svg>
