<svg width="19" height="22" viewBox="0 0 19 22" fill="none" xmlns="http://www.w3.org/2000/svg">
<path d="M2.20298 11.8773L9.84074 4.2395C10.2085 3.87179 10.6452 3.58012 11.1257 3.38116C11.6062 3.18219 12.1212 3.07982 12.6413 3.07988C13.1614 3.07995 13.6764 3.18245 14.1569 3.38155C14.6374 3.58064 15.0739 3.87242 15.4416 4.24022C15.8093 4.60803 16.101 5.04466 16.3 5.52519C16.4989 6.00571 16.6013 6.52072 16.6012 7.04081C16.6012 7.5609 16.4987 8.07588 16.2996 8.55636C16.1005 9.03683 15.8087 9.47339 15.4409 9.8411L6.27674 19.0053C5.93894 19.3431 5.48078 19.5328 5.00306 19.5328C4.52534 19.5328 4.06718 19.3431 3.72938 19.0053C3.39158 18.6675 3.2018 18.2093 3.2018 17.7316C3.2018 17.2539 3.39158 16.7957 3.72938 16.4579L11.8755 8.31182C12.0662 8.10709 12.1701 7.8363 12.1652 7.55651C12.1602 7.27672 12.0469 7.00976 11.849 6.81189C11.6511 6.61401 11.3842 6.50067 11.1044 6.49573C10.8246 6.49079 10.5538 6.59465 10.3491 6.78542L2.20298 14.9315C1.46016 15.6743 1.04285 16.6818 1.04285 17.7323C1.04285 18.7828 1.46016 19.7903 2.20298 20.5331C2.9458 21.2759 3.95328 21.6932 5.00378 21.6932C6.05428 21.6932 7.06176 21.2759 7.80458 20.5331L16.9673 11.3675C18.0929 10.2153 18.719 8.66581 18.7096 7.05506C18.7002 5.44431 18.0562 3.9022 16.9172 2.76321C15.7782 1.62422 14.2361 0.980187 12.6253 0.970807C11.0146 0.961427 9.46508 1.58745 8.3129 2.7131L0.676579 10.3494C0.485807 10.5542 0.38195 10.8249 0.386887 11.1047C0.391824 11.3845 0.505169 11.6515 0.703043 11.8494C0.900918 12.0472 1.16787 12.1606 1.44767 12.1655C1.72746 12.1704 1.99825 12.0666 2.20298 11.8758V11.8773Z" fill="#FBFBFB"/>
</svg>
